STARTFONT 2.1
COMMENT uni16m v1.1 1996 by Wilhelm Chao (wchao@hrz.uni-bielefeld.de) from:
COMMENT    8x16.bdf Copyright 1989 by Sony Corp.
COMMENT    misc16.bdf from cnd.org
COMMENT    misc.unihan.16.bdf from kth.se
COMMENT    taipei16.bdf from X font `taipei16' by getbdf
COMMENT    hanglm16.bdf Copyright (c) 1987, 1988 Daewoo Electronics Co.,Ltd
COMMENT    jiskan16.bdf from JIS X 9051-1984
COMMENT    etl16-greek.bdf by Takahashi N. <ntakahas@etl.go.jp>
COMMENT    etl16-cyrillic.bdf by Takahashi N. <ntakahas@etl.go.jp>
COMMENT    etl16-hebrew.bdf by Takahashi N. <ntakahas@etl.go.jp>
COMMENT    etl16-arabic.bdf by Takahashi N. <ntakahas@etl.go.jp>
COMMENT    metafonts: cac5 tel10 mm12 thairz10 tib tibsp
COMMENT  
COMMENT TO DO matafonts: dvng8 grmk8 wntml10 mxedc10
COMMENT SEE ALSO uni24.bdf misc24.bdf at ifcss.org
COMMENT  
FONT uni16m
SIZE 16 75 75
FONTBOUNDINGBOX 16 16 0 -2
STARTPROPERTIES 12
FONT_ASCENT 14
FONT_DESCENT 2
DEFAULT_CHAR 32
COPYRIGHT "Public Domain"
PIXEL_SIZE 16
POINT_SIZE 120
FONT "-misc-fixed-medium-r-normal--16-120-75-75-C-80-unicode-0"
WEIGHT 10
RESOLUTION 103
RESOLUTION_X 75
RESOLUTION_Y 75
QUAD_WIDTH 16
ENDPROPERTIES
CHARS 25154
STARTCHAR U20
ENCODING 32
SWIDTH 512 0
DWIDTH 8 0
BBX 0 0 0 0
BITMAP
ENDCHAR
STARTCHAR U21
ENCODING 33
SWIDTH 512 0
DWIDTH 8 0
BBX 3 15 2 -2
BITMAP
e0
e0
e0
e0
e0
e0
40
40
40
40
00
00
40
e0
40
ENDCHAR
STARTCHAR U22
ENCODING 34
SWIDTH 512 0
DWIDTH 8 0
BBX 5 5 1 9
BITMAP
d8
d8
48
48
90
ENDCHAR
STARTCHAR U23
ENCODING 35
SWIDTH 512 0
DWIDTH 8 0
BBX 8 14 0 -1
BITMAP
12
12
12
7f
24
24
24
24
24
fe
48
48
48
48
ENDCHAR
STARTCHAR U24
ENCODING 36
SWIDTH 512 0
DWIDTH 8 0
BBX 7 16 0 -2
BITMAP
10
38
54
92
92
90
50
38
14
12
92
92
54
38
10
10
ENDCHAR
STARTCHAR U25
ENCODING 37
SWIDTH 512 0
DWIDTH 8 0
BBX 7 16 0 -2
BITMAP
02
62
94
94
94
98
68
10
10
2c
32
52
52
52
8c
80
ENDCHAR
STARTCHAR U26
ENCODING 38
SWIDTH 512 0
DWIDTH 8 0
BBX 7 13 0 0
BITMAP
30
48
48
48
50
20
2e
54
54
94
88
8c
72
ENDCHAR
STARTCHAR U27
ENCODING 39
SWIDTH 512 0
DWIDTH 8 0
BBX 3 5 0 9
BITMAP
e0
e0
20
20
c0
ENDCHAR
STARTCHAR U28
ENCODING 40
SWIDTH 512 0
DWIDTH 8 0
BBX 4 16 3 -2
BITMAP
10
20
40
40
80
80
80
80
80
80
80
80
40
40
20
10
ENDCHAR
STARTCHAR U29
ENCODING 41
SWIDTH 512 0
DWIDTH 8 0
BBX 4 16 0 -2
BITMAP
80
40
20
20
10
10
10
10
10
10
10
10
20
20
40
80
ENDCHAR
STARTCHAR U2a
ENCODING 42
SWIDTH 512 0
DWIDTH 8 0
BBX 7 9 0 2
BITMAP
10
38
92
d6
38
d6
92
38
10
ENDCHAR
STARTCHAR U2b
ENCODING 43
SWIDTH 512 0
DWIDTH 8 0
BBX 7 9 0 2
BITMAP
10
10
10
10
fe
10
10
10
10
ENDCHAR
STARTCHAR U2c
ENCODING 44
SWIDTH 512 0
DWIDTH 8 0
BBX 3 5 0 -2
BITMAP
e0
e0
20
20
c0
ENDCHAR
STARTCHAR U2d
ENCODING 45
SWIDTH 512 0
DWIDTH 8 0
BBX 7 1 0 6
BITMAP
fe
ENDCHAR
STARTCHAR U2e
ENCODING 46
SWIDTH 512 0
DWIDTH 8 0
BBX 3 4 0 -1
BITMAP
40
e0
e0
40
ENDCHAR
STARTCHAR U2f
ENCODING 47
SWIDTH 512 0
DWIDTH 8 0
BBX 7 16 0 -2
BITMAP
02
02
04
04
08
08
08
10
10
10
20
20
40
40
80
80
ENDCHAR
STARTCHAR U30
ENCODING 48
SWIDTH 512 0
DWIDTH 8 0
BBX 6 13 1 0
BITMAP
30
48
48
84
84
84
84
84
84
84
48
48
30
ENDCHAR
STARTCHAR U31
ENCODING 49
SWIDTH 512 0
DWIDTH 8 0
BBX 5 13 1 0
BITMAP
20
e0
20
20
20
20
20
20
20
20
20
20
f8
ENDCHAR
STARTCHAR U32
ENCODING 50
SWIDTH 512 0
DWIDTH 8 0
BBX 7 13 0 0
BITMAP
38
44
82
c2
02
04
08
10
20
40
80
82
fe
ENDCHAR
STARTCHAR U33
ENCODING 51
SWIDTH 512 0
DWIDTH 8 0
BBX 7 13 0 0
BITMAP
38
44
82
82
02
04
38
04
02
82
82
44
38
ENDCHAR
STARTCHAR U34
ENCODING 52
SWIDTH 512 0
DWIDTH 8 0
BBX 7 13 0 0
BITMAP
08
18
28
28
48
48
88
88
fe
08
08
08
3c
ENDCHAR
STARTCHAR U35
ENCODING 53
SWIDTH 512 0
DWIDTH 8 0
BBX 7 13 0 0
BITMAP
fe
80
80
80
b8
c4
82
02
02
c2
82
44
38
ENDCHAR
STARTCHAR U36
ENCODING 54
SWIDTH 512 0
DWIDTH 8 0
BBX 7 13 0 0
BITMAP
3c
42
46
80
80
b8
c4
82
82
82
82
44
38
ENDCHAR
STARTCHAR U37
ENCODING 55
SWIDTH 512 0
DWIDTH 8 0
BBX 7 14 0 -1
BITMAP
fe
82
82
04
04
04
08
08
08
08
10
10
10
10
ENDCHAR
STARTCHAR U38
ENCODING 56
SWIDTH 512 0
DWIDTH 8 0
BBX 7 13 0 0
BITMAP
38
44
82
82
82
44
38
44
82
82
82
44
38
ENDCHAR
STARTCHAR U39
ENCODING 57
SWIDTH 512 0
DWIDTH 8 0
BBX 7 13 0 0
BITMAP
38
44
82
82
82
82
46
3a
02
02
82
44
38
ENDCHAR
STARTCHAR U3a
ENCODING 58
SWIDTH 512 0
DWIDTH 8 0
BBX 3 9 2 0
BITMAP
e0
e0
00
00
00
00
00
e0
e0
ENDCHAR
STARTCHAR U3b
ENCODING 59
SWIDTH 512 0
DWIDTH 8 0
BBX 3 11 2 -2
BITMAP
e0
e0
00
00
00
00
e0
e0
60
40
c0
ENDCHAR
STARTCHAR U3c
ENCODING 60
SWIDTH 512 0
DWIDTH 8 0
BBX 5 16 2 -2
BITMAP
08
10
10
20
20
40
40
80
80
40
40
20
20
10
10
08
ENDCHAR
STARTCHAR U3d
ENCODING 61
SWIDTH 512 0
DWIDTH 8 0
BBX 7 5 0 4
BITMAP
fe
00
00
00
fe
ENDCHAR
STARTCHAR U3e
ENCODING 62
SWIDTH 512 0
DWIDTH 8 0
BBX 5 16 0 -2
BITMAP
80
40
40
20
20
10
10
08
08
10
10
20
20
40
40
80
ENDCHAR
STARTCHAR U3f
ENCODING 63
SWIDTH 512 0
DWIDTH 8 0
BBX 7 15 0 -2
BITMAP
38
44
82
c2
02
04
04
08
10
10
00
00
10
38
10
ENDCHAR
STARTCHAR U40
ENCODING 64
SWIDTH 512 0
DWIDTH 8 0
BBX 7 13 0 0
BITMAP
3c
42
82
9a
a6
a2
a2
a2
a6
9a
80
42
3c
ENDCHAR
STARTCHAR U41
ENCODING 65
SWIDTH 512 0
DWIDTH 8 0
BBX 7 13 0 0
BITMAP
10
28
28
28
44
44
44
44
7c
82
82
82
c6
ENDCHAR
STARTCHAR U42
ENCODING 66
SWIDTH 512 0
DWIDTH 8 0
BBX 7 13 0 0
BITMAP
f8
44
42
42
42
44
78
44
42
42
42
42
fc
ENDCHAR
STARTCHAR U43
ENCODING 67
SWIDTH 512 0
DWIDTH 8 0
BBX 7 13 0 0
BITMAP
3a
46
42
80
80
80
80
80
80
82
42
42
3c
ENDCHAR
STARTCHAR U44
ENCODING 68
SWIDTH 512 0
DWIDTH 8 0
BBX 7 13 0 0
BITMAP
f8
44
44
42
42
42
42
42
42
42
44
44
f8
ENDCHAR
STARTCHAR U45
ENCODING 69
SWIDTH 512 0
DWIDTH 8 0
BBX 7 13 0 0
BITMAP
fe
42
42
40
48
48
78
48
48
42
42
42
fe
ENDCHAR
STARTCHAR U46
ENCODING 70
SWIDTH 512 0
DWIDTH 8 0
BBX 7 13 0 0
BITMAP
fe
42
42
40
48
48
78
48
48
40
40
40
f0
ENDCHAR
STARTCHAR U47
ENCODING 71
SWIDTH 512 0
DWIDTH 8 0
BBX 8 13 0 0
BITMAP
1a
26
42
40
80
80
8f
82
82
82
42
66
1a
ENDCHAR
STARTCHAR U48
ENCODING 72
SWIDTH 512 0
DWIDTH 8 0
BBX 8 13 0 0
BITMAP
e7
42
42
42
42
7e
42
42
42
42
42
42
e7
ENDCHAR
STARTCHAR U49
ENCODING 73
SWIDTH 512 0
DWIDTH 8 0
BBX 7 13 0 0
BITMAP
fe
10
10
10
10
10
10
10
10
10
10
10
fe
ENDCHAR
STARTCHAR U4a
ENCODING 74
SWIDTH 512 0
DWIDTH 8 0
BBX 8 13 0 0
BITMAP
1f
02
02
02
02
02
02
02
82
82
82
44
38
ENDCHAR
STARTCHAR U4b
ENCODING 75
SWIDTH 512 0
DWIDTH 8 0
BBX 8 13 0 0
BITMAP
e3
42
44
48
48
70
50
48
48
44
44
42
e3
ENDCHAR
STARTCHAR U4c
ENCODING 76
SWIDTH 512 0
DWIDTH 8 0
BBX 7 13 0 0
BITMAP
f0
40
40
40
40
40
40
40
40
42
42
42
fe
ENDCHAR
STARTCHAR U4d
ENCODING 77
SWIDTH 512 0
DWIDTH 8 0
BBX 7 13 0 0
BITMAP
82
c6
aa
aa
aa
92
92
92
82
82
82
82
c6
ENDCHAR
STARTCHAR U4e
ENCODING 78
SWIDTH 512 0
DWIDTH 8 0
BBX 8 13 0 0
BITMAP
87
c2
a2
a2
a2
92
92
92
8a
8a
8a
86
c2
ENDCHAR
STARTCHAR U4f
ENCODING 79
SWIDTH 512 0
DWIDTH 8 0
BBX 7 13 0 0
BITMAP
38
44
82
82
82
82
82
82
82
82
82
44
38
ENDCHAR
STARTCHAR U50
ENCODING 80
SWIDTH 512 0
DWIDTH 8 0
BBX 7 13 0 0
BITMAP
f8
44
42
42
42
42
44
78
40
40
40
40
f0
ENDCHAR
STARTCHAR U51
ENCODING 81
SWIDTH 512 0
DWIDTH 8 0
BBX 7 15 0 -2
BITMAP
38
44
44
82
82
82
82
82
82
ba
44
44
38
08
06
ENDCHAR
STARTCHAR U52
ENCODING 82
SWIDTH 512 0
DWIDTH 8 0
BBX 8 13 0 0
BITMAP
f8
44
42
42
42
44
78
48
44
44
44
42
e3
ENDCHAR
STARTCHAR U53
ENCODING 83
SWIDTH 512 0
DWIDTH 8 0
BBX 7 13 0 0
BITMAP
34
4c
84
80
80
60
18
04
82
82
82
c4
b8
ENDCHAR
STARTCHAR U54
ENCODING 84
SWIDTH 512 0
DWIDTH 8 0
BBX 7 13 0 0
BITMAP
fe
92
92
10
10
10
10
10
10
10
10
10
7c
ENDCHAR
STARTCHAR U55
ENCODING 85
SWIDTH 512 0
DWIDTH 8 0
BBX 8 13 0 0
BITMAP
e7
42
42
42
42
42
42
42
42
42
42
42
3c
ENDCHAR
STARTCHAR U56
ENCODING 86
SWIDTH 512 0
DWIDTH 8 0
BBX 7 13 0 0
BITMAP
c6
82
82
82
82
44
44
44
44
28
28
10
10
ENDCHAR
STARTCHAR U57
ENCODING 87
SWIDTH 512 0
DWIDTH 8 0
BBX 7 13 0 0
BITMAP
c6
82
82
82
92
92
92
aa
aa
aa
44
44
44
ENDCHAR
STARTCHAR U58
ENCODING 88
SWIDTH 512 0
DWIDTH 8 0
BBX 7 13 0 0
BITMAP
ee
44
44
28
28
10
28
28
28
44
44
82
c6
ENDCHAR
STARTCHAR U59
ENCODING 89
SWIDTH 512 0
DWIDTH 8 0
BBX 7 13 0 0
BITMAP
c6
82
44
44
44
28
28
10
10
10
10
10
7c
ENDCHAR
STARTCHAR U5a
ENCODING 90
SWIDTH 512 0
DWIDTH 8 0
BBX 7 13 0 0
BITMAP
fe
84
88
08
10
10
10
20
20
42
42
82
fe
ENDCHAR
STARTCHAR U5b
ENCODING 91
SWIDTH 512 0
DWIDTH 8 0
BBX 4 16 3 -2
BITMAP
f0
80
80
80
80
80
80
80
80
80
80
80
80
80
80
f0
ENDCHAR
STARTCHAR U5c
ENCODING 92
SWIDTH 512 0
DWIDTH 8 0
BBX 7 14 0 -1
BITMAP
80
80
40
40
20
20
10
10
08
08
04
04
02
02
ENDCHAR
STARTCHAR U5d
ENCODING 93
SWIDTH 512 0
DWIDTH 8 0
BBX 4 16 0 -2
BITMAP
f0
10
10
10
10
10
10
10
10
10
10
10
10
10
10
f0
ENDCHAR
STARTCHAR U5e
ENCODING 94
SWIDTH 512 0
DWIDTH 8 0
BBX 7 4 0 10
BITMAP
10
28
44
82
ENDCHAR
STARTCHAR U5f
ENCODING 95
SWIDTH 512 0
DWIDTH 8 0
BBX 7 1 0 -2
BITMAP
fe
ENDCHAR
STARTCHAR U60
ENCODING 96
SWIDTH 512 0
DWIDTH 8 0
BBX 2 5 2 9
BITMAP
c0
c0
80
80
40
ENDCHAR
STARTCHAR U61
ENCODING 97
SWIDTH 512 0
DWIDTH 8 0
BBX 8 9 0 0
BITMAP
3c
42
02
3e
42
82
82
86
7b
ENDCHAR
STARTCHAR U62
ENCODING 98
SWIDTH 512 0
DWIDTH 8 0
BBX 7 13 0 0
BITMAP
c0
40
40
40
78
44
42
42
42
42
42
44
78
ENDCHAR
STARTCHAR U63
ENCODING 99
SWIDTH 512 0
DWIDTH 8 0
BBX 7 9 0 0
BITMAP
3a
46
82
80
80
80
82
42
3c
ENDCHAR
STARTCHAR U64
ENCODING 100
SWIDTH 512 0
DWIDTH 8 0
BBX 7 13 0 0
BITMAP
06
04
04
04
3c
44
84
84
84
84
84
44
3e
ENDCHAR
STARTCHAR U65
ENCODING 101
SWIDTH 512 0
DWIDTH 8 0
BBX 7 9 0 0
BITMAP
38
44
82
fe
80
80
82
42
3c
ENDCHAR
STARTCHAR U66
ENCODING 102
SWIDTH 512 0
DWIDTH 8 0
BBX 8 13 0 0
BITMAP
0e
11
10
10
fe
10
10
10
10
10
10
10
7c
ENDCHAR
STARTCHAR U67
ENCODING 103
SWIDTH 512 0
DWIDTH 8 0
BBX 8 11 0 -2
BITMAP
3b
44
44
44
38
40
78
84
82
82
7c
ENDCHAR
STARTCHAR U68
ENCODING 104
SWIDTH 512 0
DWIDTH 8 0
BBX 8 13 0 0
BITMAP
c0
40
40
40
5c
62
42
42
42
42
42
42
e7
ENDCHAR
STARTCHAR U69
ENCODING 105
SWIDTH 512 0
DWIDTH 8 0
BBX 8 14 0 0
BITMAP
18
18
00
00
00
78
08
08
08
08
08
08
08
ff
ENDCHAR
STARTCHAR U6a
ENCODING 106
SWIDTH 512 0
DWIDTH 8 0
BBX 7 16 0 -2
BITMAP
06
06
00
00
00
3e
02
02
02
02
02
02
82
82
44
38
ENDCHAR
STARTCHAR U6b
ENCODING 107
SWIDTH 512 0
DWIDTH 8 0
BBX 8 13 0 0
BITMAP
c0
40
40
40
46
44
48
58
64
44
42
42
e3
ENDCHAR
STARTCHAR U6c
ENCODING 108
SWIDTH 512 0
DWIDTH 8 0
BBX 8 13 0 0
BITMAP
78
08
08
08
08
08
08
08
08
08
08
08
ff
ENDCHAR
STARTCHAR U6d
ENCODING 109
SWIDTH 512 0
DWIDTH 8 0
BBX 8 9 0 0
BITMAP
6c
92
92
92
92
92
92
92
db
ENDCHAR
STARTCHAR U6e
ENCODING 110
SWIDTH 512 0
DWIDTH 8 0
BBX 8 9 0 0
BITMAP
dc
62
42
42
42
42
42
42
e7
ENDCHAR
STARTCHAR U6f
ENCODING 111
SWIDTH 512 0
DWIDTH 8 0
BBX 7 9 0 0
BITMAP
38
44
82
82
82
82
82
44
38
ENDCHAR
STARTCHAR U70
ENCODING 112
SWIDTH 512 0
DWIDTH 8 0
BBX 7 11 0 -2
BITMAP
f8
44
42
42
42
42
44
78
40
40
f0
ENDCHAR
STARTCHAR U71
ENCODING 113
SWIDTH 512 0
DWIDTH 8 0
BBX 7 11 0 -2
BITMAP
3e
44
84
84
84
84
44
3c
04
04
1e
ENDCHAR
STARTCHAR U72
ENCODING 114
SWIDTH 512 0
DWIDTH 8 0
BBX 7 9 0 0
BITMAP
ec
32
22
20
20
20
20
20
fc
ENDCHAR
STARTCHAR U73
ENCODING 115
SWIDTH 512 0
DWIDTH 8 0
BBX 7 9 0 0
BITMAP
3a
46
42
40
3c
02
82
c2
bc
ENDCHAR
STARTCHAR U74
ENCODING 116
SWIDTH 512 0
DWIDTH 8 0
BBX 7 12 0 0
BITMAP
20
20
20
fc
20
20
20
20
20
22
22
1c
ENDCHAR
STARTCHAR U75
ENCODING 117
SWIDTH 512 0
DWIDTH 8 0
BBX 8 9 0 0
BITMAP
c6
42
42
42
42
42
42
46
39
ENDCHAR
STARTCHAR U76
ENCODING 118
SWIDTH 512 0
DWIDTH 8 0
BBX 7 9 0 0
BITMAP
c6
82
82
44
44
44
28
28
10
ENDCHAR
STARTCHAR U77
ENCODING 119
SWIDTH 512 0
DWIDTH 8 0
BBX 7 9 0 0
BITMAP
92
92
92
92
aa
aa
44
44
44
ENDCHAR
STARTCHAR U78
ENCODING 120
SWIDTH 512 0
DWIDTH 8 0
BBX 7 9 0 0
BITMAP
ee
44
28
28
10
28
28
44
ee
ENDCHAR
STARTCHAR U79
ENCODING 121
SWIDTH 512 0
DWIDTH 8 0
BBX 8 11 0 -2
BITMAP
e7
42
22
24
14
08
08
10
10
20
c0
ENDCHAR
STARTCHAR U7a
ENCODING 122
SWIDTH 512 0
DWIDTH 8 0
BBX 7 9 0 0
BITMAP
7e
44
08
08
10
10
22
42
fe
ENDCHAR
STARTCHAR U7b
ENCODING 123
SWIDTH 512 0
DWIDTH 8 0
BBX 5 16 2 -2
BITMAP
18
20
20
20
20
20
40
80
40
20
20
20
20
20
20
18
ENDCHAR
STARTCHAR U7c
ENCODING 124
SWIDTH 512 0
DWIDTH 8 0
BBX 1 16 3 -2
BITMAP
80
80
80
80
80
80
80
80
80
80
80
80
80
80
80
80
ENDCHAR
STARTCHAR U7d
ENCODING 125
SWIDTH 512 0
DWIDTH 8 0
BBX 5 16 0 -2
BITMAP
c0
20
20
20
20
20
10
08
10
20
20
20
20
20
20
c0
ENDCHAR
STARTCHAR U7e
ENCODING 126
SWIDTH 512 0
DWIDTH 8 0
BBX 7 3 0 11
BITMAP
60
92
0c
ENDCHAR
STARTCHAR Ua1
ENCODING 161
SWIDTH 512 0
DWIDTH 8 0
BBX 3 15 2 -2
BITMAP
40
e0
40
00
00
40
40
40
40
e0
e0
e0
e0
e0
e0
ENDCHAR
STARTCHAR Ua2
ENCODING 162
SWIDTH 512 0
DWIDTH 8 0
BBX 7 13 0 -1
BITMAP
10
3c
52
92
90
90
90
90
90
92
52
3c
10
ENDCHAR
STARTCHAR Ua3
ENCODING 163
SWIDTH 512 0
DWIDTH 8 0
BBX 6 11 1 -1
BITMAP
18
24
20
20
20
f8
20
20
78
a4
40
ENDCHAR
STARTCHAR Ua4
ENCODING 164
SWIDTH 512 0
DWIDTH 8 0
BBX 6 6 1 3
BITMAP
84
78
48
48
78
84
ENDCHAR
STARTCHAR Ua5
ENCODING 165
SWIDTH 512 0
DWIDTH 8 0
BBX 7 14 0 0
BITMAP
82
82
44
44
fe
28
10
fe
10
10
10
10
10
38
ENDCHAR
STARTCHAR Ua6
ENCODING 166
SWIDTH 512 0
DWIDTH 8 0
BBX 1 13 3 0
BITMAP
80
80
80
80
80
00
00
00
80
80
80
80
80
ENDCHAR
STARTCHAR Ua7
ENCODING 167
SWIDTH 512 0
DWIDTH 8 0
BBX 6 13 1 0
BITMAP
78
84
80
40
78
84
84
84
78
08
04
84
78
ENDCHAR
STARTCHAR Ua8
ENCODING 168
SWIDTH 512 0
DWIDTH 8 0
BBX 4 3 2 10
BITMAP
90
90
90
ENDCHAR
STARTCHAR Ua9
ENCODING 169
SWIDTH 512 0
DWIDTH 8 0
BBX 8 13 0 0
BITMAP
3c
42
99
a5
c3
c1
c1
c1
c3
a5
99
42
3c
ENDCHAR
STARTCHAR Uaa
ENCODING 170
SWIDTH 512 0
DWIDTH 8 0
BBX 5 8 2 5
BITMAP
70
88
78
88
98
68
00
f8
ENDCHAR
STARTCHAR Uab
ENCODING 171
SWIDTH 512 0
DWIDTH 8 0
BBX 8 10 0 1
BITMAP
09
12
24
48
90
90
48
24
12
09
ENDCHAR
STARTCHAR Uac
ENCODING 172
SWIDTH 512 0
DWIDTH 8 0
BBX 7 4 0 3
BITMAP
fe
fe
06
06
ENDCHAR
STARTCHAR Uad
ENCODING 173
SWIDTH 512 0
DWIDTH 8 0
BBX 7 2 0 5
BITMAP
fe
fe
ENDCHAR
STARTCHAR Uae
ENCODING 174
SWIDTH 512 0
DWIDTH 8 0
BBX 8 13 0 0
BITMAP
3c
42
81
b9
a5
a5
b9
a5
a5
a5
81
42
3c
ENDCHAR
STARTCHAR Uaf
ENCODING 175
SWIDTH 512 0
DWIDTH 8 0
BBX 7 1 0 11
BITMAP
fe
ENDCHAR
STARTCHAR Ub0
ENCODING 176
SWIDTH 512 0
DWIDTH 8 0
BBX 5 5 1 8
BITMAP
70
88
88
88
70
ENDCHAR
STARTCHAR Ub1
ENCODING 177
SWIDTH 512 0
DWIDTH 8 0
BBX 7 9 0 1
BITMAP
10
10
10
fe
10
10
10
00
fe
ENDCHAR
STARTCHAR Ub2
ENCODING 178
SWIDTH 512 0
DWIDTH 8 0
BBX 4 7 1 6
BITMAP
60
90
10
20
40
80
f0
ENDCHAR
STARTCHAR Ub3
ENCODING 179
SWIDTH 512 0
DWIDTH 8 0
BBX 4 7 1 6
BITMAP
60
90
10
60
10
90
60
ENDCHAR
STARTCHAR Ub4
ENCODING 180
SWIDTH 512 0
DWIDTH 8 0
BBX 4 3 2 10
BITMAP
30
60
c0
ENDCHAR
STARTCHAR Ub5
ENCODING 181
SWIDTH 512 0
DWIDTH 8 0
BBX 7 9 0 -2
BITMAP
22
22
22
44
44
6c
54
82
80
ENDCHAR
STARTCHAR Ub6
ENCODING 182
SWIDTH 512 0
DWIDTH 8 0
BBX 8 13 0 0
BITMAP
7f
fa
fa
fa
fa
fa
7a
0a
0a
0a
0a
0a
1b
ENDCHAR
STARTCHAR Ub7
ENCODING 183
SWIDTH 512 0
DWIDTH 8 0
BBX 2 2 3 6
BITMAP
c0
c0
ENDCHAR
STARTCHAR Ub8
ENCODING 184
SWIDTH 512 0
DWIDTH 8 0
BBX 3 3 3 -2
BITMAP
60
40
80
ENDCHAR
STARTCHAR Ub9
ENCODING 185
SWIDTH 512 0
DWIDTH 8 0
BBX 3 7 1 6
BITMAP
20
60
a0
20
20
20
20
ENDCHAR
STARTCHAR Uba
ENCODING 186
SWIDTH 512 0
DWIDTH 8 0
BBX 4 8 2 5
BITMAP
60
90
90
90
90
60
00
f0
ENDCHAR
STARTCHAR Ubb
ENCODING 187
SWIDTH 512 0
DWIDTH 8 0
BBX 8 10 0 0
BITMAP
90
48
24
12
09
09
12
24
48
90
ENDCHAR
STARTCHAR Ubc
ENCODING 188
SWIDTH 512 0
DWIDTH 8 0
BBX 8 13 0 0
BITMAP
20
60
20
20
21
26
08
32
c6
0a
12
1f
02
ENDCHAR
STARTCHAR Ubd
ENCODING 189
SWIDTH 512 0
DWIDTH 8 0
BBX 8 13 0 0
BITMAP
20
60
20
20
21
26
08
36
c9
01
06
08
0f
ENDCHAR
STARTCHAR Ube
ENCODING 190
SWIDTH 512 0
DWIDTH 8 0
BBX 8 13 0 0
BITMAP
60
90
10
60
11
96
68
32
c6
0a
12
1f
02
ENDCHAR
STARTCHAR Ubf
ENCODING 191
SWIDTH 512 0
DWIDTH 8 0
BBX 7 15 0 -1
BITMAP
10
38
10
00
10
10
10
20
40
40
80
86
82
44
38
ENDCHAR
STARTCHAR Uc0
ENCODING 192
SWIDTH 512 0
DWIDTH 8 0
BBX 7 14 0 0
BITMAP
30
10
08
10
28
28
44
44
44
7c
82
82
82
c6
ENDCHAR
STARTCHAR Uc1
ENCODING 193
SWIDTH 512 0
DWIDTH 8 0
BBX 7 14 0 0
BITMAP
18
10
20
10
28
28
44
44
44
7c
82
82
82
c6
ENDCHAR
STARTCHAR Uc2
ENCODING 194
SWIDTH 512 0
DWIDTH 8 0
BBX 7 14 0 0
BITMAP
10
28
44
10
28
28
44
44
44
7c
82
82
82
c6
ENDCHAR
STARTCHAR Uc3
ENCODING 195
SWIDTH 512 0
DWIDTH 8 0
BBX 7 14 0 0
BITMAP
34
48
00
10
28
28
44
44
44
7c
82
82
82
c6
ENDCHAR
STARTCHAR Uc4
ENCODING 196
SWIDTH 512 0
DWIDTH 8 0
BBX 7 14 0 0
BITMAP
44
44
00
10
28
28
44
44
44
7c
82
82
82
c6
ENDCHAR
STARTCHAR Uc5
ENCODING 197
SWIDTH 512 0
DWIDTH 8 0
BBX 7 14 0 0
BITMAP
38
44
38
10
28
28
44
44
44
7c
82
82
82
c6
ENDCHAR
STARTCHAR Uc6
ENCODING 198
SWIDTH 512 0
DWIDTH 8 0
BBX 8 13 0 0
BITMAP
1f
29
28
48
48
48
4e
f8
88
88
88
89
cf
ENDCHAR
STARTCHAR Uc7
ENCODING 199
SWIDTH 512 0
DWIDTH 8 0
BBX 7 15 0 -2
BITMAP
3c
42
40
80
80
80
80
80
80
40
42
3c
08
08
10
ENDCHAR
STARTCHAR Uc8
ENCODING 200
SWIDTH 512 0
DWIDTH 8 0
BBX 7 14 0 0
BITMAP
30
10
08
fe
42
42
40
48
78
48
40
42
42
fe
ENDCHAR
STARTCHAR Uc9
ENCODING 201
SWIDTH 512 0
DWIDTH 8 0
BBX 7 14 0 0
BITMAP
18
10
20
fe
42
42
40
48
78
48
40
42
42
fe
ENDCHAR
STARTCHAR Uca
ENCODING 202
SWIDTH 512 0
DWIDTH 8 0
BBX 7 14 0 0
BITMAP
30
48
00
fe
42
42
40
48
78
48
40
42
42
fe
ENDCHAR
STARTCHAR Ucb
ENCODING 203
SWIDTH 512 0
DWIDTH 8 0
BBX 7 14 0 0
BITMAP
44
44
00
fe
42
42
40
48
78
48
40
42
42
fe
ENDCHAR
STARTCHAR Ucc
ENCODING 204
SWIDTH 512 0
DWIDTH 8 0
BBX 7 14 0 0
BITMAP
30
10
08
fe
10
10
10
10
10
10
10
10
10
fe
ENDCHAR
STARTCHAR Ucd
ENCODING 205
SWIDTH 512 0
DWIDTH 8 0
BBX 7 14 0 0
BITMAP
18
10
20
fe
10
10
10
10
10
10
10
10
10
fe
ENDCHAR
STARTCHAR Uce
ENCODING 206
SWIDTH 512 0
DWIDTH 8 0
BBX 7 14 0 0
BITMAP
10
28
44
fe
10
10
10
10
10
10
10
10
10
fe
ENDCHAR
STARTCHAR Ucf
ENCODING 207
SWIDTH 512 0
DWIDTH 8 0
BBX 7 14 0 0
BITMAP
44
44
00
fe
10
10
10
10
10
10
10
10
10
fe
ENDCHAR
STARTCHAR Ud0
ENCODING 208
SWIDTH 512 0
DWIDTH 8 0
BBX 7 13 0 0
BITMAP
f8
44
44
42
42
42
f2
42
42
42
44
44
f8
ENDCHAR
STARTCHAR Ud1
ENCODING 209
SWIDTH 512 0
DWIDTH 8 0
BBX 8 14 0 0
BITMAP
34
48
00
87
c2
a2
a2
92
92
92
8a
8a
86
c2
ENDCHAR
STARTCHAR Ud2
ENCODING 210
SWIDTH 512 0
DWIDTH 8 0
BBX 7 14 0 0
BITMAP
30
10
08
38
44
82
82
82
82
82
82
82
44
38
ENDCHAR
STARTCHAR Ud3
ENCODING 211
SWIDTH 512 0
DWIDTH 8 0
BBX 7 14 0 0
BITMAP
18
10
20
38
44
82
82
82
82
82
82
82
44
38
ENDCHAR
STARTCHAR Ud4
ENCODING 212
SWIDTH 512 0
DWIDTH 8 0
BBX 7 14 0 0
BITMAP
38
44
00
38
44
82
82
82
82
82
82
82
44
38
ENDCHAR
STARTCHAR Ud5
ENCODING 213
SWIDTH 512 0
DWIDTH 8 0
BBX 7 14 0 0
BITMAP
34
48
00
38
44
82
82
82
82
82
82
82
44
38
ENDCHAR
STARTCHAR Ud6
ENCODING 214
SWIDTH 512 0
DWIDTH 8 0
BBX 7 14 0 0
BITMAP
44
44
00
38
44
82
82
82
82
82
82
82
44
38
ENDCHAR
STARTCHAR Ud7
ENCODING 215
SWIDTH 512 0
DWIDTH 8 0
BBX 8 8 0 2
BITMAP
81
42
24
18
18
24
42
81
ENDCHAR
STARTCHAR Ud8
ENCODING 216
SWIDTH 512 0
DWIDTH 8 0
BBX 7 16 0 -2
BITMAP
02
02
3c
44
86
8a
8a
92
92
a2
a2
c2
44
78
80
80
ENDCHAR
STARTCHAR Ud9
ENCODING 217
SWIDTH 512 0
DWIDTH 8 0
BBX 8 14 0 0
BITMAP
30
10
08
e7
42
42
42
42
42
42
42
42
42
3c
ENDCHAR
STARTCHAR Uda
ENCODING 218
SWIDTH 512 0
DWIDTH 8 0
BBX 8 14 0 0
BITMAP
0c
08
10
e7
42
42
42
42
42
42
42
42
42
3c
ENDCHAR
STARTCHAR Udb
ENCODING 219
SWIDTH 512 0
DWIDTH 8 0
BBX 8 14 0 0
BITMAP
18
24
00
e7
42
42
42
42
42
42
42
42
42
3c
ENDCHAR
STARTCHAR Udc
ENCODING 220
SWIDTH 512 0
DWIDTH 8 0
BBX 8 14 0 0
BITMAP
24
24
00
e7
42
42
42
42
42
42
42
42
42
3c
ENDCHAR
STARTCHAR Udd
ENCODING 221
SWIDTH 512 0
DWIDTH 8 0
BBX 7 14 0 0
BITMAP
0c
08
10
c6
82
44
44
28
28
10
10
10
10
7c
ENDCHAR
STARTCHAR Ude
ENCODING 222
SWIDTH 512 0
DWIDTH 8 0
BBX 7 14 0 0
BITMAP
e0
40
78
44
42
42
42
44
78
40
40
40
40
f0
ENDCHAR
STARTCHAR Udf
ENCODING 223
SWIDTH 512 0
DWIDTH 8 0
BBX 7 13 0 0
BITMAP
30
48
84
84
84
88
b0
88
84
84
84
84
b8
ENDCHAR
STARTCHAR Ue0
ENCODING 224
SWIDTH 512 0
DWIDTH 8 0
BBX 8 13 0 0
BITMAP
30
10
08
00
3c
42
02
3e
42
82
82
86
7b
ENDCHAR
STARTCHAR Ue1
ENCODING 225
SWIDTH 512 0
DWIDTH 8 0
BBX 8 13 0 0
BITMAP
18
10
20
00
3c
42
02
3e
42
82
82
86
7b
ENDCHAR
STARTCHAR Ue2
ENCODING 226
SWIDTH 512 0
DWIDTH 8 0
BBX 8 13 0 0
BITMAP
18
24
42
00
3c
42
02
3e
42
82
82
86
7b
ENDCHAR
STARTCHAR Ue3
ENCODING 227
SWIDTH 512 0
DWIDTH 8 0
BBX 8 13 0 0
BITMAP
32
4c
00
00
3c
42
02
3e
42
82
82
86
7b
ENDCHAR
STARTCHAR Ue4
ENCODING 228
SWIDTH 512 0
DWIDTH 8 0
BBX 8 13 0 0
BITMAP
24
24
00
00
3c
42
02
3e
42
82
82
86
7b
ENDCHAR
STARTCHAR Ue5
ENCODING 229
SWIDTH 512 0
DWIDTH 8 0
BBX 8 13 0 0
BITMAP
18
24
18
00
3c
42
02
3e
42
82
82
86
7b
ENDCHAR
STARTCHAR Ue6
ENCODING 230
SWIDTH 512 0
DWIDTH 8 0
BBX 7 9 0 0
BITMAP
6c
92
12
3e
50
90
92
92
6c
ENDCHAR
STARTCHAR Ue7
ENCODING 231
SWIDTH 512 0
DWIDTH 8 0
BBX 7 12 0 -2
BITMAP
3a
46
82
80
80
80
82
42
3c
10
10
20
ENDCHAR
STARTCHAR Ue8
ENCODING 232
SWIDTH 512 0
DWIDTH 8 0
BBX 7 13 0 0
BITMAP
30
10
08
00
38
44
82
fe
80
80
82
42
3c
ENDCHAR
STARTCHAR Ue9
ENCODING 233
SWIDTH 512 0
DWIDTH 8 0
BBX 7 13 0 0
BITMAP
18
10
20
00
38
44
82
fe
80
80
82
42
3c
ENDCHAR
STARTCHAR Uea
ENCODING 234
SWIDTH 512 0
DWIDTH 8 0
BBX 7 13 0 0
BITMAP
38
44
82
00
38
44
82
fe
80
80
82
42
3c
ENDCHAR
STARTCHAR Ueb
ENCODING 235
SWIDTH 512 0
DWIDTH 8 0
BBX 7 13 0 0
BITMAP
44
44
00
00
38
44
82
fe
80
80
82
42
3c
ENDCHAR
STARTCHAR Uec
ENCODING 236
SWIDTH 512 0
DWIDTH 8 0
BBX 8 13 0 0
BITMAP
30
10
08
00
78
08
08
08
08
08
08
08
ff
ENDCHAR
STARTCHAR Ued
ENCODING 237
SWIDTH 512 0
DWIDTH 8 0
BBX 8 13 0 0
BITMAP
18
10
20
00
78
08
08
08
08
08
08
08
ff
ENDCHAR
STARTCHAR Uee
ENCODING 238
SWIDTH 512 0
DWIDTH 8 0
BBX 8 13 0 0
BITMAP
18
24
42
00
78
08
08
08
08
08
08
08
ff
ENDCHAR
STARTCHAR Uef
ENCODING 239
SWIDTH 512 0
DWIDTH 8 0
BBX 8 13 0 0
BITMAP
24
24
00
00
78
08
08
08
08
08
08
08
ff
ENDCHAR
STARTCHAR Uf0
ENCODING 240
SWIDTH 512 0
DWIDTH 8 0
BBX 7 13 0 0
BITMAP
64
18
18
24
44
3a
42
82
82
82
82
42
3c
ENDCHAR
STARTCHAR Uf1
ENCODING 241
SWIDTH 512 0
DWIDTH 8 0
BBX 8 13 0 0
BITMAP
32
4c
00
00
dc
62
42
42
42
42
42
42
e7
ENDCHAR
STARTCHAR Uf2
ENCODING 242
SWIDTH 512 0
DWIDTH 8 0
BBX 7 13 0 0
BITMAP
30
10
08
00
38
44
82
82
82
82
82
44
38
ENDCHAR
STARTCHAR Uf3
ENCODING 243
SWIDTH 512 0
DWIDTH 8 0
BBX 7 13 0 0
BITMAP
18
10
20
00
38
44
82
82
82
82
82
44
38
ENDCHAR
STARTCHAR Uf4
ENCODING 244
SWIDTH 512 0
DWIDTH 8 0
BBX 7 13 0 0
BITMAP
10
28
44
00
38
44
82
82
82
82
82
44
38
ENDCHAR
STARTCHAR Uf5
ENCODING 245
SWIDTH 512 0
DWIDTH 8 0
BBX 7 13 0 0
BITMAP
34
48
00
00
38
44
82
82
82
82
82
44
38
ENDCHAR
STARTCHAR Uf6
ENCODING 246
SWIDTH 512 0
DWIDTH 8 0
BBX 7 13 0 0
BITMAP
44
44
00
00
38
44
82
82
82
82
82
44
38
ENDCHAR
STARTCHAR Uf7
ENCODING 247
SWIDTH 512 0
DWIDTH 8 0
BBX 7 7 0 2
BITMAP
10
10
00
fe
00
10
10
ENDCHAR
STARTCHAR Uf8
ENCODING 248
SWIDTH 512 0
DWIDTH 8 0
BBX 7 9 0 0
BITMAP
3a
44
8a
8a
92
a2
a2
44
b8
ENDCHAR
STARTCHAR Uf9
ENCODING 249
SWIDTH 512 0
DWIDTH 8 0
BBX 8 13 0 0
BITMAP
30
10
08
00
c6
42
42
42
42
42
42
46
39
ENDCHAR
STARTCHAR Ufa
ENCODING 250
SWIDTH 512 0
DWIDTH 8 0
BBX 8 13 0 0
BITMAP
18
10
20
00
c6
42
42
42
42
42
42
46
39
ENDCHAR
STARTCHAR Ufb
ENCODING 251
SWIDTH 512 0
DWIDTH 8 0
BBX 8 13 0 0
BITMAP
10
28
44
00
c6
42
42
42
42
42
42
46
39
ENDCHAR
STARTCHAR Ufc
ENCODING 252
SWIDTH 512 0
DWIDTH 8 0
BBX 8 13 0 0
BITMAP
24
24
00
00
c6
42
42
42
42
42
42
46
39
ENDCHAR
STARTCHAR Ufd
ENCODING 253
SWIDTH 512 0
DWIDTH 8 0
BBX 8 15 0 -2
BITMAP
0c
08
10
00
e7
42
22
24
14
08
08
10
10
20
c0
ENDCHAR
STARTCHAR Ufe
ENCODING 254
SWIDTH 512 0
DWIDTH 8 0
BBX 7 14 0 -2
BITMAP
c0
40
40
78
44
42
42
42
42
44
78
40
40
f0
ENDCHAR
STARTCHAR Uff
ENCODING 255
SWIDTH 512 0
DWIDTH 8 0
BBX 8 15 0 -2
BITMAP
24
24
00
00
e7
42
22
24
14
08
08
10
10
20
c0
ENDCHAR
STARTCHAR U100
ENCODING 256
SWIDTH 512 0
DWIDTH 8 0
BBX 7 13 0 0
BITMAP
7c
00
10
28
28
44
44
44
7c
82
82
82
c6
ENDCHAR
STARTCHAR U101
ENCODING 257
SWIDTH 512 0
DWIDTH 8 0
BBX 8 12 0 0
BITMAP
7c
00
00
3c
42
02
3e
42
82
82
86
7b
ENDCHAR
STARTCHAR U102
ENCODING 258
SWIDTH 512 0
DWIDTH 8 0
BBX 7 14 0 0
BITMAP
44
28
10
10
28
28
44
44
44
7c
82
82
82
c6
ENDCHAR
STARTCHAR U103
ENCODING 259
SWIDTH 512 0
DWIDTH 8 0
BBX 8 13 0 0
BITMAP
44
28
10
00
3c
42
02
3e
42
82
82
86
7b
ENDCHAR
STARTCHAR U104
ENCODING 260
SWIDTH 512 0
DWIDTH 8 0
BBX 7 15 0 -2
BITMAP
10
28
28
28
44
44
44
7c
82
82
82
c6
04
04
08
ENDCHAR
STARTCHAR U105
ENCODING 261
SWIDTH 512 0
DWIDTH 8 0
BBX 8 12 0 -2
BITMAP
3c
42
02
3e
42
82
82
86
7b
08
08
10
ENDCHAR
STARTCHAR U106
ENCODING 262
SWIDTH 512 0
DWIDTH 8 0
BBX 7 14 0 0
BITMAP
0c
08
10
3a
46
42
80
80
80
80
82
42
42
3c
ENDCHAR
STARTCHAR U107
ENCODING 263
SWIDTH 512 0
DWIDTH 8 0
BBX 7 13 0 0
BITMAP
0c
08
10
00
3a
46
82
80
80
80
82
42
3c
ENDCHAR
STARTCHAR U108
ENCODING 264
SWIDTH 512 0
DWIDTH 8 0
BBX 7 14 0 0
BITMAP
18
24
00
3a
46
42
80
80
80
80
82
42
42
3c
ENDCHAR
STARTCHAR U109
ENCODING 265
SWIDTH 512 0
DWIDTH 8 0
BBX 7 13 0 0
BITMAP
10
28
44
00
3a
46
82
80
80
80
82
42
3c
ENDCHAR
STARTCHAR U10a
ENCODING 266
SWIDTH 512 0
DWIDTH 8 0
BBX 7 14 0 0
BITMAP
18
18
00
3a
46
42
80
80
80
80
82
42
42
3c
ENDCHAR
STARTCHAR U10b
ENCODING 267
SWIDTH 512 0
DWIDTH 8 0
BBX 7 13 0 0
BITMAP
00
18
18
00
3a
46
82
80
80
80
82
42
3c
ENDCHAR
STARTCHAR U10c
ENCODING 268
SWIDTH 512 0
DWIDTH 8 0
BBX 7 14 0 0
BITMAP
24
18
00
3a
46
42
80
80
80
80
82
42
42
3c
ENDCHAR
STARTCHAR U10d
ENCODING 269
SWIDTH 512 0
DWIDTH 8 0
BBX 7 13 0 0
BITMAP
44
28
10
00
3a
46
82
80
80
80
82
42
3c
ENDCHAR
STARTCHAR U10e
ENCODING 270
SWIDTH 512 0
DWIDTH 8 0
BBX 7 14 0 0
BITMAP
48
30
00
f8
44
44
42
42
42
42
42
44
44
f8
ENDCHAR
STARTCHAR U10f
ENCODING 271
SWIDTH 512 0
DWIDTH 8 0
BBX 8 13 0 0
BITMAP
06
05
05
05
3c
44
84
84
84
84
84
44
3e
ENDCHAR
STARTCHAR U110
ENCODING 272
SWIDTH 512 0
DWIDTH 8 0
BBX 7 13 0 0
BITMAP
f8
44
44
42
42
42
f2
42
42
42
44
44
f8
ENDCHAR
STARTCHAR U111
ENCODING 273
SWIDTH 512 0
DWIDTH 8 0
BBX 8 13 0 0
BITMAP
06
04
1f
04
3c
44
84
84
84
84
84
44
3e
ENDCHAR
STARTCHAR U112
ENCODING 274
SWIDTH 512 0
DWIDTH 8 0
BBX 7 14 0 0
BITMAP
7c
00
00
fe
42
42
40
48
78
48
42
42
42
fe
ENDCHAR
STARTCHAR U113
ENCODING 275
SWIDTH 512 0
DWIDTH 8 0
BBX 7 13 0 0
BITMAP
00
7c
00
00
38
44
82
fe
80
80
82
42
3c
ENDCHAR
STARTCHAR U114
ENCODING 276
SWIDTH 512 0
DWIDTH 8 0
BBX 7 14 0 0
BITMAP
48
30
00
fe
42
42
40
48
78
48
42
42
42
fe
ENDCHAR
STARTCHAR U115
ENCODING 277
SWIDTH 512 0
DWIDTH 8 0
BBX 7 13 0 0
BITMAP
44
28
10
00
38
44
82
fe
80
80
82
42
3c
ENDCHAR
STARTCHAR U116
ENCODING 278
SWIDTH 512 0
DWIDTH 8 0
BBX 7 14 0 0
BITMAP
30
30
00
fe
42
42
40
48
78
48
42
42
42
fe
ENDCHAR
STARTCHAR U117
ENCODING 279
SWIDTH 512 0
DWIDTH 8 0
BBX 7 12 0 0
BITMAP
30
30
00
38
44
82
fe
80
80
82
42
3c
ENDCHAR
STARTCHAR U118
ENCODING 280
SWIDTH 512 0
DWIDTH 8 0
BBX 7 15 0 -2
BITMAP
fe
42
42
40
48
78
48
40
42
42
42
fe
08
08
10
ENDCHAR
STARTCHAR U119
ENCODING 281
SWIDTH 512 0
DWIDTH 8 0
BBX 7 12 0 -2
BITMAP
38
44
82
fe
80
80
82
42
3c
08
08
10
ENDCHAR
STARTCHAR U11a
ENCODING 282
SWIDTH 512 0
DWIDTH 8 0
BBX 7 14 0 0
BITMAP
48
30
00
fe
42
42
40
48
78
48
42
42
42
fe
ENDCHAR
STARTCHAR U11b
ENCODING 283
SWIDTH 512 0
DWIDTH 8 0
BBX 7 13 0 0
BITMAP
44
28
10
00
38
44
82
fe
80
80
82
42
3c
ENDCHAR
STARTCHAR U11c
ENCODING 284
SWIDTH 512 0
DWIDTH 8 0
BBX 8 14 0 0
BITMAP
18
24
00
1a
26
42
80
80
8f
82
82
82
66
1a
ENDCHAR
STARTCHAR U11d
ENCODING 285
SWIDTH 512 0
DWIDTH 8 0
BBX 8 15 0 -2
BITMAP
10
28
44
00
3b
44
44
44
38
40
78
84
82
82
7c
ENDCHAR
STARTCHAR U11e
ENCODING 286
SWIDTH 512 0
DWIDTH 8 0
BBX 8 14 0 0
BITMAP
24
18
00
1a
26
42
80
80
8f
82
82
82
66
1a
ENDCHAR
STARTCHAR U11f
ENCODING 287
SWIDTH 512 0
DWIDTH 8 0
BBX 8 15 0 -2
BITMAP
44
28
10
00
3b
44
44
44
38
40
78
84
82
82
7c
ENDCHAR
STARTCHAR U120
ENCODING 288
SWIDTH 512 0
DWIDTH 8 0
BBX 8 14 0 0
BITMAP
18
18
00
1a
26
42
80
80
8f
82
82
82
66
1a
ENDCHAR
STARTCHAR U121
ENCODING 289
SWIDTH 512 0
DWIDTH 8 0
BBX 8 14 0 -2
BITMAP
18
18
00
3b
44
44
44
38
40
78
84
82
82
7c
ENDCHAR
STARTCHAR U122
ENCODING 290
SWIDTH 512 0
DWIDTH 8 0
BBX 8 15 0 -2
BITMAP
1a
26
42
40
80
80
8f
82
82
42
66
1a
08
08
10
ENDCHAR
STARTCHAR U123
ENCODING 291
SWIDTH 512 0
DWIDTH 8 0
BBX 8 14 0 -2
BITMAP
20
20
10
3b
44
44
44
38
40
78
84
82
82
7c
ENDCHAR
STARTCHAR U124
ENCODING 292
SWIDTH 512 0
DWIDTH 8 0
BBX 8 14 0 0
BITMAP
18
24
00
e7
42
42
42
7e
42
42
42
42
42
e7
ENDCHAR
STARTCHAR U125
ENCODING 293
SWIDTH 512 0
DWIDTH 8 0
BBX 8 13 0 0
BITMAP
60
90
40
40
40
5c
62
42
42
42
42
42
e7
ENDCHAR
STARTCHAR U126
ENCODING 294
SWIDTH 512 0
DWIDTH 8 0
BBX 8 13 0 0
BITMAP
e7
42
ff
42
42
7e
42
42
42
42
42
42
e7
ENDCHAR
STARTCHAR U127
ENCODING 295
SWIDTH 512 0
DWIDTH 8 0
BBX 8 13 0 0
BITMAP
c0
40
f0
40
5c
62
42
42
42
42
42
42
e7
ENDCHAR
STARTCHAR U128
ENCODING 296
SWIDTH 512 0
DWIDTH 8 0
BBX 7 14 0 0
BITMAP
34
48
00
fe
10
10
10
10
10
10
10
10
10
fe
ENDCHAR
STARTCHAR U129
ENCODING 297
SWIDTH 512 0
DWIDTH 8 0
BBX 8 13 0 0
BITMAP
34
48
00
00
78
08
08
08
08
08
08
08
ff
ENDCHAR
STARTCHAR U12a
ENCODING 298
SWIDTH 512 0
DWIDTH 8 0
BBX 7 14 0 0
BITMAP
7c
00
00
fe
10
10
10
10
10
10
10
10
10
fe
ENDCHAR
STARTCHAR U12b
ENCODING 299
SWIDTH 512 0
DWIDTH 8 0
BBX 8 13 0 0
BITMAP
7c
00
00
00
78
08
08
08
08
08
08
08
ff
ENDCHAR
STARTCHAR U12c
ENCODING 300
SWIDTH 512 0
DWIDTH 8 0
BBX 7 14 0 0
BITMAP
44
38
00
fe
10
10
10
10
10
10
10
10
10
fe
ENDCHAR
STARTCHAR U12d
ENCODING 301
SWIDTH 512 0
DWIDTH 8 0
BBX 8 13 0 0
BITMAP
44
28
10
00
78
08
08
08
08
08
08
08
ff
ENDCHAR
STARTCHAR U12e
ENCODING 302
SWIDTH 512 0
DWIDTH 8 0
BBX 7 15 0 -2
BITMAP
fe
10
10
10
10
10
10
10
10
10
10
fe
08
08
10
ENDCHAR
STARTCHAR U12f
ENCODING 303
SWIDTH 512 0
DWIDTH 8 0
BBX 7 15 0 -2
BITMAP
18
18
00
00
78
08
08
08
08
08
08
fe
04
04
08
ENDCHAR
STARTCHAR U130
ENCODING 304
SWIDTH 512 0
DWIDTH 8 0
BBX 7 14 0 0
BITMAP
10
10
00
fe
10
10
10
10
10
10
10
10
10
fe
ENDCHAR
STARTCHAR U131
ENCODING 305
SWIDTH 512 0
DWIDTH 8 0
BBX 8 9 0 0
BITMAP
78
08
08
08
08
08
08
08
ff
ENDCHAR
STARTCHAR U132
ENCODING 306
SWIDTH 512 0
DWIDTH 8 0
BBX 8 13 0 0
BITMAP
ef
42
42
42
42
42
42
42
42
42
52
52
ec
ENDCHAR
STARTCHAR U133
ENCODING 307
SWIDTH 512 0
DWIDTH 8 0
BBX 8 16 0 -2
BITMAP
63
63
00
00
00
ef
21
21
21
21
21
21
21
f1
09
06
ENDCHAR
STARTCHAR U134
ENCODING 308
SWIDTH 512 0
DWIDTH 8 0
BBX 8 14 0 0
BITMAP
06
09
00
1f
02
02
02
02
02
82
82
82
44
38
ENDCHAR
STARTCHAR U135
ENCODING 309
SWIDTH 512 0
DWIDTH 8 0
BBX 7 16 0 -2
BITMAP
00
0c
12
00
00
3e
02
02
02
02
02
02
82
82
44
38
ENDCHAR
STARTCHAR U136
ENCODING 310
SWIDTH 512 0
DWIDTH 8 0
BBX 8 14 0 -1
BITMAP
e3
42
44
48
48
70
50
48
48
44
42
e3
18
18
ENDCHAR
STARTCHAR U137
ENCODING 311
SWIDTH 512 0
DWIDTH 8 0
BBX 8 14 0 -1
BITMAP
c0
40
40
46
44
48
58
64
44
42
42
e3
18
18
ENDCHAR
STARTCHAR U138
ENCODING 312
SWIDTH 512 0
DWIDTH 8 0
BBX 8 9 0 0
BITMAP
c6
44
48
58
64
44
42
42
e3
ENDCHAR
STARTCHAR U139
ENCODING 313
SWIDTH 512 0
DWIDTH 8 0
BBX 7 14 0 0
BITMAP
18
10
20
e0
40
40
40
40
40
40
42
42
42
fe
ENDCHAR
STARTCHAR U13a
ENCODING 314
SWIDTH 512 0
DWIDTH 8 0
BBX 8 14 0 0
BITMAP
0c
08
10
78
08
08
08
08
08
08
08
08
08
ff
ENDCHAR
STARTCHAR U13b
ENCODING 315
SWIDTH 512 0
DWIDTH 8 0
BBX 7 14 0 -1
BITMAP
f0
40
40
40
40
40
40
42
42
42
fe
08
08
10
ENDCHAR
STARTCHAR U13c
ENCODING 316
SWIDTH 512 0
DWIDTH 8 0
BBX 8 14 0 -1
BITMAP
78
08
08
08
08
08
08
08
08
08
ff
04
04
08
ENDCHAR
STARTCHAR U13d
ENCODING 317
SWIDTH 512 0
DWIDTH 8 0
BBX 7 13 0 0
BITMAP
f6
42
44
40
40
40
40
40
40
42
42
42
fe
ENDCHAR
STARTCHAR U13e
ENCODING 318
SWIDTH 512 0
DWIDTH 8 0
BBX 8 13 0 0
BITMAP
7b
09
0a
08
08
08
08
08
08
08
08
08
ff
ENDCHAR
STARTCHAR U13f
ENCODING 319
SWIDTH 512 0
DWIDTH 8 0
BBX 7 13 0 0
BITMAP
f0
40
40
40
40
4c
4c
40
40
42
42
42
fe
ENDCHAR
STARTCHAR U140
ENCODING 320
SWIDTH 512 0
DWIDTH 8 0
BBX 8 13 0 0
BITMAP
78
08
08
08
08
0b
0b
08
08
08
08
08
ff
ENDCHAR
STARTCHAR U141
ENCODING 321
SWIDTH 512 0
DWIDTH 8 0
BBX 7 13 0 0
BITMAP
f0
40
40
48
50
60
40
c0
40
42
42
42
fe
ENDCHAR
STARTCHAR U142
ENCODING 322
SWIDTH 512 0
DWIDTH 8 0
BBX 8 13 0 0
BITMAP
78
08
08
0a
0c
08
18
28
08
08
08
08
ff
ENDCHAR
STARTCHAR U143
ENCODING 323
SWIDTH 512 0
DWIDTH 8 0
BBX 8 14 0 0
BITMAP
18
10
20
87
c2
a2
a2
92
92
92
8a
8a
86
c2
ENDCHAR
STARTCHAR U144
ENCODING 324
SWIDTH 512 0
DWIDTH 8 0
BBX 8 13 0 0
BITMAP
18
10
20
00
dc
62
42
42
42
42
42
42
e7
ENDCHAR
STARTCHAR U145
ENCODING 325
SWIDTH 512 0
DWIDTH 8 0
BBX 8 14 0 -1
BITMAP
87
c2
a2
a2
a2
92
92
8a
8a
8a
86
ca
08
10
ENDCHAR
STARTCHAR U146
ENCODING 326
SWIDTH 512 0
DWIDTH 8 0
BBX 8 10 0 -1
BITMAP
dc
62
42
42
42
42
42
e7
04
08
ENDCHAR
STARTCHAR U147
ENCODING 327
SWIDTH 512 0
DWIDTH 8 0
BBX 8 14 0 0
BITMAP
44
28
10
87
c2
a2
a2
92
92
92
8a
8a
86
c2
ENDCHAR
STARTCHAR U148
ENCODING 328
SWIDTH 512 0
DWIDTH 8 0
BBX 8 13 0 0
BITMAP
00
24
18
00
dc
62
42
42
42
42
42
42
e7
ENDCHAR
STARTCHAR U149
ENCODING 329
SWIDTH 512 0
DWIDTH 8 0
BBX 8 13 0 0
BITMAP
c0
40
80
00
dc
62
42
42
42
42
42
42
e7
ENDCHAR
STARTCHAR U14a
ENCODING 330
SWIDTH 512 0
DWIDTH 8 0
BBX 8 15 0 -2
BITMAP
87
c2
a2
a2
a2
92
92
8a
8a
8a
86
c2
04
04
08
ENDCHAR
STARTCHAR U14b
ENCODING 331
SWIDTH 512 0
DWIDTH 8 0
BBX 8 12 0 -2
BITMAP
dc
62
42
42
42
42
42
42
e7
04
04
08
ENDCHAR
STARTCHAR U14c
ENCODING 332
SWIDTH 512 0
DWIDTH 8 0
BBX 7 14 0 0
BITMAP
7c
00
00
38
44
82
82
82
82
82
82
82
44
38
ENDCHAR
STARTCHAR U14d
ENCODING 333
SWIDTH 512 0
DWIDTH 8 0
BBX 7 13 0 0
BITMAP
00
7c
00
00
38
44
82
82
82
82
82
44
38
ENDCHAR
STARTCHAR U14e
ENCODING 334
SWIDTH 512 0
DWIDTH 8 0
BBX 7 14 0 0
BITMAP
44
38
00
38
44
82
82
82
82
82
82
82
44
38
ENDCHAR
STARTCHAR U14f
ENCODING 335
SWIDTH 512 0
DWIDTH 8 0
BBX 7 13 0 0
BITMAP
44
28
10
00
38
44
82
82
82
82
82
44
38
ENDCHAR
STARTCHAR U150
ENCODING 336
SWIDTH 512 0
DWIDTH 8 0
BBX 7 14 0 0
BITMAP
36
24
48
38
44
82
82
82
82
82
82
82
44
38
ENDCHAR
STARTCHAR U151
ENCODING 337
SWIDTH 512 0
DWIDTH 8 0
BBX 7 13 0 0
BITMAP
36
24
48
00
38
44
82
82
82
82
82
44
38
ENDCHAR
STARTCHAR U152
ENCODING 338
SWIDTH 512 0
DWIDTH 8 0
BBX 8 13 0 0
BITMAP
6f
99
88
88
88
88
8e
88
88
88
88
99
6f
ENDCHAR
STARTCHAR U153
ENCODING 339
SWIDTH 512 0
DWIDTH 8 0
BBX 7 9 0 0
BITMAP
6c
92
92
9e
90
90
92
92
6c
ENDCHAR
STARTCHAR U154
ENCODING 340
SWIDTH 512 0
DWIDTH 8 0
BBX 8 14 0 0
BITMAP
18
10
20
f8
44
42
42
44
78
48
44
44
42
e3
ENDCHAR
STARTCHAR U155
ENCODING 341
SWIDTH 512 0
DWIDTH 8 0
BBX 7 13 0 0
BITMAP
18
10
20
00
ec
32
22
20
20
20
20
20
fc
ENDCHAR
STARTCHAR U156
ENCODING 342
SWIDTH 512 0
DWIDTH 8 0
BBX 8 15 0 -2
BITMAP
f8
44
42
42
42
44
78
48
44
44
42
e3
04
04
08
ENDCHAR
STARTCHAR U157
ENCODING 343
SWIDTH 512 0
DWIDTH 8 0
BBX 7 12 0 -2
BITMAP
ec
32
22
20
20
20
20
20
fc
08
08
10
ENDCHAR
STARTCHAR U158
ENCODING 344
SWIDTH 512 0
DWIDTH 8 0
BBX 8 14 0 0
BITMAP
44
28
10
f8
44
42
42
44
78
48
44
44
42
e3
ENDCHAR
STARTCHAR U159
ENCODING 345
SWIDTH 512 0
DWIDTH 8 0
BBX 7 13 0 0
BITMAP
44
28
10
00
ec
32
22
20
20
20
20
20
fc
ENDCHAR
STARTCHAR U15a
ENCODING 346
SWIDTH 512 0
DWIDTH 8 0
BBX 7 14 0 0
BITMAP
18
10
20
34
4c
84
80
60
18
04
82
82
c4
b8
ENDCHAR
STARTCHAR U15b
ENCODING 347
SWIDTH 512 0
DWIDTH 8 0
BBX 7 13 0 0
BITMAP
18
10
20
00
3a
46
42
40
3c
02
82
c2
bc
ENDCHAR
STARTCHAR U15c
ENCODING 348
SWIDTH 512 0
DWIDTH 8 0
BBX 7 14 0 0
BITMAP
38
44
00
34
4c
84
80
60
18
04
82
82
c4
b8
ENDCHAR
STARTCHAR U15d
ENCODING 349
SWIDTH 512 0
DWIDTH 8 0
BBX 7 13 0 0
BITMAP
10
28
44
00
3a
46
42
40
3c
02
82
c2
bc
ENDCHAR
STARTCHAR U15e
ENCODING 350
SWIDTH 512 0
DWIDTH 8 0
BBX 7 15 0 -2
BITMAP
34
4c
84
80
80
60
18
04
82
82
c4
b8
08
08
10
ENDCHAR
STARTCHAR U15f
ENCODING 351
SWIDTH 512 0
DWIDTH 8 0
BBX 7 12 0 -2
BITMAP
3a
46
42
40
3c
02
82
c2
bc
08
08
10
ENDCHAR
STARTCHAR U160
ENCODING 352
SWIDTH 512 0
DWIDTH 8 0
BBX 7 14 0 0
BITMAP
44
38
00
34
4c
84
80
60
18
04
82
82
c4
b8
ENDCHAR
STARTCHAR U161
ENCODING 353
SWIDTH 512 0
DWIDTH 8 0
BBX 7 13 0 0
BITMAP
44
28
10
00
3a
46
42
40
3c
02
82
c2
bc
ENDCHAR
STARTCHAR U162
ENCODING 354
SWIDTH 512 0
DWIDTH 8 0
BBX 7 15 0 -2
BITMAP
fe
92
92
10
10
10
10
10
10
10
10
7c
08
08
10
ENDCHAR
STARTCHAR U163
ENCODING 355
SWIDTH 512 0
DWIDTH 8 0
BBX 7 14 0 -2
BITMAP
20
20
20
fc
20
20
20
20
22
22
1c
08
08
10
ENDCHAR
STARTCHAR U164
ENCODING 356
SWIDTH 512 0
DWIDTH 8 0
BBX 7 14 0 0
BITMAP
44
38
00
fe
92
92
10
10
10
10
10
10
10
7c
ENDCHAR
STARTCHAR U165
ENCODING 357
SWIDTH 512 0
DWIDTH 8 0
BBX 7 13 0 0
BITMAP
48
30
00
20
20
fc
20
20
20
20
22
22
1c
ENDCHAR
STARTCHAR U166
ENCODING 358
SWIDTH 512 0
DWIDTH 8 0
BBX 7 13 0 0
BITMAP
fe
92
92
10
10
10
fe
10
10
10
10
10
7c
ENDCHAR
STARTCHAR U167
ENCODING 359
SWIDTH 512 0
DWIDTH 8 0
BBX 7 12 0 0
BITMAP
20
20
20
fc
20
20
fe
20
20
22
22
1c
ENDCHAR
STARTCHAR U168
ENCODING 360
SWIDTH 512 0
DWIDTH 8 0
BBX 8 14 0 0
BITMAP
32
4c
00
e7
42
42
42
42
42
42
42
42
42
3c
ENDCHAR
STARTCHAR U169
ENCODING 361
SWIDTH 512 0
DWIDTH 8 0
BBX 8 13 0 0
BITMAP
32
4c
00
00
c6
42
42
42
42
42
42
46
39
ENDCHAR
STARTCHAR U16a
ENCODING 362
SWIDTH 512 0
DWIDTH 8 0
BBX 8 14 0 0
BITMAP
7e
00
00
e7
42
42
42
42
42
42
42
42
42
3c
ENDCHAR
STARTCHAR U16b
ENCODING 363
SWIDTH 512 0
DWIDTH 8 0
BBX 8 13 0 0
BITMAP
00
7e
00
00
c6
42
42
42
42
42
42
46
39
ENDCHAR
STARTCHAR U16c
ENCODING 364
SWIDTH 512 0
DWIDTH 8 0
BBX 8 14 0 0
BITMAP
24
18
00
e7
42
42
42
42
42
42
42
42
42
3c
ENDCHAR
STARTCHAR U16d
ENCODING 365
SWIDTH 512 0
DWIDTH 8 0
BBX 8 13 0 0
BITMAP
44
28
10
00
c6
42
42
42
42
42
42
46
39
ENDCHAR
STARTCHAR U16e
ENCODING 366
SWIDTH 512 0
DWIDTH 8 0
BBX 8 14 0 0
BITMAP
18
24
18
e7
42
42
42
42
42
42
42
42
42
3c
ENDCHAR
STARTCHAR U16f
ENCODING 367
SWIDTH 512 0
DWIDTH 8 0
BBX 8 13 0 0
BITMAP
18
24
18
00
c6
42
42
42
42
42
42
46
39
ENDCHAR
STARTCHAR U170
ENCODING 368
SWIDTH 512 0
DWIDTH 8 0
BBX 8 14 0 0
BITMAP
36
24
48
e7
42
42
42
42
42
42
42
42
42
3c
ENDCHAR
STARTCHAR U171
ENCODING 369
SWIDTH 512 0
DWIDTH 8 0
BBX 8 13 0 0
BITMAP
36
24
48
00
c6
42
42
42
42
42
42
46
39
ENDCHAR
STARTCHAR U172
ENCODING 370
SWIDTH 512 0
DWIDTH 8 0
BBX 8 15 0 -2
BITMAP
e7
42
42
42
42
42
42
42
42
42
42
3c
10
10
08
ENDCHAR
STARTCHAR U173
ENCODING 371
SWIDTH 512 0
DWIDTH 8 0
BBX 8 12 0 -2
BITMAP
c6
42
42
42
42
42
42
46
39
02
02
01
ENDCHAR
STARTCHAR U174
ENCODING 372
SWIDTH 512 0
DWIDTH 8 0
BBX 7 14 0 0
BITMAP
38
44
00
c6
82
82
92
92
92
aa
aa
aa
44
44
ENDCHAR
STARTCHAR U175
ENCODING 373
SWIDTH 512 0
DWIDTH 8 0
BBX 7 13 0 0
BITMAP
10
28
44
00
92
92
92
92
aa
aa
44
44
44
ENDCHAR
STARTCHAR U176
ENCODING 374
SWIDTH 512 0
DWIDTH 8 0
BBX 7 14 0 0
BITMAP
38
44
00
c6
82
44
44
28
28
10
10
10
10
7c
ENDCHAR
STARTCHAR U177
ENCODING 375
SWIDTH 512 0
DWIDTH 8 0
BBX 8 15 0 -2
BITMAP
18
24
42
00
e7
42
22
24
14
08
08
10
10
20
c0
ENDCHAR
STARTCHAR U178
ENCODING 376
SWIDTH 512 0
DWIDTH 8 0
BBX 7 14 0 0
BITMAP
28
28
00
c6
82
44
44
28
28
10
10
10
10
7c
ENDCHAR
STARTCHAR U179
ENCODING 377
SWIDTH 512 0
DWIDTH 8 0
BBX 7 14 0 0
BITMAP
18
10
20
fe
84
88
08
10
10
20
20
42
82
fe
ENDCHAR
STARTCHAR U17a
ENCODING 378
SWIDTH 512 0
DWIDTH 8 0
BBX 7 13 0 0
BITMAP
18
10
20
00
7e
44
08
08
10
10
22
42
fe
ENDCHAR
STARTCHAR U17b
ENCODING 379
SWIDTH 512 0
DWIDTH 8 0
BBX 7 14 0 0
BITMAP
30
30
00
fe
84
88
08
10
10
20
20
42
82
fe
ENDCHAR
STARTCHAR U17c
ENCODING 380
SWIDTH 512 0
DWIDTH 8 0
BBX 7 13 0 0
BITMAP
00
18
18
00
7e
44
08
08
10
10
22
42
fe
ENDCHAR
STARTCHAR U17d
ENCODING 381
SWIDTH 512 0
DWIDTH 8 0
BBX 7 14 0 0
BITMAP
44
38
00
fe
84
88
08
10
10
20
20
42
82
fe
ENDCHAR
STARTCHAR U17e
ENCODING 382
SWIDTH 512 0
DWIDTH 8 0
BBX 7 13 0 0
BITMAP
44
28
10
00
7e
44
08
08
10
10
22
42
fe
ENDCHAR
STARTCHAR U251
ENCODING 593
SWIDTH 768 0
DWIDTH 16 0
BBX 12 9 2 0
BITMAP
1ec0
31c0
40c0
c0c0
c0c0
c0c0
40c0
21c0
1ef0
ENDCHAR
STARTCHAR U252
ENCODING 594
SWIDTH 768 0
DWIDTH 16 0
BBX 12 9 2 0
BITMAP
f780
3840
3020
3030
3030
3030
3020
38c0
2780
ENDCHAR
STARTCHAR U253
ENCODING 595
SWIDTH 768 0
DWIDTH 16 0
BBX 10 14 4 0
BITMAP
1f80
6040
40c0
c000
c000
de00
e100
c080
c0c0
c0c0
c0c0
c080
e300
9e00
ENDCHAR
STARTCHAR U254
ENCODING 596
SWIDTH 624 0
DWIDTH 13 0
BBX 9 9 2 0
BITMAP
7c00
8200
0100
0180
0180
0180
0100
c200
7c00
ENDCHAR
STARTCHAR U256
ENCODING 598
SWIDTH 768 0
DWIDTH 16 0
BBX 15 18 2 -4
BITMAP
03c0
00c0
00c0
00c0
00c0
1ec0
21c0
40c0
c0c0
c0c0
c0c0
40c0
61c0
1ec0
00c0
00c0
0066
003c
ENDCHAR
STARTCHAR U257
ENCODING 599
SWIDTH 768 0
DWIDTH 16 0
BBX 15 14 2 0
BITMAP
003c
0066
00c0
00c0
00c0
1ec0
21c0
40c0
c0c0
c0c0
c0c0
40c0
61c0
1ef0
ENDCHAR
STARTCHAR U259
ENCODING 601
SWIDTH 624 0
DWIDTH 13 0
BBX 9 9 2 0
BITMAP
7c00
8300
0100
0180
0180
ff80
c100
4300
3c00
ENDCHAR
STARTCHAR U25b
ENCODING 603
SWIDTH 624 0
DWIDTH 13 0
BBX 9 9 2 0
BITMAP
3f00
7f80
8000
fe00
7e00
8000
c080
7f80
3e00
ENDCHAR
STARTCHAR U25f
ENCODING 607
SWIDTH 432 0
DWIDTH 9 0
BBX 9 13 -1 -4
BITMAP
1e00
0600
0600
0600
0600
0600
0600
0600
0600
3f80
0600
c400
7800
ENDCHAR
STARTCHAR U261
ENCODING 609
SWIDTH 720 0
DWIDTH 15 0
BBX 10 14 2 -5
BITMAP
1e40
31c0
60c0
c0c0
c0c0
c0c0
60c0
21c0
1ec0
00c0
c0c0
c180
4100
3e00
ENDCHAR
STARTCHAR U265
ENCODING 613
SWIDTH 768 0
DWIDTH 16 0
BBX 12 13 2 -4
BITMAP
f3c0
30c0
30c0
30c0
30c0
30c0
30c0
31c0
1ec0
00c0
00c0
00c0
03f0
ENDCHAR
STARTCHAR U266
ENCODING 614
SWIDTH 768 0
DWIDTH 16 0
BBX 12 14 2 0
BITMAP
0f80
1840
30c0
3000
3000
3780
38c0
30c0
30c0
30c0
30c0
30c0
30c0
fdf0
ENDCHAR
STARTCHAR U269
ENCODING 617
SWIDTH 480 0
DWIDTH 10 0
BBX 7 9 1 0
BITMAP
f0
30
30
30
30
32
32
32
1c
ENDCHAR
STARTCHAR U26f
ENCODING 623
SWIDTH 1104 0
DWIDTH 23 0
BBX 20 9 1 0
BITMAP
fdfbf0
3060c0
3060c0
3060c0
3060c0
3060c0
3060c0
30e1c0
1f3ef0
ENDCHAR
STARTCHAR U271
ENCODING 625
SWIDTH 1104 0
DWIDTH 23 0
BBX 18 13 2 -4
BITMAP
f7cf80
3870c0
3060c0
3060c0
3060c0
3060c0
3060c0
3060c0
fdf8c0
0000c0
0000c0
001880
000f00
ENDCHAR
STARTCHAR U272
ENCODING 626
SWIDTH 768 0
DWIDTH 16 0
BBX 15 13 -1 -4
BITMAP
1ef0
0708
060c
060c
060c
060c
060c
060c
063e
0600
0600
c400
7800
ENDCHAR
STARTCHAR U275
ENCODING 629
SWIDTH 624 0
DWIDTH 13 0
BBX 9 14 2 0
BITMAP
1c00
2200
6300
4100
c180
c180
ff80
ff80
c180
c180
4100
6300
2200
1c00
ENDCHAR
STARTCHAR U277
ENCODING 631
SWIDTH 816 0
DWIDTH 17 0
BBX 13 10 2 0
BITMAP
0200
3fe0
6030
c018
c018
c318
c318
4310
6330
1ce0
ENDCHAR
STARTCHAR U278
ENCODING 632
SWIDTH 816 0
DWIDTH 17 0
BBX 13 18 2 -4
BITMAP
0200
0200
0200
0200
0200
0f80
3260
6230
c218
c218
c218
6230
3260
0f80
0200
0200
0200
0200
ENDCHAR
STARTCHAR U279
ENCODING 633
SWIDTH 528 0
DWIDTH 11 0
BBX 9 9 1 0
BITMAP
1e00
0600
0600
0600
0600
0600
0600
ce00
7780
ENDCHAR
STARTCHAR U27e
ENCODING 638
SWIDTH 528 0
DWIDTH 11 0
BBX 9 9 1 0
BITMAP
0700
1980
1000
3000
3000
3000
3000
3000
fc00
ENDCHAR
STARTCHAR U283
ENCODING 643
SWIDTH 432 0
DWIDTH 9 0
BBX 11 18 -1 -4
BITMAP
03c0
0660
0600
0e00
0e00
0e00
0e00
0e00
0e00
0e00
0e00
0e00
0e00
0e00
0e00
0c00
cc00
7800
ENDCHAR
STARTCHAR U28a
ENCODING 650
SWIDTH 768 0
DWIDTH 16 0
BBX 12 9 2 0
BITMAP
70e0
70e0
a050
6060
c030
c030
c030
6060
1f80
ENDCHAR
STARTCHAR U28b
ENCODING 651
SWIDTH 672 0
DWIDTH 14 0
BBX 11 9 1 0
BITMAP
6040
b060
b020
3020
3020
3020
3040
1840
0f80
ENDCHAR
STARTCHAR U28c
ENCODING 652
SWIDTH 720 0
DWIDTH 15 0
BBX 11 9 2 0
BITMAP
0400
0e00
0e00
1300
1300
2180
2180
60c0
f3e0
ENDCHAR
STARTCHAR U28d
ENCODING 653
SWIDTH 960 0
DWIDTH 20 0
BBX 16 9 2 0
BITMAP
0810
1c38
1c38
1438
264c
264c
638e
4386
e7cf
ENDCHAR
STARTCHAR U28e
ENCODING 654
SWIDTH 720 0
DWIDTH 15 0
BBX 12 13 2 0
BITMAP
01e0
0330
0200
0400
0400
0e00
0e00
1300
1300
2180
2180
60c0
f3e0
ENDCHAR
STARTCHAR U292
ENCODING 658
SWIDTH 624 0
DWIDTH 13 0
BBX 9 13 2 -4
BITMAP
ff80
ff80
c200
8400
8800
3e00
0300
0180
0180
c180
c180
4300
3c00
ENDCHAR
STARTCHAR U294
ENCODING 660
SWIDTH 624 0
DWIDTH 13 0
BBX 9 14 2 0
BITMAP
7e00
8180
c180
0300
0c00
0800
1800
1800
1800
1800
1800
1800
1800
3e00
ENDCHAR
STARTCHAR U2c7
ENCODING 711
SWIDTH 1000 0
DWIDTH 16 0
BBX 16 16 0 -2
BITMAP
0000
0000
0000
0008
0010
0020
0060
10c0
1980
1b80
0f00
0e00
0400
0000
0000
0000
ENDCHAR
STARTCHAR U2c9
ENCODING 713
SWIDTH 1000 0
DWIDTH 16 0
BBX 16 16 0 -2
BITMAP
0000
0000
0000
0000
0000
0000
0ff0
0ff0
0000
0000
0000
0000
0000
0000
0000
0000
ENDCHAR
STARTCHAR U2ca
ENCODING 714
SWIDTH 1000 0
DWIDTH 16 0
BBX 16 16 0 -2
BITMAP
0000
0000
0010
0020
0040
00c0
0180
0300
0600
0e00
1c00
0000
0000
0000
0000
0000
ENDCHAR
STARTCHAR U2cb
ENCODING 715
SWIDTH 1000 0
DWIDTH 16 0
BBX 16 16 0 -2
BITMAP
0000
0000
0000
0000
0000
0e00
0700
0380
00c0
0060
0010
0008
0000
0000
0000
0000
ENDCHAR
STARTCHAR U2d8
ENCODING 728
SWIDTH 1000 0
DWIDTH 16 0
BBX 16 16 0 -2
BITMAP
0000
0820
0440
0380
0000
0000
0000
0000
0000
0000
0000
0000
0000
0000
0000
0000
ENDCHAR
STARTCHAR U2d9
ENCODING 729
SWIDTH 1000 0
DWIDTH 16 0
BBX 16 16 0 -2
BITMAP
0000
0180
03c0
0180
0000
0000
0000
0000
0000
0000
0000
0000
0000
0000
0000
0000
ENDCHAR
STARTCHAR U2da
ENCODING 730
SWIDTH 1000 0
DWIDTH 16 0
BBX 16 16 0 -2
BITMAP
0000
0180
0240
0180
0000
0000
0000
0000
0000
0000
0000
0000
0000
0000
0000
0000
ENDCHAR
STARTCHAR U2db
ENCODING 731
SWIDTH 1000 0
DWIDTH 16 0
BBX 16 16 0 -2
BITMAP
0000
0000
0000
0000
0000
0000
0000
0000
0000
0000
0080
0100
0200
0100
0080
0000
ENDCHAR
STARTCHAR U2dc
ENCODING 732
SWIDTH 1000 0
DWIDTH 16 0
BBX 16 16 0 -2
BITMAP
0000
0730
18c0
0000
0000
0000
0000
0000
0000
0000
0000
0000
0000
0000
0000
0000
ENDCHAR
STARTCHAR U2dd
ENCODING 733
SWIDTH 1000 0
DWIDTH 16 0
BBX 16 16 0 -2
BITMAP
0000
0360
0360
0240
0480
0000
0000
0000
0000
0000
0000
0000
0000
0000
0000
0000
ENDCHAR
STARTCHAR U384
ENCODING 900
SWIDTH 512 0
DWIDTH 8 0
BBX 8 16 0 -2
BITMAP
10
10
10
00
00
00
00
00
00
00
00
00
00
00
00
00
ENDCHAR
STARTCHAR U385
ENCODING 901
SWIDTH 512 0
DWIDTH 8 0
BBX 8 16 0 -2
BITMAP
10
10
10
44
44
00
00
00
00
00
00
00
00
00
00
00
ENDCHAR
STARTCHAR U386
ENCODING 902
SWIDTH 512 0
DWIDTH 8 0
BBX 8 16 0 -2
BITMAP
40
40
40
00
18
24
24
42
42
7e
42
42
42
42
00
00
ENDCHAR
STARTCHAR U388
ENCODING 904
SWIDTH 512 0
DWIDTH 8 0
BBX 8 16 0 -2
BITMAP
40
40
40
00
7e
40
40
40
7c
40
40
40
40
7e
00
00
ENDCHAR
STARTCHAR U389
ENCODING 905
SWIDTH 512 0
DWIDTH 8 0
BBX 8 16 0 -2
BITMAP
40
40
40
00
42
42
42
42
7e
42
42
42
42
42
00
00
ENDCHAR
STARTCHAR U38a
ENCODING 906
SWIDTH 512 0
DWIDTH 8 0
BBX 8 16 0 -2
BITMAP
40
40
40
00
3e
08
08
08
08
08
08
08
08
3e
00
00
ENDCHAR
STARTCHAR U38c
ENCODING 908
SWIDTH 512 0
DWIDTH 8 0
BBX 8 16 0 -2
BITMAP
40
40
40
00
3c
42
42
42
42
42
42
42
42
3c
00
00
ENDCHAR
STARTCHAR U38e
ENCODING 910
SWIDTH 512 0
DWIDTH 8 0
BBX 8 16 0 -2
BITMAP
40
40
40
00
41
41
22
22
14
08
08
08
08
08
00
00
ENDCHAR
STARTCHAR U38f
ENCODING 911
SWIDTH 512 0
DWIDTH 8 0
BBX 8 16 0 -2
BITMAP
40
40
40
00
3e
41
41
41
41
41
41
22
14
14
77
00
ENDCHAR
STARTCHAR U390
ENCODING 912
SWIDTH 512 0
DWIDTH 8 0
BBX 8 16 0 -2
BITMAP
10
10
10
44
44
00
10
10
10
10
10
10
10
0c
00
00
ENDCHAR
STARTCHAR U391
ENCODING 913
SWIDTH 512 0
DWIDTH 8 0
BBX 8 16 0 -2
BITMAP
00
00
00
00
18
24
24
42
42
7e
42
42
42
42
00
00
ENDCHAR
STARTCHAR U392
ENCODING 914
SWIDTH 512 0
DWIDTH 8 0
BBX 8 16 0 -2
BITMAP
00
00
00
00
7c
42
42
42
7c
42
42
42
42
7c
00
00
ENDCHAR
STARTCHAR U393
ENCODING 915
SWIDTH 512 0
DWIDTH 8 0
BBX 8 16 0 -2
BITMAP
00
00
00
00
7e
40
40
40
40
40
40
40
40
40
00
00
ENDCHAR
STARTCHAR U394
ENCODING 916
SWIDTH 512 0
DWIDTH 8 0
BBX 8 16 0 -2
BITMAP
00
00
00
00
08
08
14
14
22
22
22
41
41
7f
00
00
ENDCHAR
STARTCHAR U395
ENCODING 917
SWIDTH 512 0
DWIDTH 8 0
BBX 8 16 0 -2
BITMAP
00
00
00
00
7e
40
40
40
7c
40
40
40
40
7e
00
00
ENDCHAR
STARTCHAR U396
ENCODING 918
SWIDTH 512 0
DWIDTH 8 0
BBX 8 16 0 -2
BITMAP
00
00
00
00
7e
02
02
04
08
10
20
40
40
7e
00
00
ENDCHAR
STARTCHAR U397
ENCODING 919
SWIDTH 512 0
DWIDTH 8 0
BBX 8 16 0 -2
BITMAP
00
00
00
00
42
42
42
42
7e
42
42
42
42
42
00
00
ENDCHAR
STARTCHAR U398
ENCODING 920
SWIDTH 512 0
DWIDTH 8 0
BBX 8 16 0 -2
BITMAP
00
00
00
00
3c
42
42
42
7e
42
42
42
42
3c
00
00
ENDCHAR
STARTCHAR U399
ENCODING 921
SWIDTH 512 0
DWIDTH 8 0
BBX 8 16 0 -2
BITMAP
00
00
00
00
3e
08
08
08
08
08
08
08
08
3e
00
00
ENDCHAR
STARTCHAR U39a
ENCODING 922
SWIDTH 512 0
DWIDTH 8 0
BBX 8 16 0 -2
BITMAP
00
00
00
00
42
44
48
50
60
60
50
48
44
42
00
00
ENDCHAR
STARTCHAR U39b
ENCODING 923
SWIDTH 512 0
DWIDTH 8 0
BBX 8 16 0 -2
BITMAP
00
00
00
00
08
08
14
14
22
22
22
41
41
41
00
00
ENDCHAR
STARTCHAR U39c
ENCODING 924
SWIDTH 512 0
DWIDTH 8 0
BBX 8 16 0 -2
BITMAP
00
00
00
00
42
42
66
66
5a
5a
42
42
42
42
00
00
ENDCHAR
STARTCHAR U39d
ENCODING 925
SWIDTH 512 0
DWIDTH 8 0
BBX 8 16 0 -2
BITMAP
00
00
00
00
42
62
62
52
52
4a
4a
46
46
42
00
00
ENDCHAR
STARTCHAR U39e
ENCODING 926
SWIDTH 512 0
DWIDTH 8 0
BBX 8 16 0 -2
BITMAP
00
00
00
00
7e
00
00
00
3c
00
00
00
00
7e
00
00
ENDCHAR
STARTCHAR U39f
ENCODING 927
SWIDTH 512 0
DWIDTH 8 0
BBX 8 16 0 -2
BITMAP
00
00
00
00
3c
42
42
42
42
42
42
42
42
3c
00
00
ENDCHAR
STARTCHAR U3a0
ENCODING 928
SWIDTH 512 0
DWIDTH 8 0
BBX 8 16 0 -2
BITMAP
00
00
00
00
7f
22
22
22
22
22
22
22
22
22
00
00
ENDCHAR
STARTCHAR U3a1
ENCODING 929
SWIDTH 512 0
DWIDTH 8 0
BBX 8 16 0 -2
BITMAP
00
00
00
00
7c
42
42
42
7c
40
40
40
40
40
00
00
ENDCHAR
STARTCHAR U3a3
ENCODING 931
SWIDTH 512 0
DWIDTH 8 0
BBX 8 16 0 -2
BITMAP
00
00
00
00
7e
40
20
10
08
08
10
20
40
7e
00
00
ENDCHAR
STARTCHAR U3a4
ENCODING 932
SWIDTH 512 0
DWIDTH 8 0
BBX 8 16 0 -2
BITMAP
00
00
00
00
7f
08
08
08
08
08
08
08
08
08
00
00
ENDCHAR
STARTCHAR U3a5
ENCODING 933
SWIDTH 512 0
DWIDTH 8 0
BBX 8 16 0 -2
BITMAP
00
00
00
00
41
41
22
22
14
08
08
08
08
08
00
00
ENDCHAR
STARTCHAR U3a6
ENCODING 934
SWIDTH 512 0
DWIDTH 8 0
BBX 8 16 0 -2
BITMAP
00
00
00
00
7f
08
3e
49
49
49
49
3e
08
7f
00
00
ENDCHAR
STARTCHAR U3a7
ENCODING 935
SWIDTH 512 0
DWIDTH 8 0
BBX 8 16 0 -2
BITMAP
00
00
00
00
42
42
24
24
18
18
24
24
42
42
00
00
ENDCHAR
STARTCHAR U3a8
ENCODING 936
SWIDTH 512 0
DWIDTH 8 0
BBX 8 16 0 -2
BITMAP
00
00
00
00
49
49
49
49
49
3e
08
08
08
08
00
00
ENDCHAR
STARTCHAR U3a9
ENCODING 937
SWIDTH 512 0
DWIDTH 8 0
BBX 8 16 0 -2
BITMAP
00
00
00
00
3e
41
41
41
41
41
22
14
14
77
00
00
ENDCHAR
STARTCHAR U3aa
ENCODING 938
SWIDTH 512 0
DWIDTH 8 0
BBX 8 16 0 -2
BITMAP
24
24
00
00
3e
08
08
08
08
08
08
08
08
3e
00
00
ENDCHAR
STARTCHAR U3ab
ENCODING 939
SWIDTH 512 0
DWIDTH 8 0
BBX 8 16 0 -2
BITMAP
24
24
00
00
41
41
22
22
14
08
08
08
08
08
00
00
ENDCHAR
STARTCHAR U3ac
ENCODING 940
SWIDTH 512 0
DWIDTH 8 0
BBX 8 16 0 -2
BITMAP
00
10
10
10
00
00
32
4a
44
44
44
44
4a
32
00
00
ENDCHAR
STARTCHAR U3ad
ENCODING 941
SWIDTH 512 0
DWIDTH 8 0
BBX 8 16 0 -2
BITMAP
00
10
10
10
00
00
3e
40
40
3c
40
40
40
3e
00
00
ENDCHAR
STARTCHAR U3ae
ENCODING 942
SWIDTH 512 0
DWIDTH 8 0
BBX 8 16 0 -2
BITMAP
00
10
10
10
00
00
5c
62
42
42
42
42
42
42
02
02
ENDCHAR
STARTCHAR U3af
ENCODING 943
SWIDTH 512 0
DWIDTH 8 0
BBX 8 16 0 -2
BITMAP
00
10
10
10
00
00
10
10
10
10
10
10
10
0c
00
00
ENDCHAR
STARTCHAR U3b0
ENCODING 944
SWIDTH 512 0
DWIDTH 8 0
BBX 8 16 0 -2
BITMAP
10
10
10
44
44
00
42
42
42
42
42
42
42
3c
00
00
ENDCHAR
STARTCHAR U3b1
ENCODING 945
SWIDTH 512 0
DWIDTH 8 0
BBX 8 16 0 -2
BITMAP
00
00
00
00
00
00
32
4a
44
44
44
44
4a
32
00
00
ENDCHAR
STARTCHAR U3b2
ENCODING 946
SWIDTH 512 0
DWIDTH 8 0
BBX 8 16 0 -2
BITMAP
00
00
00
00
38
44
44
44
7c
42
42
42
62
5c
40
40
ENDCHAR
STARTCHAR U3b3
ENCODING 947
SWIDTH 512 0
DWIDTH 8 0
BBX 8 16 0 -2
BITMAP
00
00
00
00
00
00
31
49
0a
04
08
08
10
10
00
00
ENDCHAR
STARTCHAR U3b4
ENCODING 948
SWIDTH 512 0
DWIDTH 8 0
BBX 8 16 0 -2
BITMAP
00
00
00
00
1c
20
20
20
18
24
42
42
42
3c
00
00
ENDCHAR
STARTCHAR U3b5
ENCODING 949
SWIDTH 512 0
DWIDTH 8 0
BBX 8 16 0 -2
BITMAP
00
00
00
00
00
00
3c
42
40
3c
40
40
42
3c
00
00
ENDCHAR
STARTCHAR U3b6
ENCODING 950
SWIDTH 512 0
DWIDTH 8 0
BBX 8 16 0 -2
BITMAP
00
00
00
00
20
20
1c
08
10
20
20
20
20
1c
02
1c
ENDCHAR
STARTCHAR U3b7
ENCODING 951
SWIDTH 512 0
DWIDTH 8 0
BBX 8 16 0 -2
BITMAP
00
00
00
00
00
00
5c
62
42
42
42
42
42
42
02
02
ENDCHAR
STARTCHAR U3b8
ENCODING 952
SWIDTH 512 0
DWIDTH 8 0
BBX 8 16 0 -2
BITMAP
00
00
00
00
18
24
24
42
7e
42
42
24
24
18
00
00
ENDCHAR
STARTCHAR U3b9
ENCODING 953
SWIDTH 512 0
DWIDTH 8 0
BBX 8 16 0 -2
BITMAP
00
00
00
00
00
00
10
10
10
10
10
10
10
0c
00
00
ENDCHAR
STARTCHAR U3ba
ENCODING 954
SWIDTH 512 0
DWIDTH 8 0
BBX 8 16 0 -2
BITMAP
00
00
00
00
00
00
22
24
28
30
30
28
24
22
00
00
ENDCHAR
STARTCHAR U3bb
ENCODING 955
SWIDTH 512 0
DWIDTH 8 0
BBX 8 16 0 -2
BITMAP
00
00
00
00
20
20
10
10
08
18
24
24
42
42
00
00
ENDCHAR
STARTCHAR U3bc
ENCODING 956
SWIDTH 512 0
DWIDTH 8 0
BBX 8 16 0 -2
BITMAP
00
00
00
00
00
00
42
42
42
42
66
66
5a
42
40
40
ENDCHAR
STARTCHAR U3bd
ENCODING 957
SWIDTH 512 0
DWIDTH 8 0
BBX 8 16 0 -2
BITMAP
00
00
00
00
00
00
42
42
42
44
44
48
50
60
00
00
ENDCHAR
STARTCHAR U3be
ENCODING 958
SWIDTH 512 0
DWIDTH 8 0
BBX 8 16 0 -2
BITMAP
00
00
00
00
40
40
3c
40
40
3c
40
40
3c
02
02
3c
ENDCHAR
STARTCHAR U3bf
ENCODING 959
SWIDTH 512 0
DWIDTH 8 0
BBX 8 16 0 -2
BITMAP
00
00
00
00
00
00
3c
42
42
42
42
42
42
3c
00
00
ENDCHAR
STARTCHAR U3c0
ENCODING 960
SWIDTH 512 0
DWIDTH 8 0
BBX 8 16 0 -2
BITMAP
00
00
00
00
00
00
7e
24
24
24
24
24
24
24
00
00
ENDCHAR
STARTCHAR U3c1
ENCODING 961
SWIDTH 512 0
DWIDTH 8 0
BBX 8 16 0 -2
BITMAP
00
00
00
00
00
00
3c
42
42
42
42
42
62
5c
40
40
ENDCHAR
STARTCHAR U3c2
ENCODING 962
SWIDTH 512 0
DWIDTH 8 0
BBX 8 16 0 -2
BITMAP
00
00
00
00
00
00
1e
20
40
40
40
20
1c
02
02
1c
ENDCHAR
STARTCHAR U3c3
ENCODING 963
SWIDTH 512 0
DWIDTH 8 0
BBX 8 16 0 -2
BITMAP
00
00
00
00
00
00
3f
48
44
44
44
44
44
38
00
00
ENDCHAR
STARTCHAR U3c4
ENCODING 964
SWIDTH 512 0
DWIDTH 8 0
BBX 8 16 0 -2
BITMAP
00
00
00
00
00
00
7e
10
10
10
10
10
10
0c
00
00
ENDCHAR
STARTCHAR U3c5
ENCODING 965
SWIDTH 512 0
DWIDTH 8 0
BBX 8 16 0 -2
BITMAP
00
00
00
00
00
00
42
42
42
42
42
42
42
3c
00
00
ENDCHAR
STARTCHAR U3c6
ENCODING 966
SWIDTH 512 0
DWIDTH 8 0
BBX 8 16 0 -2
BITMAP
00
00
00
00
00
00
3e
49
49
49
49
49
49
3e
08
08
ENDCHAR
STARTCHAR U3c7
ENCODING 967
SWIDTH 512 0
DWIDTH 8 0
BBX 8 16 0 -2
BITMAP
00
00
00
00
00
00
42
42
24
24
18
18
24
24
42
42
ENDCHAR
STARTCHAR U3c8
ENCODING 968
SWIDTH 512 0
DWIDTH 8 0
BBX 8 16 0 -2
BITMAP
00
00
00
00
00
00
00
00
49
49
49
49
49
3e
08
08
ENDCHAR
STARTCHAR U3c9
ENCODING 969
SWIDTH 512 0
DWIDTH 8 0
BBX 8 16 0 -2
BITMAP
00
00
00
00
00
00
22
41
41
49
49
49
49
36
00
00
ENDCHAR
STARTCHAR U3ca
ENCODING 970
SWIDTH 512 0
DWIDTH 8 0
BBX 8 16 0 -2
BITMAP
00
00
24
24
00
00
10
10
10
10
10
10
10
0c
00
00
ENDCHAR
STARTCHAR U3cb
ENCODING 971
SWIDTH 512 0
DWIDTH 8 0
BBX 8 16 0 -2
BITMAP
00
00
24
24
00
00
42
42
42
42
42
42
42
3c
00
00
ENDCHAR
STARTCHAR U3cc
ENCODING 972
SWIDTH 512 0
DWIDTH 8 0
BBX 8 16 0 -2
BITMAP
00
10
10
10
00
00
3c
42
42
42
42
42
42
3c
00
00
ENDCHAR
STARTCHAR U3cd
ENCODING 973
SWIDTH 512 0
DWIDTH 8 0
BBX 8 16 0 -2
BITMAP
00
10
10
10
00
00
42
42
42
42
42
42
42
3c
00
00
ENDCHAR
STARTCHAR U3ce
ENCODING 974
SWIDTH 512 0
DWIDTH 8 0
BBX 8 16 0 -2
BITMAP
00
08
08
08
00
00
22
41
41
49
49
49
49
36
00
00
ENDCHAR
STARTCHAR U3f3
ENCODING 1011
SWIDTH 512 0
DWIDTH 8 0
BBX 8 16 0 -2
BITMAP
10
10
10
00
00
00
00
00
00
00
00
00
00
00
00
00
ENDCHAR
STARTCHAR U3f4
ENCODING 1012
SWIDTH 512 0
DWIDTH 8 0
BBX 8 16 0 -2
BITMAP
10
10
10
44
44
00
00
00
00
00
00
00
00
00
00
00
ENDCHAR
STARTCHAR U401
ENCODING 1025
SWIDTH 512 0
DWIDTH 8 0
BBX 8 16 0 -2
BITMAP
24
24
00
00
7e
40
40
40
7c
40
40
40
40
7e
00
00
ENDCHAR
STARTCHAR U402
ENCODING 1026
SWIDTH 512 0
DWIDTH 8 0
BBX 8 16 0 -2
BITMAP
00
00
00
00
7e
10
10
10
1e
11
11
11
11
1e
00
00
ENDCHAR
STARTCHAR U403
ENCODING 1027
SWIDTH 512 0
DWIDTH 8 0
BBX 8 16 0 -2
BITMAP
0c
30
00
00
7e
40
40
40
40
40
40
40
40
40
00
00
ENDCHAR
STARTCHAR U404
ENCODING 1028
SWIDTH 512 0
DWIDTH 8 0
BBX 8 16 0 -2
BITMAP
00
00
00
00
1c
22
40
40
7c
40
40
40
22
1c
00
00
ENDCHAR
STARTCHAR U405
ENCODING 1029
SWIDTH 512 0
DWIDTH 8 0
BBX 8 16 0 -2
BITMAP
00
00
00
00
3c
42
42
40
30
0c
02
42
42
3c
00
00
ENDCHAR
STARTCHAR U406
ENCODING 1030
SWIDTH 512 0
DWIDTH 8 0
BBX 8 16 0 -2
BITMAP
00
00
00
00
3e
08
08
08
08
08
08
08
08
3e
00
00
ENDCHAR
STARTCHAR U407
ENCODING 1031
SWIDTH 512 0
DWIDTH 8 0
BBX 8 16 0 -2
BITMAP
24
24
00
00
3e
08
08
08
08
08
08
08
08
3e
00
00
ENDCHAR
STARTCHAR U408
ENCODING 1032
SWIDTH 512 0
DWIDTH 8 0
BBX 8 16 0 -2
BITMAP
00
00
00
00
0e
04
04
04
04
04
04
44
44
38
00
00
ENDCHAR
STARTCHAR U409
ENCODING 1033
SWIDTH 512 0
DWIDTH 8 0
BBX 8 16 0 -2
BITMAP
00
00
00
00
78
48
48
48
4e
49
49
49
49
8e
00
00
ENDCHAR
STARTCHAR U40a
ENCODING 1034
SWIDTH 512 0
DWIDTH 8 0
BBX 8 16 0 -2
BITMAP
00
00
00
00
48
48
48
48
7e
49
49
49
49
4e
00
00
ENDCHAR
STARTCHAR U40b
ENCODING 1035
SWIDTH 512 0
DWIDTH 8 0
BBX 8 16 0 -2
BITMAP
00
00
00
00
7e
10
10
10
1e
11
11
11
11
11
00
00
ENDCHAR
STARTCHAR U40c
ENCODING 1036
SWIDTH 512 0
DWIDTH 8 0
BBX 8 16 0 -2
BITMAP
0c
30
00
00
40
46
48
50
60
60
50
48
44
42
00
00
ENDCHAR
STARTCHAR U40e
ENCODING 1038
SWIDTH 512 0
DWIDTH 8 0
BBX 8 16 0 -2
BITMAP
42
42
3c
00
41
41
22
22
14
14
08
08
10
30
00
00
ENDCHAR
STARTCHAR U40f
ENCODING 1039
SWIDTH 512 0
DWIDTH 8 0
BBX 8 16 0 -2
BITMAP
00
00
00
00
41
41
41
41
41
41
7f
08
08
08
00
00
ENDCHAR
STARTCHAR U410
ENCODING 1040
SWIDTH 512 0
DWIDTH 8 0
BBX 8 16 0 -2
BITMAP
00
00
00
00
18
24
24
42
42
7e
42
42
42
42
00
00
ENDCHAR
STARTCHAR U411
ENCODING 1041
SWIDTH 512 0
DWIDTH 8 0
BBX 8 16 0 -2
BITMAP
00
00
00
00
7c
40
40
40
7c
42
42
42
42
7c
00
00
ENDCHAR
STARTCHAR U412
ENCODING 1042
SWIDTH 512 0
DWIDTH 8 0
BBX 8 16 0 -2
BITMAP
00
00
00
00
7c
42
42
42
7c
42
42
42
42
7c
00
00
ENDCHAR
STARTCHAR U413
ENCODING 1043
SWIDTH 512 0
DWIDTH 8 0
BBX 8 16 0 -2
BITMAP
00
00
00
00
7e
40
40
40
40
40
40
40
40
40
00
00
ENDCHAR
STARTCHAR U414
ENCODING 1044
SWIDTH 512 0
DWIDTH 8 0
BBX 8 16 0 -2
BITMAP
00
00
00
00
0e
12
12
12
22
22
22
42
42
7e
02
01
ENDCHAR
STARTCHAR U415
ENCODING 1045
SWIDTH 512 0
DWIDTH 8 0
BBX 8 16 0 -2
BITMAP
00
00
00
00
7e
40
40
40
7c
40
40
40
40
7e
00
00
ENDCHAR
STARTCHAR U416
ENCODING 1046
SWIDTH 512 0
DWIDTH 8 0
BBX 8 16 0 -2
BITMAP
00
00
00
00
49
49
2a
2a
1c
1c
2a
2a
49
49
00
00
ENDCHAR
STARTCHAR U417
ENCODING 1047
SWIDTH 512 0
DWIDTH 8 0
BBX 8 16 0 -2
BITMAP
00
00
00
00
3c
42
02
02
3c
04
02
02
42
3c
00
00
ENDCHAR
STARTCHAR U418
ENCODING 1048
SWIDTH 512 0
DWIDTH 8 0
BBX 8 16 0 -2
BITMAP
00
00
00
00
42
46
46
4a
4a
52
52
62
62
42
00
00
ENDCHAR
STARTCHAR U419
ENCODING 1049
SWIDTH 512 0
DWIDTH 8 0
BBX 8 16 0 -2
BITMAP
42
42
3c
00
42
46
46
4a
4a
52
52
62
62
42
00
00
ENDCHAR
STARTCHAR U41a
ENCODING 1050
SWIDTH 512 0
DWIDTH 8 0
BBX 8 16 0 -2
BITMAP
00
00
00
00
40
46
48
50
60
60
50
48
44
42
00
00
ENDCHAR
STARTCHAR U41b
ENCODING 1051
SWIDTH 512 0
DWIDTH 8 0
BBX 8 16 0 -2
BITMAP
00
00
00
00
1e
12
12
12
12
12
12
22
22
42
00
00
ENDCHAR
STARTCHAR U41c
ENCODING 1052
SWIDTH 512 0
DWIDTH 8 0
BBX 8 16 0 -2
BITMAP
00
00
00
00
42
42
66
66
5a
5a
42
42
42
42
00
00
ENDCHAR
STARTCHAR U41d
ENCODING 1053
SWIDTH 512 0
DWIDTH 8 0
BBX 8 16 0 -2
BITMAP
00
00
00
00
42
42
42
42
7e
42
42
42
42
42
00
00
ENDCHAR
STARTCHAR U41e
ENCODING 1054
SWIDTH 512 0
DWIDTH 8 0
BBX 8 16 0 -2
BITMAP
00
00
00
00
3c
42
42
42
42
42
42
42
42
3c
00
00
ENDCHAR
STARTCHAR U41f
ENCODING 1055
SWIDTH 512 0
DWIDTH 8 0
BBX 8 16 0 -2
BITMAP
00
00
00
00
7e
42
42
42
42
42
42
42
42
42
00
00
ENDCHAR
STARTCHAR U420
ENCODING 1056
SWIDTH 512 0
DWIDTH 8 0
BBX 8 16 0 -2
BITMAP
00
00
00
00
7c
42
42
42
7c
40
40
40
40
40
00
00
ENDCHAR
STARTCHAR U421
ENCODING 1057
SWIDTH 512 0
DWIDTH 8 0
BBX 8 16 0 -2
BITMAP
00
00
00
00
3c
42
42
40
40
40
40
42
42
3c
00
00
ENDCHAR
STARTCHAR U422
ENCODING 1058
SWIDTH 512 0
DWIDTH 8 0
BBX 8 16 0 -2
BITMAP
00
00
00
00
7f
08
08
08
08
08
08
08
08
08
00
00
ENDCHAR
STARTCHAR U423
ENCODING 1059
SWIDTH 512 0
DWIDTH 8 0
BBX 8 16 0 -2
BITMAP
00
00
00
00
41
41
22
22
14
14
08
08
10
30
00
00
ENDCHAR
STARTCHAR U424
ENCODING 1060
SWIDTH 512 0
DWIDTH 8 0
BBX 8 16 0 -2
BITMAP
00
00
00
08
08
3e
49
49
49
49
49
3e
08
08
00
00
ENDCHAR
STARTCHAR U425
ENCODING 1061
SWIDTH 512 0
DWIDTH 8 0
BBX 8 16 0 -2
BITMAP
00
00
00
00
42
42
24
24
18
18
24
24
42
42
00
00
ENDCHAR
STARTCHAR U426
ENCODING 1062
SWIDTH 512 0
DWIDTH 8 0
BBX 8 16 0 -2
BITMAP
00
00
00
00
42
42
42
42
42
42
42
42
42
7e
02
04
ENDCHAR
STARTCHAR U427
ENCODING 1063
SWIDTH 512 0
DWIDTH 8 0
BBX 8 16 0 -2
BITMAP
00
00
00
00
42
42
42
42
42
46
3a
02
02
02
00
00
ENDCHAR
STARTCHAR U428
ENCODING 1064
SWIDTH 512 0
DWIDTH 8 0
BBX 8 16 0 -2
BITMAP
00
00
00
00
49
49
49
49
49
49
49
49
49
7f
00
00
ENDCHAR
STARTCHAR U429
ENCODING 1065
SWIDTH 512 0
DWIDTH 8 0
BBX 8 16 0 -2
BITMAP
00
00
00
00
49
49
49
49
49
49
49
49
49
7f
01
02
ENDCHAR
STARTCHAR U42a
ENCODING 1066
SWIDTH 512 0
DWIDTH 8 0
BBX 8 16 0 -2
BITMAP
00
00
00
00
70
10
10
10
1e
11
11
11
11
1e
00
00
ENDCHAR
STARTCHAR U42b
ENCODING 1067
SWIDTH 512 0
DWIDTH 8 0
BBX 8 16 0 -2
BITMAP
00
00
00
00
42
42
42
42
72
4a
4a
4a
4a
72
00
00
ENDCHAR
STARTCHAR U42c
ENCODING 1068
SWIDTH 512 0
DWIDTH 8 0
BBX 8 16 0 -2
BITMAP
00
00
00
00
40
40
40
40
7c
42
42
42
42
7c
00
00
ENDCHAR
STARTCHAR U42d
ENCODING 1069
SWIDTH 512 0
DWIDTH 8 0
BBX 8 16 0 -2
BITMAP
00
00
00
00
38
44
02
02
3e
02
02
02
44
38
00
00
ENDCHAR
STARTCHAR U42e
ENCODING 1070
SWIDTH 512 0
DWIDTH 8 0
BBX 8 16 0 -2
BITMAP
00
00
00
00
4c
52
52
52
72
52
52
52
52
4c
00
00
ENDCHAR
STARTCHAR U42f
ENCODING 1071
SWIDTH 512 0
DWIDTH 8 0
BBX 8 16 0 -2
BITMAP
00
00
00
00
3e
42
42
42
3e
12
22
22
42
42
00
00
ENDCHAR
STARTCHAR U430
ENCODING 1072
SWIDTH 512 0
DWIDTH 8 0
BBX 8 16 0 -2
BITMAP
00
00
00
00
00
00
3c
42
02
3e
42
42
46
3a
00
00
ENDCHAR
STARTCHAR U431
ENCODING 1073
SWIDTH 512 0
DWIDTH 8 0
BBX 8 16 0 -2
BITMAP
00
00
00
00
00
00
7c
40
40
7c
42
42
42
7c
00
00
ENDCHAR
STARTCHAR U432
ENCODING 1074
SWIDTH 512 0
DWIDTH 8 0
BBX 8 16 0 -2
BITMAP
00
00
00
00
00
00
7c
42
42
7c
42
42
42
7c
00
00
ENDCHAR
STARTCHAR U433
ENCODING 1075
SWIDTH 512 0
DWIDTH 8 0
BBX 8 16 0 -2
BITMAP
00
00
00
00
00
00
7e
40
40
40
40
40
40
40
00
00
ENDCHAR
STARTCHAR U434
ENCODING 1076
SWIDTH 512 0
DWIDTH 8 0
BBX 8 16 0 -2
BITMAP
00
00
00
00
00
00
1e
12
22
22
42
42
42
7e
01
00
ENDCHAR
STARTCHAR U435
ENCODING 1077
SWIDTH 512 0
DWIDTH 8 0
BBX 8 16 0 -2
BITMAP
00
00
00
00
00
00
3c
42
42
7e
40
40
42
3c
00
00
ENDCHAR
STARTCHAR U436
ENCODING 1078
SWIDTH 512 0
DWIDTH 8 0
BBX 8 16 0 -2
BITMAP
00
00
00
00
00
00
49
49
2a
1c
1c
2a
49
49
00
00
ENDCHAR
STARTCHAR U437
ENCODING 1079
SWIDTH 512 0
DWIDTH 8 0
BBX 8 16 0 -2
BITMAP
00
00
00
00
00
00
3c
42
02
3c
04
02
42
3c
00
00
ENDCHAR
STARTCHAR U438
ENCODING 1080
SWIDTH 512 0
DWIDTH 8 0
BBX 8 16 0 -2
BITMAP
00
00
00
00
00
00
46
46
4a
4a
52
52
62
62
00
00
ENDCHAR
STARTCHAR U439
ENCODING 1081
SWIDTH 512 0
DWIDTH 8 0
BBX 8 16 0 -2
BITMAP
00
42
42
3c
00
00
46
46
4a
4a
52
52
62
62
00
00
ENDCHAR
STARTCHAR U43a
ENCODING 1082
SWIDTH 512 0
DWIDTH 8 0
BBX 8 16 0 -2
BITMAP
00
00
00
00
00
00
46
48
50
60
50
48
44
42
00
00
ENDCHAR
STARTCHAR U43b
ENCODING 1083
SWIDTH 512 0
DWIDTH 8 0
BBX 8 16 0 -2
BITMAP
00
00
00
00
00
00
1e
12
12
12
12
22
22
42
00
00
ENDCHAR
STARTCHAR U43c
ENCODING 1084
SWIDTH 512 0
DWIDTH 8 0
BBX 8 16 0 -2
BITMAP
00
00
00
00
00
00
42
66
66
5a
5a
42
42
42
00
00
ENDCHAR
STARTCHAR U43d
ENCODING 1085
SWIDTH 512 0
DWIDTH 8 0
BBX 8 16 0 -2
BITMAP
00
00
00
00
00
00
42
42
42
7e
42
42
42
42
00
00
ENDCHAR
STARTCHAR U43e
ENCODING 1086
SWIDTH 512 0
DWIDTH 8 0
BBX 8 16 0 -2
BITMAP
00
00
00
00
00
00
3c
42
42
42
42
42
42
3c
00
00
ENDCHAR
STARTCHAR U43f
ENCODING 1087
SWIDTH 512 0
DWIDTH 8 0
BBX 8 16 0 -2
BITMAP
00
00
00
00
00
00
7e
42
42
42
42
42
42
42
00
00
ENDCHAR
STARTCHAR U440
ENCODING 1088
SWIDTH 512 0
DWIDTH 8 0
BBX 8 16 0 -2
BITMAP
00
00
00
00
00
00
5c
62
42
42
42
42
62
5c
40
40
ENDCHAR
STARTCHAR U441
ENCODING 1089
SWIDTH 512 0
DWIDTH 8 0
BBX 8 16 0 -2
BITMAP
00
00
00
00
00
00
3c
42
40
40
40
40
42
3c
00
00
ENDCHAR
STARTCHAR U442
ENCODING 1090
SWIDTH 512 0
DWIDTH 8 0
BBX 8 16 0 -2
BITMAP
00
00
00
00
00
00
7f
08
08
08
08
08
08
08
00
00
ENDCHAR
STARTCHAR U443
ENCODING 1091
SWIDTH 512 0
DWIDTH 8 0
BBX 8 16 0 -2
BITMAP
00
00
00
00
00
00
42
42
24
24
18
18
10
10
20
60
ENDCHAR
STARTCHAR U444
ENCODING 1092
SWIDTH 512 0
DWIDTH 8 0
BBX 8 16 0 -2
BITMAP
00
00
00
00
00
08
08
3e
49
49
49
49
3e
08
08
00
ENDCHAR
STARTCHAR U445
ENCODING 1093
SWIDTH 512 0
DWIDTH 8 0
BBX 8 16 0 -2
BITMAP
00
00
00
00
00
00
42
42
24
18
18
24
42
42
00
00
ENDCHAR
STARTCHAR U446
ENCODING 1094
SWIDTH 512 0
DWIDTH 8 0
BBX 8 16 0 -2
BITMAP
00
00
00
00
00
00
42
42
42
42
42
42
42
7e
02
04
ENDCHAR
STARTCHAR U447
ENCODING 1095
SWIDTH 512 0
DWIDTH 8 0
BBX 8 16 0 -2
BITMAP
00
00
00
00
00
00
42
42
42
42
46
3a
02
02
00
00
ENDCHAR
STARTCHAR U448
ENCODING 1096
SWIDTH 512 0
DWIDTH 8 0
BBX 8 16 0 -2
BITMAP
00
00
00
00
00
00
49
49
49
49
49
49
49
7f
00
00
ENDCHAR
STARTCHAR U449
ENCODING 1097
SWIDTH 512 0
DWIDTH 8 0
BBX 8 16 0 -2
BITMAP
00
00
00
00
00
00
49
49
49
49
49
49
49
7f
01
02
ENDCHAR
STARTCHAR U44a
ENCODING 1098
SWIDTH 512 0
DWIDTH 8 0
BBX 8 16 0 -2
BITMAP
00
00
00
00
00
00
70
10
10
1e
11
11
11
1e
00
00
ENDCHAR
STARTCHAR U44b
ENCODING 1099
SWIDTH 512 0
DWIDTH 8 0
BBX 8 16 0 -2
BITMAP
00
00
00
00
00
00
42
42
42
72
4a
4a
4a
72
00
00
ENDCHAR
STARTCHAR U44c
ENCODING 1100
SWIDTH 512 0
DWIDTH 8 0
BBX 8 16 0 -2
BITMAP
00
00
00
00
00
00
40
40
40
7c
42
42
42
7c
00
00
ENDCHAR
STARTCHAR U44d
ENCODING 1101
SWIDTH 512 0
DWIDTH 8 0
BBX 8 16 0 -2
BITMAP
00
00
00
00
00
00
38
44
02
3e
02
02
44
38
00
00
ENDCHAR
STARTCHAR U44e
ENCODING 1102
SWIDTH 512 0
DWIDTH 8 0
BBX 8 16 0 -2
BITMAP
00
00
00
00
00
00
4c
52
52
72
52
52
52
4c
00
00
ENDCHAR
STARTCHAR U44f
ENCODING 1103
SWIDTH 512 0
DWIDTH 8 0
BBX 8 16 0 -2
BITMAP
00
00
00
00
00
00
3e
42
42
42
3e
12
22
42
00
00
ENDCHAR
STARTCHAR U451
ENCODING 1105
SWIDTH 512 0
DWIDTH 8 0
BBX 8 16 0 -2
BITMAP
00
00
24
24
00
00
3c
42
42
7e
40
40
42
3c
00
00
ENDCHAR
STARTCHAR U452
ENCODING 1106
SWIDTH 512 0
DWIDTH 8 0
BBX 8 16 0 -2
BITMAP
00
00
00
00
20
20
78
20
20
3c
22
22
22
3c
00
00
ENDCHAR
STARTCHAR U453
ENCODING 1107
SWIDTH 512 0
DWIDTH 8 0
BBX 8 16 0 -2
BITMAP
00
00
0c
30
00
00
7e
40
40
40
40
40
40
40
00
00
ENDCHAR
STARTCHAR U454
ENCODING 1108
SWIDTH 512 0
DWIDTH 8 0
BBX 8 16 0 -2
BITMAP
00
00
00
00
00
00
1c
22
40
7c
40
40
22
1c
00
00
ENDCHAR
STARTCHAR U455
ENCODING 1109
SWIDTH 512 0
DWIDTH 8 0
BBX 8 16 0 -2
BITMAP
00
00
00
00
00
00
3c
42
40
30
0c
02
42
3c
00
00
ENDCHAR
STARTCHAR U456
ENCODING 1110
SWIDTH 512 0
DWIDTH 8 0
BBX 8 16 0 -2
BITMAP
00
00
00
08
08
00
18
08
08
08
08
08
08
3e
00
00
ENDCHAR
STARTCHAR U457
ENCODING 1111
SWIDTH 512 0
DWIDTH 8 0
BBX 8 16 0 -2
BITMAP
00
00
00
24
24
00
18
08
08
08
08
08
08
3e
00
00
ENDCHAR
STARTCHAR U458
ENCODING 1112
SWIDTH 512 0
DWIDTH 8 0
BBX 8 16 0 -2
BITMAP
00
00
00
04
04
00
0c
04
04
04
04
04
04
04
48
30
ENDCHAR
STARTCHAR U459
ENCODING 1113
SWIDTH 512 0
DWIDTH 8 0
BBX 8 16 0 -2
BITMAP
00
00
00
00
00
00
78
48
48
4e
49
49
49
8e
00
00
ENDCHAR
STARTCHAR U45a
ENCODING 1114
SWIDTH 512 0
DWIDTH 8 0
BBX 8 16 0 -2
BITMAP
00
00
00
00
00
00
48
48
48
7e
49
49
49
4e
00
00
ENDCHAR
STARTCHAR U45b
ENCODING 1115
SWIDTH 512 0
DWIDTH 8 0
BBX 8 16 0 -2
BITMAP
00
00
00
00
20
20
78
20
20
2c
32
22
22
22
00
00
ENDCHAR
STARTCHAR U45c
ENCODING 1116
SWIDTH 512 0
DWIDTH 8 0
BBX 8 16 0 -2
BITMAP
00
00
0c
30
00
00
46
48
50
60
50
48
44
42
00
00
ENDCHAR
STARTCHAR U45e
ENCODING 1118
SWIDTH 512 0
DWIDTH 8 0
BBX 8 16 0 -2
BITMAP
00
42
42
3c
00
00
42
42
24
24
18
18
10
10
20
60
ENDCHAR
STARTCHAR U45f
ENCODING 1119
SWIDTH 512 0
DWIDTH 8 0
BBX 8 16 0 -2
BITMAP
00
00
00
00
00
00
22
22
22
22
22
22
3e
08
08
08
ENDCHAR
STARTCHAR U531
ENCODING 1329
SWIDTH 576 0
DWIDTH 12 0
BBX 10 7 1 0
BITMAP
e200
4200
4200
4200
4200
4300
3d80
ENDCHAR
STARTCHAR U532
ENCODING 1330
SWIDTH 528 0
DWIDTH 11 0
BBX 8 7 1 0
BITMAP
3c
42
42
40
7f
41
e0
ENDCHAR
STARTCHAR U533
ENCODING 1331
SWIDTH 624 0
DWIDTH 13 0
BBX 10 7 1 0
BITMAP
7c00
8200
8200
4200
3fc0
0240
0700
ENDCHAR
STARTCHAR U534
ENCODING 1332
SWIDTH 576 0
DWIDTH 12 0
BBX 10 7 0 0
BITMAP
3c00
4200
4200
4200
43c0
0240
0200
ENDCHAR
STARTCHAR U535
ENCODING 1333
SWIDTH 528 0
DWIDTH 11 0
BBX 8 7 1 0
BITMAP
c0
7e
41
40
42
42
3c
ENDCHAR
STARTCHAR U536
ENCODING 1334
SWIDTH 528 0
DWIDTH 11 0
BBX 8 8 1 -1
BITMAP
7e
81
81
43
3e
8c
fe
81
ENDCHAR
STARTCHAR U537
ENCODING 1335
SWIDTH 432 0
DWIDTH 9 0
BBX 7 8 1 -1
BITMAP
c0
7c
42
40
40
40
70
0c
ENDCHAR
STARTCHAR U538
ENCODING 1336
SWIDTH 528 0
DWIDTH 11 0
BBX 8 8 1 -1
BITMAP
78
84
84
84
84
80
fe
01
ENDCHAR
STARTCHAR U539
ENCODING 1337
SWIDTH 624 0
DWIDTH 13 0
BBX 10 7 1 0
BITMAP
3c00
4200
4fc0
5240
5200
4c00
e000
ENDCHAR
STARTCHAR U53a
ENCODING 1338
SWIDTH 576 0
DWIDTH 12 0
BBX 9 7 1 0
BITMAP
0600
0200
7f80
8280
8200
8400
7800
ENDCHAR
STARTCHAR U53b
ENCODING 1339
SWIDTH 528 0
DWIDTH 11 0
BBX 9 7 1 0
BITMAP
c000
7c00
4200
4200
4200
4000
e000
ENDCHAR
STARTCHAR U53c
ENCODING 1340
SWIDTH 432 0
DWIDTH 9 0
BBX 6 8 1 -1
BITMAP
c0
40
40
40
40
40
78
04
ENDCHAR
STARTCHAR U53d
ENCODING 1341
SWIDTH 576 0
DWIDTH 12 0
BBX 10 7 1 0
BITMAP
c000
7180
5080
5080
5980
4f00
e000
ENDCHAR
STARTCHAR U53e
ENCODING 1342
SWIDTH 576 0
DWIDTH 12 0
BBX 10 8 1 0
BITMAP
c000
3fc0
6240
4100
4100
4300
2200
1c00
ENDCHAR
STARTCHAR U53f
ENCODING 1343
SWIDTH 528 0
DWIDTH 11 0
BBX 8 7 1 0
BITMAP
e0
40
46
42
62
1e
03
ENDCHAR
STARTCHAR U540
ENCODING 1344
SWIDTH 528 0
DWIDTH 11 0
BBX 8 7 1 0
BITMAP
3c
04
08
30
40
fc
03
ENDCHAR
STARTCHAR U541
ENCODING 1345
SWIDTH 432 0
DWIDTH 9 0
BBX 7 7 1 0
BITMAP
7c
82
c2
3a
04
fc
f6
ENDCHAR
STARTCHAR U542
ENCODING 1346
SWIDTH 576 0
DWIDTH 12 0
BBX 10 8 1 -1
BITMAP
3c00
4200
4200
4200
e200
0200
0300
00c0
ENDCHAR
STARTCHAR U543
ENCODING 1347
SWIDTH 528 0
DWIDTH 11 0
BBX 8 7 1 0
BITMAP
3c
f0
cc
84
82
82
7f
ENDCHAR
STARTCHAR U544
ENCODING 1348
SWIDTH 576 0
DWIDTH 12 0
BBX 10 7 1 0
BITMAP
e7c0
4440
4400
4400
4400
4400
3c00
ENDCHAR
STARTCHAR U545
ENCODING 1349
SWIDTH 480 0
DWIDTH 10 0
BBX 8 7 1 0
BITMAP
fc
04
fc
02
82
82
7c
ENDCHAR
STARTCHAR U546
ENCODING 1350
SWIDTH 528 0
DWIDTH 11 0
BBX 9 7 1 0
BITMAP
c000
6000
2000
2100
2100
2100
1e00
ENDCHAR
STARTCHAR U547
ENCODING 1351
SWIDTH 528 0
DWIDTH 11 0
BBX 8 7 1 0
BITMAP
fe
63
80
80
81
c3
7e
ENDCHAR
STARTCHAR U548
ENCODING 1352
SWIDTH 528 0
DWIDTH 11 0
BBX 8 7 1 0
BITMAP
3c
42
42
42
42
42
e7
ENDCHAR
STARTCHAR U549
ENCODING 1353
SWIDTH 432 0
DWIDTH 9 0
BBX 7 8 1 -1
BITMAP
78
84
82
46
3a
04
f8
1e
ENDCHAR
STARTCHAR U54a
ENCODING 1354
SWIDTH 576 0
DWIDTH 12 0
BBX 10 7 0 0
BITMAP
7f00
8880
8880
8880
8880
0880
01c0
ENDCHAR
STARTCHAR U54b
ENCODING 1355
SWIDTH 528 0
DWIDTH 11 0
BBX 8 8 1 -1
BITMAP
7c
82
c2
72
0a
84
fe
81
ENDCHAR
STARTCHAR U54c
ENCODING 1356
SWIDTH 624 0
DWIDTH 13 0
BBX 10 7 1 0
BITMAP
3c00
4200
4200
4200
43c0
4240
e700
ENDCHAR
STARTCHAR U54d
ENCODING 1357
SWIDTH 528 0
DWIDTH 11 0
BBX 8 7 1 0
BITMAP
e7
42
42
42
42
42
3c
ENDCHAR
STARTCHAR U54e
ENCODING 1358
SWIDTH 528 0
DWIDTH 11 0
BBX 9 8 1 -1
BITMAP
0600
0200
c200
4200
4200
3e00
0300
0080
ENDCHAR
STARTCHAR U54f
ENCODING 1359
SWIDTH 432 0
DWIDTH 9 0
BBX 7 7 1 0
BITMAP
7c
84
c0
78
06
82
fc
ENDCHAR
STARTCHAR U550
ENCODING 1360
SWIDTH 480 0
DWIDTH 10 0
BBX 8 7 1 0
BITMAP
3c
42
42
42
42
40
e0
ENDCHAR
STARTCHAR U551
ENCODING 1361
SWIDTH 480 0
DWIDTH 10 0
BBX 8 7 1 0
BITMAP
7e
42
7e
81
01
81
7e
ENDCHAR
STARTCHAR U552
ENCODING 1362
SWIDTH 528 0
DWIDTH 11 0
BBX 9 7 1 0
BITMAP
f000
4c00
4200
4200
4180
4000
e000
ENDCHAR
STARTCHAR U553
ENCODING 1363
SWIDTH 576 0
DWIDTH 12 0
BBX 10 7 1 0
BITMAP
1c00
0800
7f00
8880
7f00
0800
1c00
ENDCHAR
STARTCHAR U554
ENCODING 1364
SWIDTH 528 0
DWIDTH 11 0
BBX 8 7 1 0
BITMAP
1c
22
22
3c
e0
3f
20
ENDCHAR
STARTCHAR U555
ENCODING 1365
SWIDTH 528 0
DWIDTH 11 0
BBX 9 7 1 0
BITMAP
3e00
4100
8080
8080
8080
4100
3e00
ENDCHAR
STARTCHAR U556
ENCODING 1366
SWIDTH 528 0
DWIDTH 11 0
BBX 8 7 1 0
BITMAP
78
88
7c
0a
09
89
7e
ENDCHAR
STARTCHAR U561
ENCODING 1377
SWIDTH 576 0
DWIDTH 12 0
BBX 10 5 1 0
BITMAP
c900
4900
4900
4900
3780
ENDCHAR
STARTCHAR U562
ENCODING 1378
SWIDTH 384 0
DWIDTH 8 0
BBX 5 7 1 -2
BITMAP
f8
88
88
80
f8
80
c0
ENDCHAR
STARTCHAR U563
ENCODING 1379
SWIDTH 432 0
DWIDTH 9 0
BBX 7 7 1 -2
BITMAP
78
88
88
88
7e
08
1c
ENDCHAR
STARTCHAR U564
ENCODING 1380
SWIDTH 432 0
DWIDTH 9 0
BBX 7 7 1 -2
BITMAP
f8
48
48
48
ee
08
1c
ENDCHAR
STARTCHAR U565
ENCODING 1381
SWIDTH 432 0
DWIDTH 9 0
BBX 6 8 1 0
BITMAP
c0
40
40
78
40
40
44
f8
ENDCHAR
STARTCHAR U566
ENCODING 1382
SWIDTH 432 0
DWIDTH 9 0
BBX 6 7 1 -2
BITMAP
78
88
88
78
08
08
0c
ENDCHAR
STARTCHAR U567
ENCODING 1383
SWIDTH 288 0
DWIDTH 6 0
BBX 4 10 1 -2
BITMAP
80
80
f0
80
80
c0
60
10
10
60
ENDCHAR
STARTCHAR U568
ENCODING 1384
SWIDTH 432 0
DWIDTH 9 0
BBX 6 7 1 -2
BITMAP
f8
48
48
48
5c
40
78
ENDCHAR
STARTCHAR U569
ENCODING 1385
SWIDTH 432 0
DWIDTH 9 0
BBX 7 7 1 -2
BITMAP
fc
44
5e
54
5c
40
e0
ENDCHAR
STARTCHAR U56a
ENCODING 1386
SWIDTH 432 0
DWIDTH 9 0
BBX 5 8 1 0
BITMAP
18
08
68
98
88
88
90
60
ENDCHAR
STARTCHAR U56b
ENCODING 1387
SWIDTH 432 0
DWIDTH 9 0
BBX 6 10 1 -2
BITMAP
c0
40
70
48
48
48
48
5c
40
e0
ENDCHAR
STARTCHAR U56c
ENCODING 1388
SWIDTH 288 0
DWIDTH 6 0
BBX 4 7 1 -2
BITMAP
c0
40
40
40
40
40
70
ENDCHAR
STARTCHAR U56d
ENCODING 1389
SWIDTH 528 0
DWIDTH 11 0
BBX 8 10 1 -2
BITMAP
c0
40
66
52
52
52
52
4f
40
e0
ENDCHAR
STARTCHAR U56e
ENCODING 1390
SWIDTH 384 0
DWIDTH 8 0
BBX 5 8 1 0
BITMAP
e0
80
80
70
88
88
88
70
ENDCHAR
STARTCHAR U56f
ENCODING 1391
SWIDTH 336 0
DWIDTH 7 0
BBX 7 10 0 -2
BITMAP
c0
40
4c
44
44
44
44
3c
04
06
ENDCHAR
STARTCHAR U570
ENCODING 1392
SWIDTH 432 0
DWIDTH 9 0
BBX 6 8 1 0
BITMAP
c0
40
70
48
48
48
48
fc
ENDCHAR
STARTCHAR U571
ENCODING 1393
SWIDTH 432 0
DWIDTH 9 0
BBX 6 8 1 0
BITMAP
80
78
30
c8
88
88
88
6c
ENDCHAR
STARTCHAR U572
ENCODING 1394
SWIDTH 432 0
DWIDTH 9 0
BBX 7 7 1 -2
BITMAP
f8
48
48
48
e8
08
0e
ENDCHAR
STARTCHAR U573
ENCODING 1395
SWIDTH 432 0
DWIDTH 9 0
BBX 6 8 1 0
BITMAP
38
44
e0
48
48
48
48
f4
ENDCHAR
STARTCHAR U574
ENCODING 1396
SWIDTH 432 0
DWIDTH 9 0
BBX 7 8 1 0
BITMAP
06
0a
c8
48
48
48
48
34
ENDCHAR
STARTCHAR U575
ENCODING 1397
SWIDTH 288 0
DWIDTH 6 0
BBX 3 7 1 -2
BITMAP
60
20
20
20
20
20
c0
ENDCHAR
STARTCHAR U576
ENCODING 1398
SWIDTH 432 0
DWIDTH 9 0
BBX 7 8 1 0
BITMAP
e0
80
cc
24
24
24
24
1e
ENDCHAR
STARTCHAR U577
ENCODING 1399
SWIDTH 288 0
DWIDTH 6 0
BBX 4 7 1 -2
BITMAP
60
90
10
20
c0
80
f0
ENDCHAR
STARTCHAR U578
ENCODING 1400
SWIDTH 432 0
DWIDTH 9 0
BBX 6 5 1 0
BITMAP
f8
48
48
48
fc
ENDCHAR
STARTCHAR U579
ENCODING 1401
SWIDTH 384 0
DWIDTH 8 0
BBX 5 7 1 -2
BITMAP
80
c0
60
20
40
40
78
ENDCHAR
STARTCHAR U57a
ENCODING 1402
SWIDTH 576 0
DWIDTH 12 0
BBX 10 7 1 -2
BITMAP
c900
4900
4900
4900
3700
0100
0180
ENDCHAR
STARTCHAR U57b
ENCODING 1403
SWIDTH 336 0
DWIDTH 7 0
BBX 5 7 1 -2
BITMAP
70
88
58
20
40
80
78
ENDCHAR
STARTCHAR U57c
ENCODING 1404
SWIDTH 480 0
DWIDTH 10 0
BBX 8 5 1 0
BITMAP
f8
44
44
44
e7
ENDCHAR
STARTCHAR U57d
ENCODING 1405
SWIDTH 432 0
DWIDTH 9 0
BBX 6 5 1 0
BITMAP
d8
48
48
48
3c
ENDCHAR
STARTCHAR U57e
ENCODING 1406
SWIDTH 432 0
DWIDTH 9 0
BBX 7 10 1 -2
BITMAP
18
08
c8
48
48
48
48
38
08
06
ENDCHAR
STARTCHAR U57f
ENCODING 1407
SWIDTH 576 0
DWIDTH 12 0
BBX 10 5 1 0
BITMAP
ce00
4900
4900
4900
3980
ENDCHAR
STARTCHAR U580
ENCODING 1408
SWIDTH 432 0
DWIDTH 9 0
BBX 6 7 1 -2
BITMAP
f8
48
48
48
5c
40
e0
ENDCHAR
STARTCHAR U581
ENCODING 1409
SWIDTH 384 0
DWIDTH 8 0
BBX 5 7 1 -2
BITMAP
78
88
88
78
08
88
f0
ENDCHAR
STARTCHAR U582
ENCODING 1410
SWIDTH 288 0
DWIDTH 6 0
BBX 4 5 1 0
BITMAP
c0
40
40
40
70
ENDCHAR
STARTCHAR U583
ENCODING 1411
SWIDTH 576 0
DWIDTH 12 0
BBX 10 10 1 -2
BITMAP
0800
0800
ce00
4900
4900
4900
4900
3980
0800
0800
ENDCHAR
STARTCHAR U584
ENCODING 1412
SWIDTH 432 0
DWIDTH 9 0
BBX 7 7 1 -2
BITMAP
18
20
7c
20
20
20
70
ENDCHAR
STARTCHAR U585
ENCODING 1413
SWIDTH 384 0
DWIDTH 8 0
BBX 5 5 1 0
BITMAP
70
88
88
88
70
ENDCHAR
STARTCHAR U586
ENCODING 1414
SWIDTH 384 0
DWIDTH 8 0
BBX 5 10 1 -2
BITMAP
60
a0
e0
30
28
a8
a8
70
20
70
ENDCHAR
STARTCHAR U5d0
ENCODING 1488
SWIDTH 512 0
DWIDTH 8 0
BBX 8 16 0 -2
BITMAP
00
00
00
00
00
00
42
42
22
14
28
44
42
42
00
00
ENDCHAR
STARTCHAR U5d1
ENCODING 1489
SWIDTH 512 0
DWIDTH 8 0
BBX 8 16 0 -2
BITMAP
00
00
00
00
00
00
7c
04
04
04
04
04
04
7f
00
00
ENDCHAR
STARTCHAR U5d2
ENCODING 1490
SWIDTH 512 0
DWIDTH 8 0
BBX 8 16 0 -2
BITMAP
00
00
00
00
00
00
30
08
08
04
0c
14
22
42
00
00
ENDCHAR
STARTCHAR U5d3
ENCODING 1491
SWIDTH 512 0
DWIDTH 8 0
BBX 8 16 0 -2
BITMAP
00
00
00
00
00
00
7e
04
04
04
04
04
04
04
00
00
ENDCHAR
STARTCHAR U5d4
ENCODING 1492
SWIDTH 512 0
DWIDTH 8 0
BBX 8 16 0 -2
BITMAP
00
00
00
00
00
00
7e
02
02
22
22
22
22
22
00
00
ENDCHAR
STARTCHAR U5d5
ENCODING 1493
SWIDTH 512 0
DWIDTH 8 0
BBX 8 16 0 -2
BITMAP
00
00
00
00
00
00
38
08
08
08
08
08
08
08
00
00
ENDCHAR
STARTCHAR U5d6
ENCODING 1494
SWIDTH 512 0
DWIDTH 8 0
BBX 8 16 0 -2
BITMAP
00
00
00
00
00
00
30
0c
0a
08
08
08
08
08
00
00
ENDCHAR
STARTCHAR U5d7
ENCODING 1495
SWIDTH 512 0
DWIDTH 8 0
BBX 8 16 0 -2
BITMAP
00
00
00
00
00
00
7e
22
22
22
22
22
22
22
00
00
ENDCHAR
STARTCHAR U5d8
ENCODING 1496
SWIDTH 512 0
DWIDTH 8 0
BBX 8 16 0 -2
BITMAP
00
00
00
00
00
00
46
4a
42
42
42
42
42
7e
00
00
ENDCHAR
STARTCHAR U5d9
ENCODING 1497
SWIDTH 512 0
DWIDTH 8 0
BBX 8 16 0 -2
BITMAP
00
00
00
00
00
00
38
08
08
08
00
00
00
00
00
00
ENDCHAR
STARTCHAR U5da
ENCODING 1498
SWIDTH 512 0
DWIDTH 8 0
BBX 8 16 0 -2
BITMAP
00
00
00
00
00
00
7e
02
02
02
02
02
02
02
02
02
ENDCHAR
STARTCHAR U5db
ENCODING 1499
SWIDTH 512 0
DWIDTH 8 0
BBX 8 16 0 -2
BITMAP
00
00
00
00
00
00
7e
02
02
02
02
02
02
7c
00
00
ENDCHAR
STARTCHAR U5dc
ENCODING 1500
SWIDTH 512 0
DWIDTH 8 0
BBX 8 16 0 -2
BITMAP
00
00
00
00
20
20
3e
02
02
02
04
04
08
30
00
00
ENDCHAR
STARTCHAR U5dd
ENCODING 1501
SWIDTH 512 0
DWIDTH 8 0
BBX 8 16 0 -2
BITMAP
00
00
00
00
00
00
7e
22
22
22
22
22
22
3e
00
00
ENDCHAR
STARTCHAR U5de
ENCODING 1502
SWIDTH 512 0
DWIDTH 8 0
BBX 8 16 0 -2
BITMAP
00
00
00
00
00
00
48
48
34
14
22
22
41
4f
00
00
ENDCHAR
STARTCHAR U5df
ENCODING 1503
SWIDTH 512 0
DWIDTH 8 0
BBX 8 16 0 -2
BITMAP
00
00
00
00
00
00
38
08
08
08
08
08
08
08
08
08
ENDCHAR
STARTCHAR U5e0
ENCODING 1504
SWIDTH 512 0
DWIDTH 8 0
BBX 8 16 0 -2
BITMAP
00
00
00
00
00
00
1c
04
04
04
04
04
04
3c
00
00
ENDCHAR
STARTCHAR U5e1
ENCODING 1505
SWIDTH 512 0
DWIDTH 8 0
BBX 8 16 0 -2
BITMAP
00
00
00
00
00
00
7e
42
42
42
42
42
44
78
00
00
ENDCHAR
STARTCHAR U5e2
ENCODING 1506
SWIDTH 512 0
DWIDTH 8 0
BBX 8 16 0 -2
BITMAP
00
00
00
00
00
00
12
12
12
12
12
12
12
7e
00
00
ENDCHAR
STARTCHAR U5e3
ENCODING 1507
SWIDTH 512 0
DWIDTH 8 0
BBX 8 16 0 -2
BITMAP
00
00
00
00
00
00
7e
42
42
42
72
02
02
02
02
02
ENDCHAR
STARTCHAR U5e4
ENCODING 1508
SWIDTH 512 0
DWIDTH 8 0
BBX 8 16 0 -2
BITMAP
00
00
00
00
00
00
7e
42
42
42
72
02
02
7e
00
00
ENDCHAR
STARTCHAR U5e5
ENCODING 1509
SWIDTH 512 0
DWIDTH 8 0
BBX 8 16 0 -2
BITMAP
00
00
00
00
00
00
22
22
24
28
30
20
20
20
20
20
ENDCHAR
STARTCHAR U5e6
ENCODING 1510
SWIDTH 512 0
DWIDTH 8 0
BBX 8 16 0 -2
BITMAP
00
00
00
00
00
00
42
42
24
18
08
04
02
7e
00
00
ENDCHAR
STARTCHAR U5e7
ENCODING 1511
SWIDTH 512 0
DWIDTH 8 0
BBX 8 16 0 -2
BITMAP
00
00
00
00
00
00
7e
22
22
24
24
28
20
20
20
20
ENDCHAR
STARTCHAR U5e8
ENCODING 1512
SWIDTH 512 0
DWIDTH 8 0
BBX 8 16 0 -2
BITMAP
00
00
00
00
00
00
7e
02
02
02
02
02
02
02
00
00
ENDCHAR
STARTCHAR U5e9
ENCODING 1513
SWIDTH 512 0
DWIDTH 8 0
BBX 8 16 0 -2
BITMAP
00
00
00
00
00
00
49
49
49
49
49
49
49
7f
00
00
ENDCHAR
STARTCHAR U5ea
ENCODING 1514
SWIDTH 512 0
DWIDTH 8 0
BBX 8 16 0 -2
BITMAP
00
00
00
00
00
00
3e
22
22
22
22
22
22
62
00
00
ENDCHAR
STARTCHAR U60c
ENCODING 1548
SWIDTH 512 0
DWIDTH 8 0
BBX 8 16 0 -2
BITMAP
00
00
00
00
00
08
10
18
18
00
00
00
00
00
00
00
ENDCHAR
STARTCHAR U61b
ENCODING 1563
SWIDTH 512 0
DWIDTH 8 0
BBX 8 16 0 -2
BITMAP
00
00
00
00
00
08
10
18
00
18
00
00
00
00
00
00
ENDCHAR
STARTCHAR U61f
ENCODING 1567
SWIDTH 512 0
DWIDTH 8 0
BBX 8 16 0 -2
BITMAP
00
3e
41
40
20
10
08
08
00
08
00
00
00
00
00
00
ENDCHAR
STARTCHAR U621
ENCODING 1569
SWIDTH 512 0
DWIDTH 8 0
BBX 8 16 0 -2
BITMAP
00
00
00
00
00
0e
10
16
08
10
00
00
00
00
00
00
ENDCHAR
STARTCHAR U622
ENCODING 1570
SWIDTH 512 0
DWIDTH 8 0
BBX 8 16 0 -2
BITMAP
1e
60
08
0c
0c
08
08
08
08
00
00
00
00
00
00
00
ENDCHAR
STARTCHAR U623
ENCODING 1571
SWIDTH 512 0
DWIDTH 8 0
BBX 8 16 0 -2
BITMAP
30
40
24
46
04
04
04
04
04
00
00
00
00
00
00
00
ENDCHAR
STARTCHAR U624
ENCODING 1572
SWIDTH 512 0
DWIDTH 8 0
BBX 8 16 0 -2
BITMAP
00
30
40
30
40
06
09
09
0f
01
02
44
38
00
00
00
ENDCHAR
STARTCHAR U625
ENCODING 1573
SWIDTH 512 0
DWIDTH 8 0
BBX 8 16 0 -2
BITMAP
00
00
04
06
04
04
34
44
24
40
00
00
00
00
00
00
ENDCHAR
STARTCHAR U626
ENCODING 1574
SWIDTH 512 0
DWIDTH 8 0
BBX 8 16 0 -2
BITMAP
00
00
00
03
04
02
04
00
0c
58
8c
84
78
00
00
00
ENDCHAR
STARTCHAR U627
ENCODING 1575
SWIDTH 512 0
DWIDTH 8 0
BBX 8 16 0 -2
BITMAP
00
10
18
18
10
10
10
10
10
00
00
00
00
00
00
00
ENDCHAR
STARTCHAR U628
ENCODING 1576
SWIDTH 512 0
DWIDTH 8 0
BBX 8 16 0 -2
BITMAP
00
00
00
00
00
02
41
81
7e
00
00
10
00
00
00
00
ENDCHAR
STARTCHAR U629
ENCODING 1577
SWIDTH 512 0
DWIDTH 8 0
BBX 8 16 0 -2
BITMAP
00
12
00
00
0c
12
11
11
0e
00
00
00
00
00
00
00
ENDCHAR
STARTCHAR U62a
ENCODING 1578
SWIDTH 512 0
DWIDTH 8 0
BBX 8 16 0 -2
BITMAP
00
00
24
00
00
02
41
81
7e
00
00
00
00
00
00
00
ENDCHAR
STARTCHAR U62b
ENCODING 1579
SWIDTH 512 0
DWIDTH 8 0
BBX 8 16 0 -2
BITMAP
10
00
24
00
00
02
41
81
7e
00
00
00
00
00
00
00
ENDCHAR
STARTCHAR U62c
ENCODING 1580
SWIDTH 512 0
DWIDTH 8 0
BBX 8 16 0 -2
BITMAP
00
00
00
00
00
00
fc
23
40
80
88
80
41
3e
00
00
ENDCHAR
STARTCHAR U62d
ENCODING 1581
SWIDTH 512 0
DWIDTH 8 0
BBX 8 16 0 -2
BITMAP
00
00
00
00
00
00
fc
23
40
80
80
80
41
3e
00
00
ENDCHAR
STARTCHAR U62e
ENCODING 1582
SWIDTH 512 0
DWIDTH 8 0
BBX 8 16 0 -2
BITMAP
00
00
00
10
00
00
fc
23
40
80
80
80
41
3e
00
00
ENDCHAR
STARTCHAR U62f
ENCODING 1583
SWIDTH 512 0
DWIDTH 8 0
BBX 8 16 0 -2
BITMAP
00
00
00
00
04
02
01
21
3e
00
00
00
00
00
00
00
ENDCHAR
STARTCHAR U630
ENCODING 1584
SWIDTH 512 0
DWIDTH 8 0
BBX 8 16 0 -2
BITMAP
00
00
10
00
04
02
01
21
3e
00
00
00
00
00
00
00
ENDCHAR
STARTCHAR U631
ENCODING 1585
SWIDTH 512 0
DWIDTH 8 0
BBX 8 16 0 -2
BITMAP
00
00
00
00
00
00
02
01
01
01
02
44
38
00
00
00
ENDCHAR
STARTCHAR U632
ENCODING 1586
SWIDTH 512 0
DWIDTH 8 0
BBX 8 16 0 -2
BITMAP
00
00
00
08
00
00
02
01
01
01
02
44
38
00
00
00
ENDCHAR
STARTCHAR U633
ENCODING 1587
SWIDTH 512 0
DWIDTH 8 0
BBX 8 16 0 -2
BITMAP
00
00
00
00
00
02
91
49
76
40
40
80
00
00
00
00
ENDCHAR
STARTCHAR U634
ENCODING 1588
SWIDTH 512 0
DWIDTH 8 0
BBX 8 16 0 -2
BITMAP
00
20
00
48
00
02
91
49
76
40
40
80
00
00
00
00
ENDCHAR
STARTCHAR U635
ENCODING 1589
SWIDTH 512 0
DWIDTH 8 0
BBX 8 16 0 -2
BITMAP
00
00
00
00
00
0e
91
61
7e
40
40
80
00
00
00
00
ENDCHAR
STARTCHAR U636
ENCODING 1590
SWIDTH 512 0
DWIDTH 8 0
BBX 8 16 0 -2
BITMAP
00
00
00
20
00
0e
91
61
7e
40
40
80
00
00
00
00
ENDCHAR
STARTCHAR U637
ENCODING 1591
SWIDTH 512 0
DWIDTH 8 0
BBX 8 16 0 -2
BITMAP
00
20
20
20
20
2e
31
21
fe
00
00
00
00
00
00
00
ENDCHAR
STARTCHAR U638
ENCODING 1592
SWIDTH 512 0
DWIDTH 8 0
BBX 8 16 0 -2
BITMAP
00
20
24
20
20
2e
31
21
fe
00
00
00
00
00
00
00
ENDCHAR
STARTCHAR U639
ENCODING 1593
SWIDTH 512 0
DWIDTH 8 0
BBX 8 16 0 -2
BITMAP
00
00
00
0e
11
10
08
1f
20
40
80
80
80
41
3e
00
ENDCHAR
STARTCHAR U63a
ENCODING 1594
SWIDTH 512 0
DWIDTH 8 0
BBX 8 16 0 -2
BITMAP
00
04
00
0e
11
10
08
1f
20
40
80
80
80
41
3e
00
ENDCHAR
STARTCHAR U640
ENCODING 1600
SWIDTH 512 0
DWIDTH 8 0
BBX 8 16 0 -2
BITMAP
00
00
00
00
00
00
00
00
ff
00
00
00
00
00
00
00
ENDCHAR
STARTCHAR U641
ENCODING 1601
SWIDTH 512 0
DWIDTH 8 0
BBX 8 16 0 -2
BITMAP
00
04
00
00
0e
09
45
83
7e
00
00
00
00
00
00
00
ENDCHAR
STARTCHAR U642
ENCODING 1602
SWIDTH 512 0
DWIDTH 8 0
BBX 8 16 0 -2
BITMAP
00
00
12
00
00
0e
09
45
83
81
82
7c
00
00
00
00
ENDCHAR
STARTCHAR U643
ENCODING 1603
SWIDTH 512 0
DWIDTH 8 0
BBX 8 16 0 -2
BITMAP
00
01
09
11
09
41
81
81
7e
00
00
00
00
00
00
00
ENDCHAR
STARTCHAR U644
ENCODING 1604
SWIDTH 512 0
DWIDTH 8 0
BBX 8 16 0 -2
BITMAP
00
01
01
01
01
01
01
41
81
81
82
7c
00
00
00
00
ENDCHAR
STARTCHAR U645
ENCODING 1605
SWIDTH 512 0
DWIDTH 8 0
BBX 8 16 0 -2
BITMAP
00
00
00
00
0e
11
09
7f
80
80
40
40
20
20
00
00
ENDCHAR
STARTCHAR U646
ENCODING 1606
SWIDTH 512 0
DWIDTH 8 0
BBX 8 16 0 -2
BITMAP
00
00
00
08
00
00
02
41
81
81
82
7c
00
00
00
00
ENDCHAR
STARTCHAR U647
ENCODING 1607
SWIDTH 512 0
DWIDTH 8 0
BBX 8 16 0 -2
BITMAP
00
00
00
00
0c
12
11
11
0e
00
00
00
00
00
00
00
ENDCHAR
STARTCHAR U648
ENCODING 1608
SWIDTH 512 0
DWIDTH 8 0
BBX 8 16 0 -2
BITMAP
00
00
00
00
00
06
09
09
0f
01
02
44
38
00
00
00
ENDCHAR
STARTCHAR U649
ENCODING 1609
SWIDTH 512 0
DWIDTH 8 0
BBX 8 16 0 -2
BITMAP
00
00
00
00
00
06
09
08
46
81
81
82
7c
00
00
00
ENDCHAR
STARTCHAR U64a
ENCODING 1610
SWIDTH 512 0
DWIDTH 8 0
BBX 8 16 0 -2
BITMAP
00
00
00
00
00
06
09
08
46
81
81
82
7c
00
48
00
ENDCHAR
STARTCHAR U64b
ENCODING 1611
SWIDTH 512 0
DWIDTH 8 0
BBX 8 16 0 -2
BITMAP
0c
38
60
0c
38
60
00
00
00
00
00
00
00
00
00
00
ENDCHAR
STARTCHAR U64c
ENCODING 1612
SWIDTH 512 0
DWIDTH 8 0
BBX 8 16 0 -2
BITMAP
00
36
36
12
12
24
00
00
00
00
00
00
00
00
00
00
ENDCHAR
STARTCHAR U64d
ENCODING 1613
SWIDTH 512 0
DWIDTH 8 0
BBX 8 16 0 -2
BITMAP
00
00
00
00
00
00
00
00
00
0c
38
60
0c
38
60
00
ENDCHAR
STARTCHAR U64e
ENCODING 1614
SWIDTH 512 0
DWIDTH 8 0
BBX 8 16 0 -2
BITMAP
00
0c
38
60
00
00
00
00
00
00
00
00
00
00
00
00
ENDCHAR
STARTCHAR U64f
ENCODING 1615
SWIDTH 512 0
DWIDTH 8 0
BBX 8 16 0 -2
BITMAP
00
18
18
08
08
10
00
00
00
00
00
00
00
00
00
00
ENDCHAR
STARTCHAR U650
ENCODING 1616
SWIDTH 512 0
DWIDTH 8 0
BBX 8 16 0 -2
BITMAP
00
00
00
00
00
00
00
00
00
00
00
00
0c
38
60
00
ENDCHAR
STARTCHAR U651
ENCODING 1617
SWIDTH 512 0
DWIDTH 8 0
BBX 8 16 0 -2
BITMAP
22
49
36
00
00
00
00
00
00
00
00
00
00
00
00
00
ENDCHAR
STARTCHAR U652
ENCODING 1618
SWIDTH 512 0
DWIDTH 8 0
BBX 8 16 0 -2
BITMAP
00
00
00
00
06
09
11
12
0c
00
00
00
00
00
00
00
ENDCHAR
STARTCHAR Uc01
ENCODING 3073
SWIDTH 168 0
DWIDTH 7 0
BBX 5 9 0 0
BITMAP
38
40
80
80
80
80
80
60
18
ENDCHAR
STARTCHAR Uc02
ENCODING 3074
SWIDTH 264 0
DWIDTH 11 0
BBX 9 9 0 0
BITMAP
3e00
4100
8180
8080
8080
8080
8100
6200
1c00
ENDCHAR
STARTCHAR Uc03
ENCODING 3075
SWIDTH 144 0
DWIDTH 6 0
BBX 4 9 0 0
BITMAP
f0
90
90
60
00
60
90
90
f0
ENDCHAR
STARTCHAR Uc05
ENCODING 3077
SWIDTH 288 0
DWIDTH 12 0
BBX 12 9 0 0
BITMAP
71e0
9230
f210
8210
9f10
8020
4020
20c0
1f80
ENDCHAR
STARTCHAR Uc06
ENCODING 3078
SWIDTH 288 0
DWIDTH 12 0
BBX 12 9 0 0
BITMAP
71e0
9110
f190
8070
9ff0
8030
4020
20c0
1f00
ENDCHAR
STARTCHAR Uc07
ENCODING 3079
SWIDTH 216 0
DWIDTH 9 0
BBX 10 10 0 -1
BITMAP
6700
9880
9840
0040
0c40
3380
2180
2180
1ec0
00c0
ENDCHAR
STARTCHAR Uc08
ENCODING 3080
SWIDTH 288 0
DWIDTH 12 0
BBX 12 15 0 0
BITMAP
0100
0100
0200
0400
2400
1800
3c00
4260
4110
8130
fff0
8150
4120
2600
1800
ENDCHAR
STARTCHAR Uc09
ENCODING 3081
SWIDTH 216 0
DWIDTH 9 0
BBX 10 11 0 0
BITMAP
0400
0400
1c00
2000
4000
8000
ff00
8000
89c0
8d40
73c0
ENDCHAR
STARTCHAR Uc0a
ENCODING 3082
SWIDTH 288 0
DWIDTH 12 0
BBX 12 11 0 0
BITMAP
0a00
0a00
1e00
2000
4070
8010
fff0
8050
89f0
8d40
7380
ENDCHAR
STARTCHAR Uc0b
ENCODING 3083
SWIDTH 480 0
DWIDTH 20 0
BBX 20 9 0 0
BITMAP
e21040
920840
910820
210430
408410
888410
988630
954a20
6231c0
ENDCHAR
STARTCHAR Uc0c
ENCODING 3084
SWIDTH 312 0
DWIDTH 13 0
BBX 13 9 0 0
BITMAP
73d0
8c30
8428
0048
0088
0108
0118
0090
0060
ENDCHAR
STARTCHAR Uc0e
ENCODING 3086
SWIDTH 168 0
DWIDTH 7 0
BBX 7 9 0 0
BITMAP
30
08
04
02
02
42
a2
a2
5c
ENDCHAR
STARTCHAR Uc0f
ENCODING 3087
SWIDTH 168 0
DWIDTH 7 0
BBX 7 11 0 0
BITMAP
60
80
a0
98
04
02
02
02
e2
a2
fc
ENDCHAR
STARTCHAR Uc10
ENCODING 3088
SWIDTH 192 0
DWIDTH 8 0
BBX 8 9 0 0
BITMAP
fe
01
01
01
01
41
a1
b2
4c
ENDCHAR
STARTCHAR Uc12
ENCODING 3090
SWIDTH 216 0
DWIDTH 9 0
BBX 9 9 0 0
BITMAP
7000
8800
8800
1000
6000
8080
8880
9c80
6300
ENDCHAR
STARTCHAR Uc13
ENCODING 3091
SWIDTH 216 0
DWIDTH 9 0
BBX 9 12 0 0
BITMAP
2000
2000
2000
7000
8800
8800
1000
6000
8080
8880
9c80
6300
ENDCHAR
STARTCHAR Uc14
ENCODING 3092
SWIDTH 288 0
DWIDTH 12 0
BBX 12 13 0 0
BITMAP
7ff0
0250
0220
0400
7800
8800
8800
1000
6000
8080
8880
9c80
6300
ENDCHAR
STARTCHAR Uc15
ENCODING 3093
SWIDTH 168 0
DWIDTH 7 0
BBX 7 9 0 0
BITMAP
7c
82
80
c0
3c
02
82
66
18
ENDCHAR
STARTCHAR Uc16
ENCODING 3094
SWIDTH 216 0
DWIDTH 9 0
BBX 9 11 0 -2
BITMAP
f200
a900
4980
0480
0480
6480
9880
9900
7600
1000
0000
ENDCHAR
STARTCHAR Uc17
ENCODING 3095
SWIDTH 168 0
DWIDTH 7 0
BBX 7 9 0 0
BITMAP
38
44
82
82
82
82
82
82
00
ENDCHAR
STARTCHAR Uc18
ENCODING 3096
SWIDTH 336 0
DWIDTH 14 0
BBX 14 11 0 -2
BITMAP
0010
0208
0108
0104
0084
4084
a184
b348
6c30
2000
0000
ENDCHAR
STARTCHAR Uc19
ENCODING 3097
SWIDTH 216 0
DWIDTH 9 0
BBX 9 9 0 0
BITMAP
7200
8a00
8f00
1000
6000
8080
8880
9c80
6300
ENDCHAR
STARTCHAR Uc1a
ENCODING 3098
SWIDTH 264 0
DWIDTH 11 0
BBX 11 9 0 0
BITMAP
0700
0080
0040
0060
e020
4020
4420
4a40
3180
ENDCHAR
STARTCHAR Uc1b
ENCODING 3099
SWIDTH 264 0
DWIDTH 11 0
BBX 11 11 0 -2
BITMAP
0700
0080
0040
0060
e020
4020
4420
4e40
3580
0400
0000
ENDCHAR
STARTCHAR Uc1c
ENCODING 3100
SWIDTH 216 0
DWIDTH 9 0
BBX 9 9 0 0
BITMAP
7100
8880
8f00
1000
6000
8080
8880
9c80
6300
ENDCHAR
STARTCHAR Uc1d
ENCODING 3101
SWIDTH 432 0
DWIDTH 18 0
BBX 19 11 0 -2
BITMAP
3c2100
421080
821040
810860
810820
810820
830860
649c40
186b80
000800
000000
ENDCHAR
STARTCHAR Uc1e
ENCODING 3102
SWIDTH 312 0
DWIDTH 13 0
BBX 14 10 0 -1
BITMAP
6700
9890
9850
007c
0c40
3380
2180
2180
1e80
0080
ENDCHAR
STARTCHAR Uc1f
ENCODING 3103
SWIDTH 288 0
DWIDTH 12 0
BBX 12 11 0 0
BITMAP
1000
1000
1040
2820
4820
b010
8010
8010
8610
8610
79e0
ENDCHAR
STARTCHAR Uc20
ENCODING 3104
SWIDTH 168 0
DWIDTH 7 0
BBX 8 9 0 0
BITMAP
3c
42
83
99
99
81
82
64
18
ENDCHAR
STARTCHAR Uc21
ENCODING 3105
SWIDTH 216 0
DWIDTH 9 0
BBX 10 9 0 0
BITMAP
3c00
4000
4000
8000
8000
8180
8d40
9440
6380
ENDCHAR
STARTCHAR Uc22
ENCODING 3106
SWIDTH 216 0
DWIDTH 9 0
BBX 10 11 0 -2
BITMAP
3c00
4000
4000
8000
8000
8180
8d40
9c40
6b80
0800
0000
ENDCHAR
STARTCHAR Uc23
ENCODING 3107
SWIDTH 288 0
DWIDTH 12 0
BBX 12 9 0 0
BITMAP
73c0
8c20
8420
8010
4010
8010
8110
82a0
71c0
ENDCHAR
STARTCHAR Uc24
ENCODING 3108
SWIDTH 216 0
DWIDTH 9 0
BBX 10 9 0 0
BITMAP
0700
0080
0040
e1c0
a240
c1c0
80c0
6300
1c00
ENDCHAR
STARTCHAR Uc25
ENCODING 3109
SWIDTH 264 0
DWIDTH 11 0
BBX 11 11 0 -2
BITMAP
3f00
6080
8440
8e60
8c20
8020
8c60
4e40
3580
0400
0000
ENDCHAR
STARTCHAR Uc26
ENCODING 3110
SWIDTH 264 0
DWIDTH 11 0
BBX 11 9 0 0
BITMAP
3f00
6080
8040
8060
8020
8020
8c60
4a40
3180
ENDCHAR
STARTCHAR Uc27
ENCODING 3111
SWIDTH 264 0
DWIDTH 11 0
BBX 11 11 0 -2
BITMAP
3f00
6080
8040
8060
8020
8020
8c60
4e40
3580
0400
0000
ENDCHAR
STARTCHAR Uc28
ENCODING 3112
SWIDTH 216 0
DWIDTH 9 0
BBX 9 9 0 0
BITMAP
0c00
0200
0100
0180
0080
7080
8880
8900
0600
ENDCHAR
STARTCHAR Uc2a
ENCODING 3114
SWIDTH 216 0
DWIDTH 9 0
BBX 9 8 0 0
BITMAP
0200
0100
0180
0080
4080
a180
b300
4c00
ENDCHAR
STARTCHAR Uc2b
ENCODING 3115
SWIDTH 216 0
DWIDTH 9 0
BBX 9 10 0 -2
BITMAP
0200
0100
0180
0080
4080
a180
b300
6c00
2000
0000
ENDCHAR
STARTCHAR Uc2c
ENCODING 3116
SWIDTH 216 0
DWIDTH 9 0
BBX 9 9 0 0
BITMAP
e200
9200
9100
2180
4080
8880
9880
9500
6200
ENDCHAR
STARTCHAR Uc2d
ENCODING 3117
SWIDTH 216 0
DWIDTH 9 0
BBX 9 11 0 -2
BITMAP
e200
9200
9100
2180
4080
8880
9880
9d00
6a00
0800
0000
ENDCHAR
STARTCHAR Uc2e
ENCODING 3118
SWIDTH 336 0
DWIDTH 14 0
BBX 14 9 0 0
BITMAP
1c10
0208
0108
0104
0084
4084
a184
b348
4c30
ENDCHAR
STARTCHAR Uc2f
ENCODING 3119
SWIDTH 408 0
DWIDTH 17 0
BBX 17 9 0 0
BITMAP
078200
384100
442100
822080
821080
821080
831080
452900
38c600
ENDCHAR
STARTCHAR Uc30
ENCODING 3120
SWIDTH 168 0
DWIDTH 7 0
BBX 8 9 0 0
BITMAP
3c
42
83
81
81
81
82
64
18
ENDCHAR
STARTCHAR Uc31
ENCODING 3121
SWIDTH 288 0
DWIDTH 12 0
BBX 12 9 0 0
BITMAP
10c0
2920
4920
b090
9f90
8010
8610
8610
79e0
ENDCHAR
STARTCHAR Uc32
ENCODING 3122
SWIDTH 264 0
DWIDTH 11 0
BBX 11 9 0 0
BITMAP
3880
4840
c820
b020
8020
8060
4040
3180
0e00
ENDCHAR
STARTCHAR Uc33
ENCODING 3123
SWIDTH 168 0
DWIDTH 7 0
BBX 7 9 0 0
BITMAP
1c
02
e2
a2
a2
7c
38
28
38
ENDCHAR
STARTCHAR Uc35
ENCODING 3125
SWIDTH 216 0
DWIDTH 9 0
BBX 9 9 0 0
BITMAP
1c00
0200
0100
0180
0080
4080
a180
b300
4c00
ENDCHAR
STARTCHAR Uc36
ENCODING 3126
SWIDTH 144 0
DWIDTH 6 0
BBX 6 9 0 0
BITMAP
18
04
f4
94
0c
78
90
90
60
ENDCHAR
STARTCHAR Uc37
ENCODING 3127
SWIDTH 264 0
DWIDTH 11 0
BBX 11 10 0 -2
BITMAP
0200
0100
0100
0080
4080
a180
b380
4c80
0080
0060
ENDCHAR
STARTCHAR Uc38
ENCODING 3128
SWIDTH 216 0
DWIDTH 9 0
BBX 9 8 0 0
BITMAP
0200
0100
0180
0080
7080
8880
8900
0600
ENDCHAR
STARTCHAR Uc39
ENCODING 3129
SWIDTH 312 0
DWIDTH 13 0
BBX 13 9 0 0
BITMAP
07f8
0228
0110
0100
0080
4080
a100
b300
4c00
ENDCHAR
STARTCHAR Uc3e
ENCODING 3134
SWIDTH 240 0
DWIDTH 10 0
BBX 10 3 0 6
BITMAP
ffc0
0140
0080
ENDCHAR
STARTCHAR Uc3f
ENCODING 3135
SWIDTH 120 0
DWIDTH 5 0
BBX 5 6 0 8
BITMAP
e0
98
c8
08
98
60
ENDCHAR
STARTCHAR Uc40
ENCODING 3136
SWIDTH 120 0
DWIDTH 5 0
BBX 5 9 0 8
BITMAP
38
28
20
e0
90
c8
08
90
60
ENDCHAR
STARTCHAR Uc42
ENCODING 3138
SWIDTH 264 0
DWIDTH 11 0
BBX 11 9 0 0
BITMAP
1fe0
08a0
0840
0400
0400
0400
8400
4800
3000
ENDCHAR
STARTCHAR Uc43
ENCODING 3139
SWIDTH 240 0
DWIDTH 10 0
BBX 7 13 2 -4
BITMAP
10
08
04
04
02
02
02
02
72
92
b4
88
70
ENDCHAR
STARTCHAR Uc44
ENCODING 3140
SWIDTH 336 0
DWIDTH 14 0
BBX 12 13 2 -4
BITMAP
1ff0
0850
0420
0400
0200
0200
0200
0200
7200
9200
b400
8800
7000
ENDCHAR
STARTCHAR Uc46
ENCODING 3142
SWIDTH 192 0
DWIDTH 8 0
BBX 8 5 0 8
BITMAP
fe
01
01
01
06
ENDCHAR
STARTCHAR Uc47
ENCODING 3143
SWIDTH 216 0
DWIDTH 9 0
BBX 9 8 0 8
BITMAP
0380
0480
0400
fe00
0100
0100
0100
0600
ENDCHAR
STARTCHAR Uc4a
ENCODING 3146
SWIDTH 216 0
DWIDTH 9 0
BBX 9 5 0 8
BITMAP
4f80
b280
8380
8000
4000
ENDCHAR
STARTCHAR Uc4b
ENCODING 3147
SWIDTH 264 0
DWIDTH 11 0
BBX 11 6 0 9
BITMAP
01e0
0f20
f280
9280
8100
4000
ENDCHAR
STARTCHAR Uc4c
ENCODING 3148
SWIDTH 288 0
DWIDTH 12 0
BBX 13 5 -1 8
BITMAP
fff8
0428
0410
0800
7000
ENDCHAR
STARTCHAR Uc4d
ENCODING 3149
SWIDTH 192 0
DWIDTH 8 0
BBX 8 7 0 8
BITMAP
ff
80
f0
80
80
80
60
ENDCHAR
STARTCHAR Uc55
ENCODING 3157
SWIDTH 72 0
DWIDTH 3 0
BBX 3 4 0 11
BITMAP
60
a0
80
80
ENDCHAR
STARTCHAR Uc56
ENCODING 3158
SWIDTH 192 0
DWIDTH 8 0
BBX 8 3 0 -4
BITMAP
c0
a0
ff
ENDCHAR
STARTCHAR Uc60
ENCODING 3168
SWIDTH 600 0
DWIDTH 25 0
BBX 25 9 0 0
BITMAP
e2107f80
92084280
91082100
21042000
40841000
88841000
98862000
954a2000
6231c000
ENDCHAR
STARTCHAR Uc61
ENCODING 3169
SWIDTH 480 0
DWIDTH 20 0
BBX 20 9 0 0
BITMAP
73dff0
8c3050
842820
004800
008800
010800
011000
009000
006000
ENDCHAR
STARTCHAR Uc66
ENCODING 3174
SWIDTH 264 0
DWIDTH 11 0
BBX 9 9 0 0
BITMAP
3e00
4100
8180
8080
8080
8080
8100
6200
1c00
ENDCHAR
STARTCHAR Uc67
ENCODING 3175
SWIDTH 312 0
DWIDTH 13 0
BBX 10 9 0 0
BITMAP
3f00
4080
8040
8040
8040
8040
8040
4080
0000
ENDCHAR
STARTCHAR Uc68
ENCODING 3176
SWIDTH 264 0
DWIDTH 11 0
BBX 9 9 0 0
BITMAP
0e00
0d00
0c80
0080
0080
0180
0100
0200
fc00
ENDCHAR
STARTCHAR Uc69
ENCODING 3177
SWIDTH 216 0
DWIDTH 9 0
BBX 7 9 0 0
BITMAP
3c
c2
02
06
3c
02
82
66
18
ENDCHAR
STARTCHAR Uc6a
ENCODING 3178
SWIDTH 240 0
DWIDTH 10 0
BBX 8 9 0 0
BITMAP
42
81
81
81
82
7c
24
24
18
ENDCHAR
STARTCHAR Uc6b
ENCODING 3179
SWIDTH 312 0
DWIDTH 13 0
BBX 10 9 0 0
BITMAP
79c0
8540
0240
0380
0300
0200
ce40
3240
0180
ENDCHAR
STARTCHAR Uc6c
ENCODING 3180
SWIDTH 264 0
DWIDTH 11 0
BBX 9 9 0 0
BITMAP
4000
8000
8000
8000
6000
8000
8000
8000
7f80
ENDCHAR
STARTCHAR Uc6d
ENCODING 3181
SWIDTH 216 0
DWIDTH 9 0
BBX 7 9 0 0
BITMAP
7c
82
02
06
78
80
82
8c
70
ENDCHAR
STARTCHAR Uc6e
ENCODING 3182
SWIDTH 312 0
DWIDTH 13 0
BBX 10 9 0 0
BITMAP
3fc0
1000
1000
5000
8800
8800
8800
9000
6000
ENDCHAR
STARTCHAR Uc6f
ENCODING 3183
SWIDTH 264 0
DWIDTH 11 0
BBX 9 9 0 0
BITMAP
7f80
8000
8000
8000
6000
8000
8000
8000
4000
ENDCHAR
STARTCHAR Ud02
ENCODING 3330
SWIDTH 120 0
DWIDTH 6 0
BBX 5 5 0 -1
BITMAP
70
98
98
f0
00
ENDCHAR
STARTCHAR Ud03
ENCODING 3331
SWIDTH 100 0
DWIDTH 5 0
BBX 3 7 0 0
BITMAP
e0
a0
e0
40
a0
a0
40
ENDCHAR
STARTCHAR Ud05
ENCODING 3333
SWIDTH 300 0
DWIDTH 15 0
BBX 14 7 0 0
BITMAP
7e70
5998
a51c
b92c
a52c
d528
0810
ENDCHAR
STARTCHAR Ud06
ENCODING 3334
SWIDTH 340 0
DWIDTH 17 0
BBX 16 9 0 -2
BITMAP
7e70
5988
a53e
b92a
a52b
d52b
0812
0016
0008
ENDCHAR
STARTCHAR Ud07
ENCODING 3335
SWIDTH 240 0
DWIDTH 12 0
BBX 11 10 0 -3
BITMAP
7b80
8c40
e440
9460
9440
5440
2080
7f00
c000
7fe0
ENDCHAR
STARTCHAR Ud09
ENCODING 3337
SWIDTH 180 0
DWIDTH 9 0
BBX 8 10 0 -3
BITMAP
38
c6
e2
93
93
52
26
f8
80
7f
ENDCHAR
STARTCHAR Ud0b
ENCODING 3339
SWIDTH 200 0
DWIDTH 10 0
BBX 9 12 0 -5
BITMAP
6300
9480
9480
f780
8080
6300
7f00
8080
8080
8080
7f00
0000
ENDCHAR
STARTCHAR Ud0c
ENCODING 3340
SWIDTH 240 0
DWIDTH 12 0
BBX 11 7 0 0
BITMAP
7bc0
8e60
e4a0
94a0
94a0
54e0
2000
ENDCHAR
STARTCHAR Ud0e
ENCODING 3342
SWIDTH 300 0
DWIDTH 15 0
BBX 14 10 0 -3
BITMAP
00f0
0150
7148
8a4c
8a4c
8a4c
1fcc
0248
0150
00a0
ENDCHAR
STARTCHAR Ud0f
ENCODING 3343
SWIDTH 300 0
DWIDTH 15 0
BBX 14 10 0 -3
BITMAP
00f0
0148
714c
8a4c
8a48
8a58
1ff8
024c
0158
00b0
ENDCHAR
STARTCHAR Ud12
ENCODING 3346
SWIDTH 180 0
DWIDTH 9 0
BBX 8 7 0 0
BITMAP
38
c4
e4
96
93
52
24
ENDCHAR
STARTCHAR Ud15
ENCODING 3349
SWIDTH 240 0
DWIDTH 12 0
BBX 11 7 0 0
BITMAP
0c00
1200
1300
ffc0
9260
ba40
6480
ENDCHAR
STARTCHAR Ud16
ENCODING 3350
SWIDTH 240 0
DWIDTH 12 0
BBX 11 7 0 0
BITMAP
3820
4420
a220
d220
9220
9420
67e0
ENDCHAR
STARTCHAR Ud17
ENCODING 3351
SWIDTH 240 0
DWIDTH 12 0
BBX 11 7 0 0
BITMAP
6380
4440
8460
8460
8840
58c0
3100
ENDCHAR
STARTCHAR Ud18
ENCODING 3352
SWIDTH 340 0
DWIDTH 17 0
BBX 16 7 0 0
BITMAP
71c1
9221
9211
dff1
0401
0601
03ff
ENDCHAR
STARTCHAR Ud19
ENCODING 3353
SWIDTH 240 0
DWIDTH 12 0
BBX 11 7 0 0
BITMAP
7bc0
4e20
a460
d5c0
9420
9420
65c0
ENDCHAR
STARTCHAR Ud1a
ENCODING 3354
SWIDTH 260 0
DWIDTH 13 0
BBX 12 7 0 0
BITMAP
0010
0010
3810
4410
4410
0c30
fff0
ENDCHAR
STARTCHAR Ud1b
ENCODING 3355
SWIDTH 320 0
DWIDTH 16 0
BBX 15 7 0 0
BITMAP
0078
008c
388e
4496
4496
0c94
ff88
ENDCHAR
STARTCHAR Ud1c
ENCODING 3356
SWIDTH 200 0
DWIDTH 10 0
BBX 9 9 0 -2
BITMAP
7700
c980
a880
e900
0600
7800
8700
db80
6000
ENDCHAR
STARTCHAR Ud1d
ENCODING 3357
SWIDTH 380 0
DWIDTH 19 0
BBX 18 7 0 0
BITMAP
3f0880
4c8840
928840
928840
928c40
d45e80
083300
ENDCHAR
STARTCHAR Ud1e
ENCODING 3358
SWIDTH 320 0
DWIDTH 16 0
BBX 15 7 0 0
BITMAP
7bf8
8ea4
e4a6
9496
9496
54a4
2040
ENDCHAR
STARTCHAR Ud1f
ENCODING 3359
SWIDTH 140 0
DWIDTH 7 0
BBX 6 7 0 0
BITMAP
7c
80
80
7c
04
cc
70
ENDCHAR
STARTCHAR Ud20
ENCODING 3360
SWIDTH 160 0
DWIDTH 8 0
BBX 7 7 0 0
BITMAP
38
44
82
82
86
6c
30
ENDCHAR
STARTCHAR Ud21
ENCODING 3361
SWIDTH 300 0
DWIDTH 15 0
BBX 14 7 0 0
BITMAP
7088
888c
8884
8884
8884
c5c8
0230
ENDCHAR
STARTCHAR Ud22
ENCODING 3362
SWIDTH 300 0
DWIDTH 15 0
BBX 14 7 0 0
BITMAP
7098
8894
8894
8894
888c
c5c8
0230
ENDCHAR
STARTCHAR Ud23
ENCODING 3363
SWIDTH 340 0
DWIDTH 17 0
BBX 16 7 0 0
BITMAP
7b9c
8c62
e423
9421
9423
5422
2000
ENDCHAR
STARTCHAR Ud24
ENCODING 3364
SWIDTH 220 0
DWIDTH 11 0
BBX 10 7 0 0
BITMAP
3f00
4c80
92c0
9240
92c0
d480
0800
ENDCHAR
STARTCHAR Ud25
ENCODING 3365
SWIDTH 240 0
DWIDTH 12 0
BBX 11 7 0 0
BITMAP
8380
8440
8460
8460
8460
8c60
ffc0
ENDCHAR
STARTCHAR Ud26
ENCODING 3366
SWIDTH 140 0
DWIDTH 7 0
BBX 6 7 0 0
BITMAP
78
44
84
b8
84
ac
38
ENDCHAR
STARTCHAR Ud27
ENCODING 3367
SWIDTH 240 0
DWIDTH 12 0
BBX 11 7 0 0
BITMAP
4480
8440
8460
8460
8c40
5ec0
3100
ENDCHAR
STARTCHAR Ud28
ENCODING 3368
SWIDTH 240 0
DWIDTH 12 0
BBX 11 7 0 0
BITMAP
7380
8c40
8460
8460
8440
c440
0000
ENDCHAR
STARTCHAR Ud2a
ENCODING 3370
SWIDTH 260 0
DWIDTH 13 0
BBX 12 7 0 0
BITMAP
0010
0010
7010
8810
8810
8830
1ff0
ENDCHAR
STARTCHAR Ud2b
ENCODING 3371
SWIDTH 280 0
DWIDTH 14 0
BBX 13 7 0 0
BITMAP
00e0
0110
7108
8908
8908
8918
1ff8
ENDCHAR
STARTCHAR Ud2c
ENCODING 3372
SWIDTH 320 0
DWIDTH 16 0
BBX 15 7 0 0
BITMAP
7b86
8c46
e446
9446
9446
5446
207c
ENDCHAR
STARTCHAR Ud2d
ENCODING 3373
SWIDTH 160 0
DWIDTH 8 0
BBX 7 7 0 0
BITMAP
3c
46
bc
a0
9e
a6
3c
ENDCHAR
STARTCHAR Ud2e
ENCODING 3374
SWIDTH 160 0
DWIDTH 8 0
BBX 7 7 0 0
BITMAP
38
54
92
92
92
e2
fe
ENDCHAR
STARTCHAR Ud2f
ENCODING 3375
SWIDTH 240 0
DWIDTH 12 0
BBX 11 7 0 0
BITMAP
6e80
9140
9160
9960
8a40
6e80
1b00
ENDCHAR
STARTCHAR Ud30
ENCODING 3376
SWIDTH 160 0
DWIDTH 8 0
BBX 7 7 0 0
BITMAP
38
44
8a
8a
92
de
08
ENDCHAR
STARTCHAR Ud31
ENCODING 3377
SWIDTH 160 0
DWIDTH 8 0
BBX 7 7 0 0
BITMAP
38
44
82
82
82
86
44
ENDCHAR
STARTCHAR Ud32
ENCODING 3378
SWIDTH 240 0
DWIDTH 12 0
BBX 11 7 0 0
BITMAP
7860
4860
8460
fc60
8060
8060
ffc0
ENDCHAR
STARTCHAR Ud33
ENCODING 3379
SWIDTH 180 0
DWIDTH 9 0
BBX 8 10 0 -3
BITMAP
38
44
e4
94
92
52
26
fc
80
7f
ENDCHAR
STARTCHAR Ud34
ENCODING 3380
SWIDTH 180 0
DWIDTH 9 0
BBX 8 7 0 0
BITMAP
4e
9b
93
6e
38
08
70
ENDCHAR
STARTCHAR Ud35
ENCODING 3381
SWIDTH 240 0
DWIDTH 12 0
BBX 11 7 0 0
BITMAP
3820
4420
8220
8220
8220
c620
07e0
ENDCHAR
STARTCHAR Ud36
ENCODING 3382
SWIDTH 240 0
DWIDTH 12 0
BBX 11 7 0 0
BITMAP
6380
44c0
84e0
8560
8960
5940
3080
ENDCHAR
STARTCHAR Ud37
ENCODING 3383
SWIDTH 280 0
DWIDTH 14 0
BBX 13 7 0 0
BITMAP
0318
04f8
7388
8888
8888
8998
1ff8
ENDCHAR
STARTCHAR Ud38
ENCODING 3384
SWIDTH 300 0
DWIDTH 15 0
BBX 14 7 0 0
BITMAP
7388
8c8c
8444
8444
8444
c468
0010
ENDCHAR
STARTCHAR Ud39
ENCODING 3385
SWIDTH 300 0
DWIDTH 15 0
BBX 14 7 0 0
BITMAP
00f0
0108
730c
8a0c
8908
8908
1f00
ENDCHAR
STARTCHAR Ud3e
ENCODING 3390
SWIDTH 120 0
DWIDTH 6 0
BBX 5 7 0 0
BITMAP
70
88
08
08
08
d0
20
ENDCHAR
STARTCHAR Ud3f
ENCODING 3391
SWIDTH 60 0
DWIDTH 3 0
BBX 5 10 -2 0
BITMAP
70
88
08
08
08
08
08
08
08
00
ENDCHAR
STARTCHAR Ud40
ENCODING 3392
SWIDTH 100 0
DWIDTH 5 0
BBX 5 10 -1 0
BITMAP
70
b8
e8
08
08
08
08
08
08
08
ENDCHAR
STARTCHAR Ud41
ENCODING 3393
SWIDTH 100 0
DWIDTH 5 0
BBX 3 3 0 -2
BITMAP
e0
a0
e0
ENDCHAR
STARTCHAR Ud42
ENCODING 3394
SWIDTH 100 0
DWIDTH 5 0
BBX 4 4 0 -3
BITMAP
e0
f0
f0
60
ENDCHAR
STARTCHAR Ud43
ENCODING 3395
SWIDTH 160 0
DWIDTH 8 0
BBX 7 4 0 -3
BITMAP
02
72
8c
f8
ENDCHAR
STARTCHAR Ud44
ENCODING 3396
SWIDTH 160 0
DWIDTH 8 0
BBX 7 5 0 -4
BITMAP
02
da
a4
f8
00
ENDCHAR
STARTCHAR Ud46
ENCODING 3398
SWIDTH 160 0
DWIDTH 8 0
BBX 7 7 0 0
BITMAP
38
44
a2
d2
92
96
64
ENDCHAR
STARTCHAR Ud47
ENCODING 3399
SWIDTH 140 0
DWIDTH 7 0
BBX 6 7 0 0
BITMAP
78
5c
9c
80
9c
5c
38
ENDCHAR
STARTCHAR Ud4d
ENCODING 3405
SWIDTH 100 0
DWIDTH 5 0
BBX 4 3 0 5
BITMAP
90
e0
00
ENDCHAR
STARTCHAR Ud57
ENCODING 3415
SWIDTH 160 0
DWIDTH 8 0
BBX 7 7 0 0
BITMAP
6c
92
92
92
02
04
18
ENDCHAR
STARTCHAR Ud60
ENCODING 3424
SWIDTH 200 0
DWIDTH 10 0
BBX 9 12 0 -5
BITMAP
6300
9480
9480
f780
8080
6300
7f00
be80
aa80
aa80
7f00
0000
ENDCHAR
STARTCHAR Ud61
ENCODING 3425
SWIDTH 280 0
DWIDTH 14 0
BBX 13 9 0 -2
BITMAP
7bc0
8e60
e4f0
94a8
9528
54c8
2008
0090
0060
ENDCHAR
STARTCHAR Ud66
ENCODING 3430
SWIDTH 240 0
DWIDTH 12 0
BBX 11 7 0 0
BITMAP
3fc0
4000
f000
8800
8800
5800
2000
ENDCHAR
STARTCHAR Ud67
ENCODING 3431
SWIDTH 240 0
DWIDTH 12 0
BBX 11 9 0 -2
BITMAP
0380
0440
0460
0460
0460
0c60
ffc0
8000
6000
ENDCHAR
STARTCHAR Ud68
ENCODING 3432
SWIDTH 240 0
DWIDTH 12 0
BBX 11 7 0 0
BITMAP
3800
4400
8200
8200
8200
c600
07e0
ENDCHAR
STARTCHAR Ud69
ENCODING 3433
SWIDTH 320 0
DWIDTH 16 0
BBX 15 7 0 0
BITMAP
7380
8c40
8440
8440
8440
c440
007c
ENDCHAR
STARTCHAR Ud6a
ENCODING 3434
SWIDTH 200 0
DWIDTH 10 0
BBX 9 9 0 0
BITMAP
0300
0080
3180
6d00
8600
8a00
9200
9200
4c00
ENDCHAR
STARTCHAR Ud6b
ENCODING 3435
SWIDTH 200 0
DWIDTH 10 0
BBX 9 10 0 -2
BITMAP
3e00
4100
de80
a280
a680
ae80
a280
4380
6200
3c00
ENDCHAR
STARTCHAR Ud6c
ENCODING 3436
SWIDTH 320 0
DWIDTH 16 0
BBX 15 9 0 -2
BITMAP
739c
8c62
8442
8442
8442
4442
0004
000c
0070
ENDCHAR
STARTCHAR Ud6d
ENCODING 3437
SWIDTH 220 0
DWIDTH 11 0
BBX 10 7 0 0
BITMAP
3c00
c300
9d00
a280
a2c0
7440
3840
ENDCHAR
STARTCHAR Ud6e
ENCODING 3438
SWIDTH 240 0
DWIDTH 12 0
BBX 11 10 0 -3
BITMAP
3820
4420
8220
8220
8220
c620
07e0
0060
00c0
0700
ENDCHAR
STARTCHAR Ud6f
ENCODING 3439
SWIDTH 240 0
DWIDTH 12 0
BBX 11 9 0 0
BITMAP
0380
0080
3180
5fc0
8d40
8560
8560
8540
45c0
ENDCHAR
STARTCHAR Ue01
ENCODING 3585
SWIDTH 360 0
DWIDTH 15 0
BBX 11 17 2 0
BITMAP
1f00
00c0
0060
f060
f060
c060
c060
c060
c060
c060
c060
c060
c060
c060
c060
c060
c060
ENDCHAR
STARTCHAR Ue02
ENCODING 3586
SWIDTH 360 0
DWIDTH 15 0
BBX 11 17 2 0
BITMAP
3860
7c60
f660
fe60
de60
fe60
7660
0660
0660
0660
0660
0660
0660
0660
0660
0240
0180
ENDCHAR
STARTCHAR Ue03
ENCODING 3587
SWIDTH 408 0
DWIDTH 17 0
BBX 13 17 2 0
BITMAP
6618
f718
dd98
c998
f198
f998
d998
7198
0198
0198
0198
0198
0198
0198
0198
0090
0060
ENDCHAR
STARTCHAR Ue04
ENCODING 3588
SWIDTH 360 0
DWIDTH 15 0
BBX 11 17 2 0
BITMAP
3f80
7fc0
e0e0
c060
c060
f060
e860
6860
7060
6060
6060
6060
6060
6060
6060
6060
6060
ENDCHAR
STARTCHAR Ue05
ENCODING 3589
SWIDTH 360 0
DWIDTH 15 0
BBX 11 17 2 0
BITMAP
3180
7fc0
ce60
c060
c060
f060
e860
6860
7060
6060
6060
6060
6060
6060
6060
6060
6060
ENDCHAR
STARTCHAR Ue06
ENCODING 3590
SWIDTH 504 0
DWIDTH 21 0
BBX 17 17 2 0
BITMAP
660180
f70180
dd8180
c98180
f18180
f98180
d98180
718180
018180
018180
018180
018180
018180
07e180
0dbd80
0f8780
070180
ENDCHAR
STARTCHAR Ue07
ENCODING 3591
SWIDTH 216 0
DWIDTH 9 0
BBX 5 17 2 0
BITMAP
70
f8
d8
f8
78
18
18
18
98
98
58
58
38
38
38
18
18
ENDCHAR
STARTCHAR Ue08
ENCODING 3592
SWIDTH 312 0
DWIDTH 13 0
BBX 9 17 2 0
BITMAP
1e00
3f00
4380
c180
8180
3180
7980
5980
7980
3980
0980
0980
0980
0980
0980
0980
0700
ENDCHAR
STARTCHAR Ue09
ENCODING 3593
SWIDTH 456 0
DWIDTH 19 0
BBX 15 17 2 0
BITMAP
0f00
3fc0
6060
c030
8030
0030
3030
5830
7830
3830
0830
0830
0830
08fc
0bf6
0e3e
081c
ENDCHAR
STARTCHAR Ue0a
ENCODING 3594
SWIDTH 360 0
DWIDTH 15 0
BBX 11 19 2 0
BITMAP
0060
0060
3860
7c60
f7c0
fec0
dec0
fec0
76c0
06c0
06c0
06c0
06c0
06c0
06c0
06c0
06c0
0ec0
0f80
ENDCHAR
STARTCHAR Ue0b
ENCODING 3595
SWIDTH 408 0
DWIDTH 17 0
BBX 13 19 2 0
BITMAP
0018
0018
6618
f718
ddf0
c9b0
f1b0
f9b0
d9b0
71b0
01b0
01b0
01b0
01b0
01b0
01b0
01b0
03b0
03e0
ENDCHAR
STARTCHAR Ue0c
ENCODING 3596
SWIDTH 576 0
DWIDTH 24 0
BBX 20 17 2 0
BITMAP
0f8030
206030
403030
f83030
f83030
403030
403030
403030
403030
403030
403030
403030
403030
70fc30
69b7b0
79f0f0
30e030
ENDCHAR
STARTCHAR Ue0d
ENCODING 3597
SWIDTH 480 0
DWIDTH 20 0
BBX 16 26 2 -9
BITMAP
3f03
6083
c043
f043
f043
4043
4043
4043
4043
4043
4043
4043
4043
7043
6843
7822
301c
0000
0000
0023
0073
0063
0063
0022
003e
001c
ENDCHAR
STARTCHAR Ue0e
ENCODING 3598
SWIDTH 384 0
DWIDTH 16 0
BBX 12 26 2 -9
BITMAP
0fc0
1020
2010
3c10
3c10
3010
3010
3010
3010
3010
3010
3010
3010
7010
f010
b010
6010
0010
0010
0010
0010
0050
1fd0
21d0
3f30
1e10
ENDCHAR
STARTCHAR Ue0f
ENCODING 3599
SWIDTH 384 0
DWIDTH 16 0
BBX 12 26 2 -9
BITMAP
0fc0
1020
2010
3c10
3c10
3010
3010
3010
3010
3010
3010
3010
3010
7010
f010
b010
6010
0010
0010
0010
0010
0210
7ef0
8ff0
ff30
7a10
ENDCHAR
STARTCHAR Ue10
ENCODING 3600
SWIDTH 264 0
DWIDTH 11 0
BBX 7 26 2 -9
BITMAP
3e
42
40
80
fc
fe
62
f2
b2
f2
72
32
32
32
32
32
1c
00
00
0c
1e
1e
1e
7e
fe
72
ENDCHAR
STARTCHAR Ue11
ENCODING 3601
SWIDTH 504 0
DWIDTH 21 0
BBX 17 17 2 0
BITMAP
660e00
f71f00
ddb380
c9a180
f1e180
f9c180
d9c180
71c180
01c180
018180
018180
018180
018180
018180
018180
018180
018180
ENDCHAR
STARTCHAR Ue12
ENCODING 3602
SWIDTH 576 0
DWIDTH 24 0
BBX 20 17 2 0
BITMAP
30c030
79e030
c63030
c03030
c03030
c63030
cf3030
cb3030
cf3030
c63030
cc3030
d83030
d83030
f0fc30
e1b7b0
c1f0f0
c0e030
ENDCHAR
STARTCHAR Ue13
ENCODING 3603
SWIDTH 576 0
DWIDTH 24 0
BBX 20 17 2 0
BITMAP
3f0180
618180
c0c180
f0c180
f0c180
40c180
40c180
40c180
40c180
40c180
40c180
40c180
40c180
70c7e0
68dfb0
78f1f0
30c0e0
ENDCHAR
STARTCHAR Ue14
ENCODING 3604
SWIDTH 360 0
DWIDTH 15 0
BBX 11 17 2 0
BITMAP
3f80
7fc0
e060
c020
ce20
df20
db20
df20
ce20
ce20
cc20
d820
f020
f020
e020
c020
c020
ENDCHAR
STARTCHAR Ue15
ENCODING 3605
SWIDTH 360 0
DWIDTH 15 0
BBX 11 17 2 0
BITMAP
3180
7bc0
c620
c020
c020
ce20
df20
db20
df20
ce20
cc20
d820
d020
f020
e020
c020
c020
ENDCHAR
STARTCHAR Ue16
ENCODING 3606
SWIDTH 360 0
DWIDTH 15 0
BBX 11 17 2 0
BITMAP
1f00
20c0
4060
f860
f860
4060
4060
4060
4060
4060
4060
4060
4060
7060
6860
7860
3060
ENDCHAR
STARTCHAR Ue17
ENCODING 3607
SWIDTH 456 0
DWIDTH 19 0
BBX 15 17 2 0
BITMAP
3878
7cfc
f7ce
ff86
df86
ff06
7706
0706
0706
0606
0606
0606
0606
0606
0606
0606
0606
ENDCHAR
STARTCHAR Ue18
ENCODING 3608
SWIDTH 360 0
DWIDTH 15 0
BBX 11 17 2 0
BITMAP
1fe0
2020
4000
4000
ffc0
ffe0
2060
2020
2020
2020
2020
2020
2020
2020
2020
1040
0f80
ENDCHAR
STARTCHAR Ue19
ENCODING 3609
SWIDTH 432 0
DWIDTH 18 0
BBX 14 17 2 0
BITMAP
7060
f860
d860
f860
7860
1860
1860
1860
1860
1860
1860
1860
1860
19f8
1fec
1c7c
1838
ENDCHAR
STARTCHAR Ue1a
ENCODING 3610
SWIDTH 384 0
DWIDTH 16 0
BBX 12 17 2 0
BITMAP
7030
f830
d830
f830
7830
1830
1830
1830
1830
1830
1830
1830
1830
1830
1830
3820
3fc0
ENDCHAR
STARTCHAR Ue1b
ENCODING 3611
SWIDTH 384 0
DWIDTH 16 0
BBX 12 21 2 0
BITMAP
0030
0030
0030
0030
7030
f830
d830
f830
7830
1830
1830
1830
1830
1830
1830
1830
1830
1830
1830
3820
3fc0
ENDCHAR
STARTCHAR Ue1c
ENCODING 3612
SWIDTH 336 0
DWIDTH 14 0
BBX 10 17 2 0
BITMAP
70c0
f8c0
d8c0
f8c0
f0c0
c4c0
ccc0
ccc0
cec0
d2c0
d2c0
f3c0
e1c0
e1c0
c0c0
c0c0
c0c0
ENDCHAR
STARTCHAR Ue1d
ENCODING 3613
SWIDTH 336 0
DWIDTH 14 0
BBX 10 21 2 0
BITMAP
00c0
00c0
00c0
00c0
70c0
f8c0
d8c0
f8c0
f0c0
c4c0
ccc0
ccc0
cec0
d2c0
d2c0
f3c0
e1c0
e1c0
c0c0
c0c0
c0c0
ENDCHAR
STARTCHAR Ue1e
ENCODING 3614
SWIDTH 384 0
DWIDTH 16 0
BBX 12 17 2 0
BITMAP
7030
f830
d830
f830
7930
19b0
1bb0
1ab0
1ab0
1af0
1c70
1c70
1c70
1c70
1830
1830
1830
ENDCHAR
STARTCHAR Ue1f
ENCODING 3615
SWIDTH 384 0
DWIDTH 16 0
BBX 12 21 2 0
BITMAP
0030
0030
0030
0030
7030
f830
d830
f930
7930
19b0
1ab0
1ab0
1ab0
1af0
1c70
1c70
1c70
1c70
1830
1830
1830
ENDCHAR
STARTCHAR Ue20
ENCODING 3616
SWIDTH 384 0
DWIDTH 16 0
BBX 12 17 2 0
BITMAP
0fc0
1860
3030
3c30
3c30
1030
1030
1030
1030
1030
1030
1030
1030
7030
d830
f030
6030
ENDCHAR
STARTCHAR Ue21
ENCODING 3617
SWIDTH 384 0
DWIDTH 16 0
BBX 12 17 2 0
BITMAP
7030
f830
d830
f830
7830
1830
1830
1830
1830
1830
1830
1830
1830
7c30
dbb0
f8f0
7030
ENDCHAR
STARTCHAR Ue22
ENCODING 3618
SWIDTH 336 0
DWIDTH 14 0
BBX 10 17 2 0
BITMAP
70c0
f8c0
d8c0
f8c0
f0c0
c0c0
60c0
60c0
38c0
78c0
e0c0
c0c0
c0c0
c0c0
c0c0
6180
3f00
ENDCHAR
STARTCHAR Ue23
ENCODING 3619
SWIDTH 312 0
DWIDTH 13 0
BBX 9 17 2 0
BITMAP
1f80
2080
4000
4000
ff00
ff80
0180
0180
0180
0180
0180
0180
0180
0780
0f80
0d80
0700
ENDCHAR
STARTCHAR Ue24
ENCODING 3620
SWIDTH 360 0
DWIDTH 15 0
BBX 11 25 2 -8
BITMAP
1f00
20c0
4060
f860
f860
4060
4060
4060
4060
4060
4060
4060
4060
7060
6860
7860
3060
0060
0060
0060
0060
0060
0060
0060
0060
ENDCHAR
STARTCHAR Ue25
ENCODING 3621
SWIDTH 360 0
DWIDTH 15 0
BBX 11 17 2 0
BITMAP
1f80
3fc0
60e0
c060
8060
1f60
3fe0
60e0
40e0
4060
4060
4060
4060
7060
6860
7860
3060
ENDCHAR
STARTCHAR Ue26
ENCODING 3622
SWIDTH 384 0
DWIDTH 16 0
BBX 12 25 2 -8
BITMAP
0fc0
1860
3030
3c30
3c30
1030
1030
1030
1030
1030
1030
1030
1030
7030
d830
f030
6030
0030
0030
0030
0030
0030
0030
0030
0030
ENDCHAR
STARTCHAR Ue27
ENCODING 3623
SWIDTH 312 0
DWIDTH 13 0
BBX 9 17 2 0
BITMAP
1e00
2100
4080
c080
8080
0080
0080
0080
0080
0080
0080
0080
0080
0380
0780
0780
0300
ENDCHAR
STARTCHAR Ue28
ENCODING 3624
SWIDTH 360 0
DWIDTH 15 0
BBX 12 19 2 0
BITMAP
0030
0060
3fc0
7fc0
e0e0
c060
c060
f060
e860
6860
7060
6060
6060
6060
6060
6060
6060
6060
6060
ENDCHAR
STARTCHAR Ue29
ENCODING 3625
SWIDTH 480 0
DWIDTH 20 0
BBX 16 17 2 0
BITMAP
7030
f830
d830
f830
7830
1ab1
1ab1
1bb2
19fc
1830
1830
1830
1830
1830
1830
3820
3fc0
ENDCHAR
STARTCHAR Ue2a
ENCODING 3626
SWIDTH 360 0
DWIDTH 15 0
BBX 11 20 2 0
BITMAP
0060
0040
00c0
1f80
3fc0
61e0
c260
8260
1f60
3fe0
60e0
40e0
4060
4060
4060
4060
7060
6860
7860
3060
ENDCHAR
STARTCHAR Ue2b
ENCODING 3627
SWIDTH 432 0
DWIDTH 18 0
BBX 14 17 2 0
BITMAP
7038
f87c
d86c
f87c
7878
1860
18e0
18e0
19e0
1960
1b60
1a60
1e60
1c60
1c60
1860
1860
ENDCHAR
STARTCHAR Ue2c
ENCODING 3628
SWIDTH 432 0
DWIDTH 18 0
BBX 14 18 2 0
BITMAP
000c
70c8
f9e8
d978
f9f0
78e0
1860
1b60
1b60
1b60
1b60
1ce0
1ce0
1ce0
1ce0
1860
1860
1860
ENDCHAR
STARTCHAR Ue2d
ENCODING 3629
SWIDTH 336 0
DWIDTH 14 0
BBX 10 17 2 0
BITMAP
1f00
3f80
60c0
c040
8040
7040
d840
f840
f040
c040
c040
c040
c040
c040
c040
6080
3f00
ENDCHAR
STARTCHAR Ue2e
ENCODING 3630
SWIDTH 336 0
DWIDTH 14 0
BBX 10 18 2 0
BITMAP
0040
7fc0
ffc0
83c0
ff40
7e40
6040
f040
f040
e040
8040
8040
8040
8040
8040
8040
4080
3f00
ENDCHAR
STARTCHAR Ue2f
ENCODING 3631
SWIDTH 240 0
DWIDTH 10 0
BBX 6 17 2 0
BITMAP
0c
0c
6c
fc
fc
74
04
04
04
04
04
04
04
04
04
04
04
ENDCHAR
STARTCHAR Ue30
ENCODING 3632
SWIDTH 312 0
DWIDTH 13 0
BBX 9 16 2 1
BITMAP
e080
a080
a080
e000
c100
6200
3c00
0000
0000
0000
e080
a080
a080
e000
4100
2200
ENDCHAR
STARTCHAR Ue31
ENCODING 3633
SWIDTH 0 0
DWIDTH 0 0
BBX 9 6 -4 21
BITMAP
e080
a080
a080
8000
4100
2200
ENDCHAR
STARTCHAR Ue32
ENCODING 3634
SWIDTH 312 0
DWIDTH 13 0
BBX 9 17 2 0
BITMAP
1e00
3f00
4380
c180
8180
0180
0180
0180
0180
0180
0180
0180
0180
0180
0180
0180
0180
ENDCHAR
STARTCHAR Ue33
ENCODING 3635
SWIDTH 312 0
DWIDTH 13 0
BBX 17 25 -6 0
BITMAP
600000
900000
900000
900000
600000
000000
000000
000000
001e00
003f00
004380
00c180
008180
000180
000180
000180
000180
000180
000180
000180
000180
000180
000180
000180
000180
ENDCHAR
STARTCHAR Ue34
ENCODING 3636
SWIDTH 0 0
DWIDTH 0 0
BBX 10 6 -12 20
BITMAP
3e00
4100
8080
8040
ff40
03c0
ENDCHAR
STARTCHAR Ue35
ENCODING 3637
SWIDTH 0 0
DWIDTH 0 0
BBX 10 7 -12 20
BITMAP
0040
3e40
4140
80c0
8040
ff40
03c0
ENDCHAR
STARTCHAR Ue36
ENCODING 3638
SWIDTH 0 0
DWIDTH 0 0
BBX 13 6 -14 20
BITMAP
1f00
20b0
4078
c068
ffb0
01e0
ENDCHAR
STARTCHAR Ue37
ENCODING 3639
SWIDTH 0 0
DWIDTH 0 0
BBX 10 7 -12 20
BITMAP
01c0
3fc0
41c0
80c0
8040
ff40
03c0
ENDCHAR
STARTCHAR Ue38
ENCODING 3640
SWIDTH 0 0
DWIDTH 0 0
BBX 4 7 -6 -9
BITMAP
60
f0
f0
70
10
10
10
ENDCHAR
STARTCHAR Ue39
ENCODING 3641
SWIDTH 0 0
DWIDTH 0 0
BBX 7 7 -9 -9
BITMAP
72
da
fa
7a
1a
3e
3c
ENDCHAR
STARTCHAR Ue3a
ENCODING 3642
SWIDTH 144 0
DWIDTH 6 0
BBX 2 3 2 0
BITMAP
c0
c0
c0
ENDCHAR
STARTCHAR Ue40
ENCODING 3648
SWIDTH 192 0
DWIDTH 8 0
BBX 4 17 2 0
BITMAP
80
80
80
80
80
80
80
80
80
80
80
80
80
e0
f0
f0
60
ENDCHAR
STARTCHAR Ue41
ENCODING 3649
SWIDTH 288 0
DWIDTH 12 0
BBX 8 17 2 0
BITMAP
88
88
88
88
88
88
88
88
88
88
88
88
88
ee
ff
ff
66
ENDCHAR
STARTCHAR Ue42
ENCODING 3650
SWIDTH 336 0
DWIDTH 14 0
BBX 10 28 2 0
BITMAP
1fc0
3fc0
6000
4000
c000
fe00
0300
0300
0300
0300
0300
0300
0300
0300
0300
0300
0300
0300
0300
0300
0300
0300
0300
0300
0380
03c0
0340
0180
ENDCHAR
STARTCHAR Ue43
ENCODING 3651
SWIDTH 312 0
DWIDTH 13 0
BBX 9 27 2 0
BITMAP
3800
4c00
b600
fe00
ee00
7e00
3600
0600
0600
0600
0600
0600
0600
0600
0600
0600
0600
0600
0600
0600
0600
0600
0600
0700
0780
0680
0300
ENDCHAR
STARTCHAR Ue44
ENCODING 3652
SWIDTH 288 0
DWIDTH 12 0
BBX 8 27 2 0
BITMAP
d8
fc
fc
fc
fc
fc
6c
0c
0c
0c
0c
0c
0c
0c
0c
0c
0c
0c
0c
0c
0c
0c
0c
0e
0f
0d
06
ENDCHAR
STARTCHAR Ue45
ENCODING 3653
SWIDTH 312 0
DWIDTH 13 0
BBX 9 25 2 -8
BITMAP
1e00
3f00
4380
c180
8180
0180
0180
0180
0180
0180
0180
0180
0180
0180
0180
0180
0180
0180
0180
0180
0180
0180
0180
0180
0180
ENDCHAR
STARTCHAR Ue46
ENCODING 3654
SWIDTH 336 0
DWIDTH 14 0
BBX 10 26 2 -9
BITMAP
3300
7f80
ec40
f040
f040
6040
0040
0040
0040
0040
0040
0040
0040
0040
0040
0040
0040
0040
0040
0040
0040
0040
0040
0040
0040
0040
ENDCHAR
STARTCHAR Ue47
ENCODING 3655
SWIDTH 0 0
DWIDTH 0 0
BBX 8 6 -10 21
BITMAP
01
02
38
49
89
fd
ENDCHAR
STARTCHAR Ue48
ENCODING 3656
SWIDTH 0 0
DWIDTH 0 0
BBX 1 7 -3 20
BITMAP
80
80
80
80
80
80
80
ENDCHAR
STARTCHAR Ue49
ENCODING 3657
SWIDTH 0 0
DWIDTH 0 0
BBX 7 7 -9 20
BITMAP
76
de
fc
7c
38
f0
e0
ENDCHAR
STARTCHAR Ue4a
ENCODING 3658
SWIDTH 0 0
DWIDTH 0 0
BBX 9 6 -10 21
BITMAP
0100
0080
0080
9080
f080
6300
ENDCHAR
STARTCHAR Ue4b
ENCODING 3659
SWIDTH 0 0
DWIDTH 0 0
BBX 7 7 -9 20
BITMAP
18
18
fe
fe
18
18
18
ENDCHAR
STARTCHAR U1000
ENCODING 4096
SWIDTH 244 0
DWIDTH 101 0
BBX 10 14 0 -7
BITMAP
ff80
ff80
9980
8880
8880
0880
0880
0080
0080
0080
0080
0080
0080
0000
ENDCHAR
STARTCHAR U1001
ENCODING 4097
SWIDTH 283 0
DWIDTH 117 0
BBX 11 14 0 -7
BITMAP
ffe0
ffe0
c8c0
9040
9c40
9f40
91c0
8040
8000
8000
8000
8000
0000
0000
ENDCHAR
STARTCHAR U1002
ENCODING 4098
SWIDTH 283 0
DWIDTH 117 0
BBX 11 14 0 -7
BITMAP
7fe0
7fe0
4660
8260
f240
fe40
0640
0240
0040
0040
0040
0040
0040
0000
ENDCHAR
STARTCHAR U1003
ENCODING 4099
SWIDTH 203 0
DWIDTH 84 0
BBX 8 9 0 -2
BITMAP
fe
fe
80
80
80
e0
fc
ff
01
ENDCHAR
STARTCHAR U1004
ENCODING 4100
SWIDTH 223 0
DWIDTH 92 0
BBX 9 9 0 -2
BITMAP
3f00
3f00
0400
9e00
6700
6380
7380
3300
0c00
ENDCHAR
STARTCHAR U1005
ENCODING 4101
SWIDTH 273 0
DWIDTH 113 0
BBX 11 9 0 -2
BITMAP
3f80
3f00
0400
1f00
7f80
c5c0
8c40
8c40
73c0
ENDCHAR
STARTCHAR U1006
ENCODING 4102
SWIDTH 189 0
DWIDTH 78 0
BBX 8 9 0 -2
BITMAP
fc
fc
80
fc
fc
80
f8
fe
02
ENDCHAR
STARTCHAR U1007
ENCODING 4103
SWIDTH 196 0
DWIDTH 81 0
BBX 8 14 0 -7
BITMAP
78
f8
88
de
3f
23
72
02
02
04
08
10
30
00
ENDCHAR
STARTCHAR U1008
ENCODING 4104
SWIDTH 172 0
DWIDTH 71 0
BBX 7 14 0 -7
BITMAP
fe
7e
02
06
7e
72
c0
c0
40
40
40
20
30
10
ENDCHAR
STARTCHAR U1009
ENCODING 4105
SWIDTH 201 0
DWIDTH 83 0
BBX 8 12 0 -5
BITMAP
fe
fe
42
63
5e
4c
46
5f
70
60
40
00
ENDCHAR
STARTCHAR U100a
ENCODING 4106
SWIDTH 240 0
DWIDTH 99 0
BBX 9 13 0 -6
BITMAP
3f00
3f00
0100
0780
1f80
3c80
6000
6000
4000
c000
8000
8000
0000
ENDCHAR
STARTCHAR U100b
ENCODING 4107
SWIDTH 201 0
DWIDTH 83 0
BBX 8 14 0 -7
BITMAP
fc
7c
10
1e
31
71
49
c6
c0
80
80
80
80
00
ENDCHAR
STARTCHAR U100c
ENCODING 4108
SWIDTH 172 0
DWIDTH 71 0
BBX 7 14 0 -7
BITMAP
fe
fc
80
c0
fc
9c
06
06
04
04
04
08
18
10
ENDCHAR
STARTCHAR U100d
ENCODING 4109
SWIDTH 201 0
DWIDTH 83 0
BBX 8 12 0 -5
BITMAP
7f
7f
42
c6
7a
32
62
fa
0e
06
02
00
ENDCHAR
STARTCHAR U100e
ENCODING 4110
SWIDTH 240 0
DWIDTH 99 0
BBX 9 13 0 -6
BITMAP
7e00
7e00
4000
f000
fc00
9e00
0300
0300
0100
0180
0080
0080
0000
ENDCHAR
STARTCHAR U100f
ENCODING 4111
SWIDTH 201 0
DWIDTH 83 0
BBX 8 14 0 -7
BITMAP
3f
3e
08
78
8c
8e
92
63
03
01
01
01
01
00
ENDCHAR
STARTCHAR U1010
ENCODING 4112
SWIDTH 254 0
DWIDTH 105 0
BBX 10 10 0 -3
BITMAP
7dc0
7980
6180
4180
f080
fc80
0e80
0380
0180
0000
ENDCHAR
STARTCHAR U1011
ENCODING 4113
SWIDTH 254 0
DWIDTH 105 0
BBX 10 10 0 -3
BITMAP
fbc0
7180
4380
4480
c880
fc80
9e80
0380
0180
0000
ENDCHAR
STARTCHAR U1012
ENCODING 4114
SWIDTH 237 0
DWIDTH 98 0
BBX 9 10 0 -3
BITMAP
7f80
7f80
6180
4180
f100
fd00
8f00
0300
0100
0000
ENDCHAR
STARTCHAR U1013
ENCODING 4115
SWIDTH 269 0
DWIDTH 111 0
BBX 10 9 0 -2
BITMAP
7dc0
78c0
30c0
7c80
de80
9780
9180
6080
0000
ENDCHAR
STARTCHAR U1014
ENCODING 4116
SWIDTH 254 0
DWIDTH 105 0
BBX 10 11 0 -1
BITMAP
01c0
0100
3e00
7f00
0800
0c00
de00
6700
6300
7200
3c00
ENDCHAR
STARTCHAR U1015
ENCODING 4117
SWIDTH 273 0
DWIDTH 113 0
BBX 11 12 0 -2
BITMAP
01c0
0180
1f00
3f00
0800
0800
3f00
6f80
88c0
8840
d4c0
2300
ENDCHAR
STARTCHAR U1016
ENCODING 4118
SWIDTH 223 0
DWIDTH 92 0
BBX 9 11 0 -1
BITMAP
0380
0600
fc00
fe00
8000
fc00
fe00
8000
8000
fc00
8200
ENDCHAR
STARTCHAR U1017
ENCODING 4119
SWIDTH 290 0
DWIDTH 120 0
BBX 11 14 0 -7
BITMAP
7ce0
ecc0
8440
8440
8440
8440
1fe0
1fc0
1040
2040
3840
3f40
20c0
0000
ENDCHAR
STARTCHAR U1018
ENCODING 4120
SWIDTH 230 0
DWIDTH 95 0
BBX 9 14 0 -7
BITMAP
3f00
6300
8980
9f80
a700
9b00
8100
8180
4180
6180
1180
0180
0080
0080
ENDCHAR
STARTCHAR U1019
ENCODING 4121
SWIDTH 203 0
DWIDTH 84 0
BBX 8 9 0 -2
BITMAP
7f
7f
01
7f
7f
01
3f
ff
80
ENDCHAR
STARTCHAR U101a
ENCODING 4122
SWIDTH 283 0
DWIDTH 117 0
BBX 11 11 0 -4
BITMAP
7e00
fe00
8200
8200
8200
9f00
9f80
00c0
0040
0040
0000
ENDCHAR
STARTCHAR U101b
ENCODING 4123
SWIDTH 317 0
DWIDTH 131 0
BBX 12 10 0 -3
BITMAP
ee70
e430
c430
8730
c7a0
7da0
7860
3060
0020
0020
ENDCHAR
STARTCHAR U101c
ENCODING 4124
SWIDTH 254 0
DWIDTH 105 0
BBX 10 8 0 -1
BITMAP
7e00
7c00
1000
7800
fe00
8300
0080
00c0
ENDCHAR
STARTCHAR U101d
ENCODING 4125
SWIDTH 266 0
DWIDTH 110 0
BBX 10 9 0 -2
BITMAP
7dc0
fcc0
8480
8480
9c80
bf80
0180
0080
0000
ENDCHAR
STARTCHAR U101e
ENCODING 4126
SWIDTH 303 0
DWIDTH 125 0
BBX 12 14 0 -7
BITMAP
03e0
07e0
0860
0860
0860
c860
6fa0
1020
0020
0020
0020
0020
0020
0020
ENDCHAR
STARTCHAR U101f
ENCODING 4127
SWIDTH 303 0
DWIDTH 125 0
BBX 12 14 0 -7
BITMAP
7c00
7e00
6100
6100
6100
6130
5f60
4080
4000
4000
4000
4000
4000
4000
ENDCHAR
STARTCHAR U1020
ENCODING 4128
SWIDTH 283 0
DWIDTH 117 0
BBX 11 8 0 -1
BITMAP
7ce0
78c0
38c0
7c40
c640
f340
f9c0
08c0
ENDCHAR
STARTCHAR U1021
ENCODING 4129
SWIDTH 240 0
DWIDTH 99 0
BBX 9 13 0 -6
BITMAP
7f00
7f00
4000
4f00
fb80
b180
0880
0080
0180
0100
0100
0200
0200
ENDCHAR
STARTCHAR U1022
ENCODING 4130
SWIDTH 370 0
DWIDTH 153 0
BBX 14 9 0 -2
BITMAP
ef9c
c798
4718
4b88
5cc8
4e28
6218
3c08
0008
ENDCHAR
STARTCHAR U1026
ENCODING 4134
SWIDTH 329 0
DWIDTH 136 0
BBX 12 6 1 1
BITMAP
7800
df00
8380
c0c0
7860
1830
ENDCHAR
STARTCHAR U1028
ENCODING 4136
SWIDTH 329 0
DWIDTH 136 0
BBX 12 6 0 -5
BITMAP
8000
41c0
21f0
1810
0fd0
07e0
ENDCHAR
STARTCHAR U1029
ENCODING 4137
SWIDTH 281 0
DWIDTH 116 0
BBX 10 6 1 1
BITMAP
f800
fe00
0f00
0180
00c0
0040
ENDCHAR
STARTCHAR U102a
ENCODING 4138
SWIDTH 533 0
DWIDTH 220 0
BBX 20 7 2 2
BITMAP
000030
000060
0003c0
7c1f80
ff7f00
c7c000
00c000
ENDCHAR
STARTCHAR U1034
ENCODING 4148
SWIDTH 99 0
DWIDTH 41 0
BBX 3 18 0 -8
BITMAP
e0
e0
e0
e0
e0
40
40
40
40
40
40
40
40
40
40
40
40
40
ENDCHAR
STARTCHAR U1035
ENCODING 4149
SWIDTH 82 0
DWIDTH 34 0
BBX 3 3 0 6
BITMAP
c0
c0
c0
ENDCHAR
STARTCHAR U1039
ENCODING 4153
SWIDTH 227 0
DWIDTH 94 0
BBX 9 23 0 -13
BITMAP
2200
7700
2200
0000
0800
3e00
3e00
1c00
1c00
1c00
1c00
1c00
1c00
1c00
1c00
0800
0800
0800
0800
0800
0800
0800
0000
ENDCHAR
STARTCHAR U1040
ENCODING 4160
SWIDTH 169 0
DWIDTH 70 0
BBX 7 7 0 2
BITMAP
38
de
82
82
ce
7c
10
ENDCHAR
STARTCHAR U1041
ENCODING 4161
SWIDTH 179 0
DWIDTH 74 0
BBX 7 11 0 -1
BITMAP
1e
32
42
46
06
0c
08
18
30
e0
80
ENDCHAR
STARTCHAR U1042
ENCODING 4162
SWIDTH 189 0
DWIDTH 78 0
BBX 7 12 0 -2
BITMAP
3e
46
c6
0e
1c
38
40
fc
0e
06
06
00
ENDCHAR
STARTCHAR U1043
ENCODING 4163
SWIDTH 208 0
DWIDTH 86 0
BBX 8 13 0 -3
BITMAP
38
d8
88
0e
1f
03
03
06
18
f8
dc
06
02
ENDCHAR
STARTCHAR U1044
ENCODING 4164
SWIDTH 407 0
DWIDTH 168 0
BBX 15 8 0 1
BITMAP
0010
10e2
7f86
7e0c
c018
c3f0
7fe0
1f00
ENDCHAR
STARTCHAR U1045
ENCODING 4165
SWIDTH 320 0
DWIDTH 132 0
BBX 12 10 0 0
BITMAP
0080
c1d0
e3d0
72f0
7600
3c00
3800
1800
1800
0000
ENDCHAR
STARTCHAR U1046
ENCODING 4166
SWIDTH 329 0
DWIDTH 136 0
BBX 12 11 0 -1
BITMAP
03c0
07f0
0800
0800
07c0
c7f0
40d0
7010
1a10
0ff0
03c0
ENDCHAR
STARTCHAR U1047
ENCODING 4167
SWIDTH 252 0
DWIDTH 104 0
BBX 10 11 0 -1
BITMAP
3080
d8c0
18c0
38c0
3880
7180
7100
c300
c600
cc00
7800
ENDCHAR
STARTCHAR U1048
ENCODING 4168
SWIDTH 227 0
DWIDTH 94 0
BBX 9 9 0 0
BITMAP
1000
3000
2000
2000
4000
4000
4000
f880
df00
ENDCHAR
STARTCHAR U1049
ENCODING 4169
SWIDTH 290 0
DWIDTH 120 0
BBX 11 11 0 -1
BITMAP
1f80
3fc0
59e0
4060
8020
8c60
9380
b020
b060
1fc0
0f00
ENDCHAR
STARTCHAR U2010
ENCODING 8208
SWIDTH 1024 0
DWIDTH 16 0
BBX 16 16 0 -2
BITMAP
0000
0000
0000
0000
0000
0000
0000
07e0
0000
0000
0000
0000
0000
0000
0000
0000
ENDCHAR
STARTCHAR U2013
ENCODING 8211
SWIDTH 1024 0
DWIDTH 16 0
BBX 16 16 0 -2
BITMAP
0000
0000
0000
0000
0000
0000
0000
07e0
0000
0000
0000
0000
0000
0000
0000
0000
ENDCHAR
STARTCHAR U2014
ENCODING 8212
SWIDTH 1024 0
DWIDTH 16 0
BBX 16 16 0 -2
BITMAP
0000
0000
0000
0000
0000
0000
0000
ffff
0000
0000
0000
0000
0000
0000
0000
0000
ENDCHAR
STARTCHAR U2015
ENCODING 8213
SWIDTH 1024 0
DWIDTH 16 0
BBX 16 16 0 -2
BITMAP
0000
0000
0000
0000
0000
0000
0000
7fff
0000
0000
0000
0000
0000
0000
0000
0000
ENDCHAR
STARTCHAR U2016
ENCODING 8214
SWIDTH 1024 0
DWIDTH 16 0
BBX 16 16 0 -2
BITMAP
0440
0440
0440
0440
0440
0440
0440
0440
0440
0440
0440
0440
0440
0440
0440
0440
ENDCHAR
STARTCHAR U2018
ENCODING 8216
SWIDTH 1024 0
DWIDTH 16 0
BBX 4 5 10 8
BITMAP
20
40
e0
f0
60
ENDCHAR
STARTCHAR U2019
ENCODING 8217
SWIDTH 1024 0
DWIDTH 16 0
BBX 4 5 2 8
BITMAP
60
f0
70
20
c0
ENDCHAR
STARTCHAR U201a
ENCODING 8218
SWIDTH 1024 0
DWIDTH 16 0
BBX 5 7 2 -2
BITMAP
30
78
78
30
20
40
80
ENDCHAR
STARTCHAR U201c
ENCODING 8220
SWIDTH 1024 0
DWIDTH 16 0
BBX 7 5 7 8
BITMAP
22
44
cc
ee
cc
ENDCHAR
STARTCHAR U201d
ENCODING 8221
SWIDTH 1024 0
DWIDTH 16 0
BBX 7 4 1 9
BITMAP
ee
66
44
88
ENDCHAR
STARTCHAR U2020
ENCODING 8224
SWIDTH 1024 0
DWIDTH 16 0
BBX 16 16 0 -2
BITMAP
0100
0380
0920
1ff0
0920
0100
07c0
0380
0380
0380
0380
0380
0100
0100
0100
0100
ENDCHAR
STARTCHAR U2021
ENCODING 8225
SWIDTH 1024 0
DWIDTH 16 0
BBX 16 16 0 -2
BITMAP
0100
0380
0920
1ff0
0920
0380
0380
0100
0100
0380
0380
0920
1ff0
0920
0380
0100
ENDCHAR
STARTCHAR U2022
ENCODING 8226
SWIDTH 1024 0
DWIDTH 16 0
BBX 4 4 1 5
BITMAP
60
f0
f0
60
ENDCHAR
STARTCHAR U2024
ENCODING 8228
SWIDTH 1024 0
DWIDTH 16 0
BBX 4 3 6 5
BITMAP
60
f0
60
ENDCHAR
STARTCHAR U2025
ENCODING 8229
SWIDTH 1024 0
DWIDTH 16 0
BBX 10 3 3 5
BITMAP
6180
f3c0
6180
ENDCHAR
STARTCHAR U2026
ENCODING 8230
SWIDTH 1024 0
DWIDTH 16 0
BBX 14 3 0 5
BITMAP
6318
f7bc
6318
ENDCHAR
STARTCHAR U2030
ENCODING 8240
SWIDTH 1024 0
DWIDTH 16 0
BBX 16 16 0 -2
BITMAP
0000
0002
0c04
1208
1210
1220
0c40
0080
0100
02c6
0529
0929
1129
20c6
0000
0000
ENDCHAR
STARTCHAR U2032
ENCODING 8242
SWIDTH 1024 0
DWIDTH 16 0
BBX 6 6 5 7
BITMAP
18
3c
38
30
60
80
ENDCHAR
STARTCHAR U2033
ENCODING 8243
SWIDTH 1024 0
DWIDTH 16 0
BBX 12 9 1 0
BITMAP
0420
0e70
0e70
0e70
1ce0
18c0
3180
6300
8400
ENDCHAR
STARTCHAR U2035
ENCODING 8245
SWIDTH 1024 0
DWIDTH 16 0
BBX 6 4 5 9
BITMAP
e0
70
18
04
ENDCHAR
STARTCHAR U203b
ENCODING 8251
SWIDTH 1024 0
DWIDTH 16 0
BBX 12 11 2 0
BITMAP
c630
6660
30c0
1980
cf00
c630
0f30
1980
30c0
6660
c630
ENDCHAR
STARTCHAR U203e
ENCODING 8254
SWIDTH 1024 0
DWIDTH 16 0
BBX 16 16 0 -2
BITMAP
0000
0000
0000
1ffc
0000
0000
0000
0000
0000
0000
0000
0000
0000
0000
0000
0000
ENDCHAR
STARTCHAR U2074
ENCODING 8308
SWIDTH 1024 0
DWIDTH 16 0
BBX 16 16 0 -2
BITMAP
0000
0004
000c
0014
003f
0004
000e
0000
0000
0000
0000
0000
0000
0000
0000
0000
ENDCHAR
STARTCHAR U207f
ENCODING 8319
SWIDTH 1024 0
DWIDTH 16 0
BBX 16 16 0 -2
BITMAP
0000
0016
003a
0012
0012
0037
0000
0000
0000
0000
0000
0000
0000
0000
0000
0000
ENDCHAR
STARTCHAR U2081
ENCODING 8321
SWIDTH 1024 0
DWIDTH 16 0
BBX 16 16 0 -2
BITMAP
0000
0000
0000
0000
0000
0000
0000
0000
0000
0002
0006
0002
0002
0002
0007
0000
ENDCHAR
STARTCHAR U2082
ENCODING 8322
SWIDTH 1024 0
DWIDTH 16 0
BBX 16 16 0 -2
BITMAP
0000
0000
0000
0000
0000
0000
0000
0000
0000
000e
0011
0002
000c
0011
001f
0000
ENDCHAR
STARTCHAR U2083
ENCODING 8323
SWIDTH 1024 0
DWIDTH 16 0
BBX 16 16 0 -2
BITMAP
0000
0000
0000
0000
0000
0000
0000
0000
0000
000e
0011
0006
0001
0011
000e
0000
ENDCHAR
STARTCHAR U2084
ENCODING 8324
SWIDTH 1024 0
DWIDTH 16 0
BBX 16 16 0 -2
BITMAP
0000
0000
0000
0000
0000
0000
0000
0000
0000
0004
000c
0014
003f
0004
000e
0000
ENDCHAR
STARTCHAR U20a9
ENCODING 8361
SWIDTH 1024 0
DWIDTH 16 0
BBX 16 16 0 -2
BITMAP
0000
f3c7
6182
6184
3184
ffff
30c8
ffff
19c8
1ad0
1ad0
0e70
0c60
0c60
0000
0000
ENDCHAR
STARTCHAR U2103
ENCODING 8451
SWIDTH 1024 0
DWIDTH 16 0
BBX 16 16 0 -2
BITMAP
0000
6000
9000
63f4
061c
0c06
1802
1800
1800
1800
1800
0c02
060c
03f0
0000
0000
ENDCHAR
STARTCHAR U2105
ENCODING 8453
SWIDTH 1024 0
DWIDTH 16 0
BBX 16 16 0 -2
BITMAP
0000
0000
0e00
1108
2010
2020
1240
0c80
013c
0242
0442
0842
103c
0000
0000
0000
ENDCHAR
STARTCHAR U2109
ENCODING 8457
SWIDTH 1024 0
DWIDTH 16 0
BBX 16 14 0 -1
BITMAP
7000
8bff
8903
7101
0101
0108
01f8
0118
0108
0100
0100
0100
0100
07c0
ENDCHAR
STARTCHAR U2113
ENCODING 8467
SWIDTH 1024 0
DWIDTH 16 0
BBX 16 16 0 -2
BITMAP
0000
0060
0090
0110
0110
0120
0220
0240
0240
0284
0304
0208
0610
39e0
0000
0000
ENDCHAR
STARTCHAR U2116
ENCODING 8470
SWIDTH 1024 0
DWIDTH 16 0
BBX 16 16 0 -2
BITMAP
0000
3830
1870
1c40
1440
1640
1640
1640
134c
1352
1152
11d2
10cc
60c0
605e
0000
ENDCHAR
STARTCHAR U2121
ENCODING 8481
SWIDTH 1024 0
DWIDTH 16 0
BBX 16 16 0 -2
BITMAP
0000
fe02
9206
1002
1002
1002
11e2
1212
1212
13f2
1202
1202
1212
39e7
0000
0000
ENDCHAR
STARTCHAR U2122
ENCODING 8482
SWIDTH 1024 0
DWIDTH 16 0
BBX 16 16 0 -2
BITMAP
0000
ff83
9282
92c6
10c6
10c6
10ee
10aa
10aa
10ba
1092
1082
1082
39c7
0000
0000
ENDCHAR
STARTCHAR U2126
ENCODING 8486
SWIDTH 1024 0
DWIDTH 16 0
BBX 16 16 0 -2
BITMAP
0000
03c0
0c30
1818
1818
1818
1818
1818
1818
0c30
0660
4242
2244
3c3c
0000
0000
ENDCHAR
STARTCHAR U212b
ENCODING 8491
SWIDTH 1024 0
DWIDTH 16 0
BBX 16 16 0 -2
BITMAP
0300
0480
0300
0200
0300
0580
0580
08c0
08c0
1060
1fe0
1030
2030
707c
0000
0000
ENDCHAR
STARTCHAR U2153
ENCODING 8531
SWIDTH 1024 0
DWIDTH 16 0
BBX 16 16 0 -2
BITMAP
0000
1002
3004
1008
1010
1020
1040
109c
3922
0202
040c
0802
1002
2022
401c
0000
ENDCHAR
STARTCHAR U2154
ENCODING 8532
SWIDTH 1024 0
DWIDTH 16 0
BBX 16 16 0 -2
BITMAP
0000
3802
4404
0408
1810
2020
4040
449c
7d22
0202
040c
0802
1002
2022
401c
0000
ENDCHAR
STARTCHAR U215b
ENCODING 8539
SWIDTH 1024 0
DWIDTH 16 0
BBX 16 16 0 -2
BITMAP
0000
1002
3004
1008
1010
1020
1040
10bc
3942
0242
043c
0842
1042
2042
403c
0000
ENDCHAR
STARTCHAR U215c
ENCODING 8540
SWIDTH 1024 0
DWIDTH 16 0
BBX 16 16 0 -2
BITMAP
0000
3802
4404
0408
1810
0420
0440
44bc
3942
0242
043c
0842
1042
2042
403c
0000
ENDCHAR
STARTCHAR U215d
ENCODING 8541
SWIDTH 1024 0
DWIDTH 16 0
BBX 16 16 0 -2
BITMAP
0000
6402
5804
4008
5810
6420
0440
44bc
3942
0242
043c
0842
1042
2042
403c
0000
ENDCHAR
STARTCHAR U215e
ENCODING 8542
SWIDTH 1024 0
DWIDTH 16 0
BBX 16 16 0 -2
BITMAP
0000
3e02
4204
0408
0410
0820
0840
10bc
1142
0242
043c
0842
1042
2042
403c
0000
ENDCHAR
STARTCHAR U2160
ENCODING 8544
SWIDTH 1024 0
DWIDTH 16 0
BBX 16 16 0 -2
BITMAP
0000
0000
01c0
0080
0080
0080
0080
0080
0080
0080
0080
0080
0080
01c0
0000
0000
ENDCHAR
STARTCHAR U2161
ENCODING 8545
SWIDTH 1024 0
DWIDTH 16 0
BBX 16 16 0 -2
BITMAP
0000
0000
0770
0220
0220
0220
0220
0220
0220
0220
0220
0220
0220
0770
0000
0000
ENDCHAR
STARTCHAR U2162
ENCODING 8546
SWIDTH 1024 0
DWIDTH 16 0
BBX 16 16 0 -2
BITMAP
0000
0000
1ddc
0888
0888
0888
0888
0888
0888
0888
0888
0888
0888
1ddc
0000
0000
ENDCHAR
STARTCHAR U2163
ENCODING 8547
SWIDTH 1024 0
DWIDTH 16 0
BBX 16 16 0 -2
BITMAP
0000
0000
1ddc
0888
0888
0888
0888
0888
0888
0850
0850
0850
0820
1c20
0000
0000
ENDCHAR
STARTCHAR U2164
ENCODING 8548
SWIDTH 1024 0
DWIDTH 16 0
BBX 16 16 0 -2
BITMAP
0000
0000
0e38
0410
0410
0410
0610
0220
0220
0320
0140
0140
0080
0080
0000
0000
ENDCHAR
STARTCHAR U2165
ENCODING 8549
SWIDTH 1024 0
DWIDTH 16 0
BBX 16 16 0 -2
BITMAP
0000
0000
1ddc
0888
0888
0888
0888
0888
0508
0508
0508
0508
0208
021c
0000
0000
ENDCHAR
STARTCHAR U2166
ENCODING 8550
SWIDTH 1024 0
DWIDTH 16 0
BBX 16 16 0 -2
BITMAP
0000
0000
3bbe
1114
1114
1114
1114
1114
0a14
0a14
0a14
0a14
0414
043e
0000
0000
ENDCHAR
STARTCHAR U2167
ENCODING 8551
SWIDTH 1024 0
DWIDTH 16 0
BBX 16 16 0 -2
BITMAP
0000
0000
3bfe
1154
1154
1154
1154
1154
0a54
0a54
0a54
0a54
0454
04fe
0000
0000
ENDCHAR
STARTCHAR U2168
ENCODING 8552
SWIDTH 1024 0
DWIDTH 16 0
BBX 16 16 0 -2
BITMAP
0000
0000
1ddc
0888
0888
0888
0850
0850
0820
0850
0850
0888
0888
1ddc
0000
0000
ENDCHAR
STARTCHAR U2169
ENCODING 8553
SWIDTH 1024 0
DWIDTH 16 0
BBX 16 16 0 -2
BITMAP
0000
0000
0e38
0410
0410
0220
0140
0080
0140
0220
0220
0410
0410
0e38
0000
0000
ENDCHAR
STARTCHAR U216a
ENCODING 8554
SWIDTH 1024 0
DWIDTH 16 0
BBX 16 16 0 -2
BITMAP
0000
0000
1ddc
0888
0888
0888
0508
0508
0208
0508
0888
0888
0888
1ddc
0000
0000
ENDCHAR
STARTCHAR U216b
ENCODING 8555
SWIDTH 1024 0
DWIDTH 16 0
BBX 16 16 0 -2
BITMAP
0000
0000
3fbe
1114
1114
1114
0a14
0a14
0414
0a14
1114
1114
1114
3fbe
0000
0000
ENDCHAR
STARTCHAR U2170
ENCODING 8560
SWIDTH 1024 0
DWIDTH 16 0
BBX 16 16 0 -2
BITMAP
0000
0080
0080
0000
0000
0080
0180
0080
0080
0080
0080
0080
0080
01c0
0000
0000
ENDCHAR
STARTCHAR U2171
ENCODING 8561
SWIDTH 1024 0
DWIDTH 16 0
BBX 16 16 0 -2
BITMAP
0000
0420
0420
0000
0000
0420
0c60
0420
0420
0420
0420
0420
0420
0e70
0000
0000
ENDCHAR
STARTCHAR U2172
ENCODING 8562
SWIDTH 1024 0
DWIDTH 16 0
BBX 16 16 0 -2
BITMAP
0000
1110
1110
0000
0000
1110
3330
1110
1110
1110
1110
1110
1110
3bb8
0000
0000
ENDCHAR
STARTCHAR U2173
ENCODING 8563
SWIDTH 1024 0
DWIDTH 16 0
BBX 16 16 0 -2
BITMAP
0000
1000
1000
0000
0000
171c
3208
1208
1110
1110
10a0
10a0
1040
3840
0000
0000
ENDCHAR
STARTCHAR U2174
ENCODING 8564
SWIDTH 1024 0
DWIDTH 16 0
BBX 16 16 0 -2
BITMAP
0000
0000
0000
0000
0000
1c70
0820
0820
0440
0440
0280
0280
0100
0100
0000
0000
ENDCHAR
STARTCHAR U2175
ENCODING 8565
SWIDTH 1024 0
DWIDTH 16 0
BBX 16 16 0 -2
BITMAP
0000
0008
0008
0000
0000
38e8
1058
1048
0888
0888
0508
0508
0208
021c
0000
0000
ENDCHAR
STARTCHAR U2176
ENCODING 8566
SWIDTH 1024 0
DWIDTH 16 0
BBX 16 16 0 -2
BITMAP
0000
0024
0024
0000
0000
e3a4
416c
4124
2224
2224
1424
1424
0824
087e
0000
0000
ENDCHAR
STARTCHAR U2177
ENCODING 8567
SWIDTH 1024 0
DWIDTH 16 0
BBX 16 16 0 -2
BITMAP
0000
0092
0092
0000
0000
ee92
45b6
4492
4492
2892
2892
2892
1092
11ff
0000
0000
ENDCHAR
STARTCHAR U2178
ENCODING 8568
SWIDTH 1024 0
DWIDTH 16 0
BBX 16 16 0 -2
BITMAP
0000
2000
2000
0000
0000
671c
2208
2110
20a0
2040
20a0
2110
2208
771c
0000
0000
ENDCHAR
STARTCHAR U2179
ENCODING 8569
SWIDTH 1024 0
DWIDTH 16 0
BBX 16 16 0 -2
BITMAP
0000
0000
0000
0000
0000
1c38
0410
0220
0140
0180
0240
0420
0810
1c38
0000
0000
ENDCHAR
STARTCHAR U217a
ENCODING 8570
SWIDTH 1024 0
DWIDTH 16 0
BBX 16 16 0 -2
BITMAP
0000
0008
0008
0000
0000
71c8
2098
1108
0a08
0408
0a08
1108
2088
71dc
0000
0000
ENDCHAR
STARTCHAR U217b
ENCODING 8571
SWIDTH 1024 0
DWIDTH 16 0
BBX 16 16 0 -2
BITMAP
0000
0012
0012
0000
0000
e392
4136
2212
1412
0812
1412
2212
4112
e3bf
0000
0000
ENDCHAR
STARTCHAR U2190
ENCODING 8592
SWIDTH 1024 0
DWIDTH 16 0
BBX 16 16 0 -2
BITMAP
0000
0000
0000
0000
0100
0600
1e00
3ffe
1e00
0600
0100
0000
0000
0000
0000
0000
ENDCHAR
STARTCHAR U2191
ENCODING 8593
SWIDTH 1024 0
DWIDTH 16 0
BBX 16 16 0 -2
BITMAP
0000
0080
01c0
01c0
03e0
03e0
0490
0080
0080
0080
0080
0080
0080
0080
0080
0000
ENDCHAR
STARTCHAR U2192
ENCODING 8594
SWIDTH 1024 0
DWIDTH 16 0
BBX 16 16 0 -2
BITMAP
0000
0000
0000
0000
0040
0030
003c
3ffe
003c
0030
0040
0000
0000
0000
0000
0000
ENDCHAR
STARTCHAR U2193
ENCODING 8595
SWIDTH 1024 0
DWIDTH 16 0
BBX 16 16 0 -2
BITMAP
0000
0080
0080
0080
0080
0080
0080
0080
0080
0490
03e0
03e0
01c0
01c0
0080
0000
ENDCHAR
STARTCHAR U2194
ENCODING 8596
SWIDTH 1024 0
DWIDTH 16 0
BBX 16 16 0 -2
BITMAP
0000
0000
0000
0000
1008
2004
6006
ffff
6006
2004
1008
0000
0000
0000
0000
0000
ENDCHAR
STARTCHAR U2195
ENCODING 8597
SWIDTH 1024 0
DWIDTH 16 0
BBX 16 16 0 -2
BITMAP
0100
0380
07c0
0920
1110
0100
0100
0100
0100
0100
1110
0920
07c0
0380
0100
0000
ENDCHAR
STARTCHAR U2196
ENCODING 8598
SWIDTH 1024 0
DWIDTH 16 0
BBX 16 16 0 -2
BITMAP
0000
7e00
7000
7000
4800
4400
4200
0100
0080
0040
0020
0010
0008
0004
0000
0000
ENDCHAR
STARTCHAR U2197
ENCODING 8599
SWIDTH 1024 0
DWIDTH 16 0
BBX 16 16 0 -2
BITMAP
0000
007e
000e
000e
0012
0022
0040
0080
0100
0200
0400
0800
1000
2000
0000
0000
ENDCHAR
STARTCHAR U2198
ENCODING 8600
SWIDTH 1024 0
DWIDTH 16 0
BBX 16 16 0 -2
BITMAP
0000
4000
2000
1000
0800
0400
0200
0100
0084
0044
0024
001c
001c
00fc
0000
0000
ENDCHAR
STARTCHAR U2199
ENCODING 8601
SWIDTH 1024 0
DWIDTH 16 0
BBX 16 16 0 -2
BITMAP
0000
0004
0008
0010
0020
0040
0080
0100
4200
4400
4800
7000
7000
7e00
0000
0000
ENDCHAR
STARTCHAR U21d2
ENCODING 8658
SWIDTH 1024 0
DWIDTH 16 0
BBX 16 16 0 -2
BITMAP
0000
0000
0000
0010
0008
fffc
0002
0001
0002
fffc
0008
0010
0000
0000
0000
0000
ENDCHAR
STARTCHAR U21d4
ENCODING 8660
SWIDTH 1024 0
DWIDTH 16 0
BBX 16 16 0 -2
BITMAP
0000
0000
0000
0810
1008
3ffc
4002
8001
4002
3ffc
1008
0810
0000
0000
0000
0000
ENDCHAR
STARTCHAR U2200
ENCODING 8704
SWIDTH 1024 0
DWIDTH 16 0
BBX 16 16 0 -2
BITMAP
0000
4004
4004
2008
2008
1ff0
1010
0820
0820
0440
0440
0280
0280
0100
0100
0000
ENDCHAR
STARTCHAR U2202
ENCODING 8706
SWIDTH 1024 0
DWIDTH 16 0
BBX 16 16 0 -2
BITMAP
0000
01e0
0330
0410
0010
0010
03b0
0460
0820
1860
1040
10c0
1980
0f00
0000
0000
ENDCHAR
STARTCHAR U2203
ENCODING 8707
SWIDTH 1024 0
DWIDTH 16 0
BBX 16 16 0 -2
BITMAP
0000
0000
1ff0
0010
0010
0010
0010
1ff0
0010
0010
0010
0010
1ff0
0000
0000
0000
ENDCHAR
STARTCHAR U2207
ENCODING 8711
SWIDTH 1024 0
DWIDTH 16 0
BBX 16 16 0 -2
BITMAP
0000
7ffe
3004
300c
1808
1818
0c10
0c30
0620
0660
0340
03c0
0180
0180
0000
0000
ENDCHAR
STARTCHAR U2208
ENCODING 8712
SWIDTH 1024 0
DWIDTH 16 0
BBX 16 16 0 -2
BITMAP
0000
0000
0000
0ffc
1000
2000
2000
3ffc
2000
2000
1000
0ffc
0000
0000
0000
0000
ENDCHAR
STARTCHAR U220a
ENCODING 8714
SWIDTH 1024 0
DWIDTH 16 0
BBX 16 16 0 -2
BITMAP
0000
0000
00c0
0300
0400
0400
0800
0800
0fc0
0800
0800
0400
0400
0300
00c0
0000
ENDCHAR
STARTCHAR U220b
ENCODING 8715
SWIDTH 1024 0
DWIDTH 16 0
BBX 16 16 0 -2
BITMAP
0000
0000
0000
1fe0
0010
0008
0008
1ff8
0008
0008
0010
1fe0
0000
0000
0000
0000
ENDCHAR
STARTCHAR U220f
ENCODING 8719
SWIDTH 1024 0
DWIDTH 16 0
BBX 16 16 0 -2
BITMAP
0000
0000
3ffc
0c30
0c30
0c30
0c30
0c30
0c30
0c30
0c30
0c30
0c30
3e7c
0000
0000
ENDCHAR
STARTCHAR U2211
ENCODING 8721
SWIDTH 1024 0
DWIDTH 16 0
BBX 16 16 0 -2
BITMAP
0000
0000
1ffc
1804
0c04
0600
0300
0300
0200
0400
0400
0804
1ffc
1ffc
0000
0000
ENDCHAR
STARTCHAR U2212
ENCODING 8722
SWIDTH 1024 0
DWIDTH 16 0
BBX 16 16 0 -2
BITMAP
0000
0000
0000
0000
0000
0000
0000
3ffc
0000
0000
0000
0000
0000
0000
0000
0000
ENDCHAR
STARTCHAR U221a
ENCODING 8730
SWIDTH 1024 0
DWIDTH 16 0
BBX 16 16 0 -2
BITMAP
0000
0008
0008
0010
0010
0020
0020
0040
0040
0080
1080
3b00
2e00
0c00
0400
0000
ENDCHAR
STARTCHAR U221d
ENCODING 8733
SWIDTH 1024 0
DWIDTH 16 0
BBX 16 16 0 -2
BITMAP
0000
0000
0000
0000
0c1c
1220
2140
2080
2140
1220
0c1c
0000
0000
0000
0000
0000
ENDCHAR
STARTCHAR U221e
ENCODING 8734
SWIDTH 1024 0
DWIDTH 16 0
BBX 16 16 0 -2
BITMAP
0000
0000
0000
0000
0c18
1224
2142
2082
2142
1224
0c18
0000
0000
0000
0000
0000
ENDCHAR
STARTCHAR U221f
ENCODING 8735
SWIDTH 1024 0
DWIDTH 16 0
BBX 16 16 0 -2
BITMAP
0000
0000
1000
1000
1000
1000
1000
1000
1000
1000
1000
1000
1ffc
0000
0000
0000
ENDCHAR
STARTCHAR U2220
ENCODING 8736
SWIDTH 1024 0
DWIDTH 16 0
BBX 16 16 0 -2
BITMAP
0000
0000
0010
0020
0040
0080
0100
0200
0400
0800
1000
3ff0
0000
0000
0000
0000
ENDCHAR
STARTCHAR U2223
ENCODING 8739
SWIDTH 1024 0
DWIDTH 16 0
BBX 16 16 0 -2
BITMAP
0000
0000
0080
0080
0080
0080
0080
0080
0080
0080
0080
0080
0080
0000
0000
0000
ENDCHAR
STARTCHAR U2225
ENCODING 8741
SWIDTH 1024 0
DWIDTH 16 0
BBX 16 16 0 -2
BITMAP
0000
0240
0240
0240
0240
0240
0240
0240
0240
0240
0240
0240
0240
0240
0240
0000
ENDCHAR
STARTCHAR U2227
ENCODING 8743
SWIDTH 1024 0
DWIDTH 16 0
BBX 16 16 0 -2
BITMAP
0000
0080
0140
0220
0220
0410
0410
0808
0808
1004
1004
2002
2002
0000
0000
0000
ENDCHAR
STARTCHAR U2228
ENCODING 8744
SWIDTH 1024 0
DWIDTH 16 0
BBX 16 16 0 -2
BITMAP
0000
0000
0000
2002
2002
1004
1004
0808
0808
0410
0410
0220
0220
0140
0080
0000
ENDCHAR
STARTCHAR U2229
ENCODING 8745
SWIDTH 1024 0
DWIDTH 16 0
BBX 16 16 0 -2
BITMAP
0000
07f0
0c18
180c
1004
1004
1004
1004
1004
1004
1004
1004
1004
1004
1004
0000
ENDCHAR
STARTCHAR U222a
ENCODING 8746
SWIDTH 1024 0
DWIDTH 16 0
BBX 16 16 0 -2
BITMAP
0000
1004
1004
1004
1004
1004
1004
1004
1004
1004
1004
1004
180c
0c18
07f0
0000
ENDCHAR
STARTCHAR U222b
ENCODING 8747
SWIDTH 1024 0
DWIDTH 16 0
BBX 16 16 0 -2
BITMAP
0000
0000
0060
0090
0100
0100
0100
0100
0100
0100
0100
0100
1200
0c00
0000
0000
ENDCHAR
STARTCHAR U222c
ENCODING 8748
SWIDTH 1024 0
DWIDTH 16 0
BBX 16 16 0 -2
BITMAP
0e38
1248
1040
1040
1860
1860
0820
0c30
0c30
0410
0618
0618
0208
0208
1248
1c70
ENDCHAR
STARTCHAR U222e
ENCODING 8750
SWIDTH 1024 0
DWIDTH 16 0
BBX 16 16 0 -2
BITMAP
0000
0060
0090
0100
0100
0380
0540
0540
0540
0380
0100
0100
1200
0c00
0000
0000
ENDCHAR
STARTCHAR U2234
ENCODING 8756
SWIDTH 1024 0
DWIDTH 16 0
BBX 16 16 0 -2
BITMAP
0000
0000
0180
03c0
03c0
0180
0000
0000
0000
1818
3c3c
3c3c
1818
0000
0000
0000
ENDCHAR
STARTCHAR U2235
ENCODING 8757
SWIDTH 1024 0
DWIDTH 16 0
BBX 16 16 0 -2
BITMAP
0000
0000
0c0c
1e1e
1e1e
0c0c
0000
0000
0000
00c0
01e0
01e0
00c0
0000
0000
0000
ENDCHAR
STARTCHAR U2236
ENCODING 8758
SWIDTH 1024 0
DWIDTH 16 0
BBX 16 16 0 -2
BITMAP
0000
0000
0180
03c0
03c0
0180
0000
0000
0000
0180
03c0
03c0
0180
0000
0000
0000
ENDCHAR
STARTCHAR U2237
ENCODING 8759
SWIDTH 1024 0
DWIDTH 16 0
BBX 16 16 0 -2
BITMAP
0000
0000
1818
3c3c
3c3c
1818
0000
0000
0000
0000
1818
3c3c
3c3c
1818
0000
0000
ENDCHAR
STARTCHAR U223c
ENCODING 8764
SWIDTH 1024 0
DWIDTH 16 0
BBX 16 16 0 -2
BITMAP
0000
0000
0000
0c00
1f04
318c
20f8
0020
0000
0000
0000
0000
0000
0000
0000
0000
ENDCHAR
STARTCHAR U223d
ENCODING 8765
SWIDTH 1024 0
DWIDTH 16 0
BBX 16 16 0 -2
BITMAP
0000
0000
0000
0000
0c18
1024
2042
2082
2102
1204
0c18
0000
0000
0000
0000
0000
ENDCHAR
STARTCHAR U2248
ENCODING 8776
SWIDTH 1024 0
DWIDTH 16 0
BBX 16 16 0 -2
BITMAP
0000
0000
0000
0000
0e00
1104
2088
0e70
1104
2088
0070
0000
0000
0000
0000
0000
ENDCHAR
STARTCHAR U224c
ENCODING 8780
SWIDTH 1024 0
DWIDTH 16 0
BBX 16 16 0 -2
BITMAP
0000
0000
0418
0824
1042
1082
0904
0608
0000
1ffe
0000
1ffe
0000
0000
0000
0000
ENDCHAR
STARTCHAR U2252
ENCODING 8786
SWIDTH 1024 0
DWIDTH 16 0
BBX 16 16 0 -2
BITMAP
0000
0000
1800
1800
0000
3ffc
0000
0000
0000
3ffc
0000
0018
0018
0000
0000
0000
ENDCHAR
STARTCHAR U2260
ENCODING 8800
SWIDTH 1024 0
DWIDTH 16 0
BBX 16 16 0 -2
BITMAP
0000
0020
0020
0020
0040
1ffc
0040
0080
0080
0100
1ffc
0100
0200
0200
0200
0000
ENDCHAR
STARTCHAR U2261
ENCODING 8801
SWIDTH 1024 0
DWIDTH 16 0
BBX 16 16 0 -2
BITMAP
0000
0000
0000
0000
0000
1ffc
0000
1ffc
0000
1ffc
0000
0000
0000
0000
0000
0000
ENDCHAR
STARTCHAR U2264
ENCODING 8804
SWIDTH 1024 0
DWIDTH 16 0
BBX 16 16 0 -2
BITMAP
0006
0018
0060
0180
0600
1800
3000
1800
0600
2180
1860
0618
0186
0060
0018
0006
ENDCHAR
STARTCHAR U2265
ENCODING 8805
SWIDTH 1024 0
DWIDTH 16 0
BBX 16 16 0 -2
BITMAP
3000
0c00
0300
00c0
0030
000c
0006
000c
0030
00c2
030c
0c30
30c0
0300
0c00
3000
ENDCHAR
STARTCHAR U2266
ENCODING 8806
SWIDTH 1024 0
DWIDTH 16 0
BBX 16 16 0 -2
BITMAP
0000
0000
001c
00e0
0700
3800
0700
00e0
001c
0000
3ffc
0000
0000
3ffc
0000
0000
ENDCHAR
STARTCHAR U2267
ENCODING 8807
SWIDTH 1024 0
DWIDTH 16 0
BBX 16 16 0 -2
BITMAP
0000
0000
3800
0700
00e0
001c
00e0
0700
3800
0000
3ffc
0000
0000
3ffc
0000
0000
ENDCHAR
STARTCHAR U226a
ENCODING 8810
SWIDTH 1024 0
DWIDTH 16 0
BBX 16 16 0 -2
BITMAP
0000
0042
0084
0318
0420
18c0
2100
4200
2100
1080
0840
0630
0108
0084
0042
0000
ENDCHAR
STARTCHAR U226b
ENCODING 8811
SWIDTH 1024 0
DWIDTH 16 0
BBX 16 16 0 -2
BITMAP
0000
4200
2100
18c0
0420
0318
0084
0042
0084
0108
0210
0c60
1080
2100
4200
0000
ENDCHAR
STARTCHAR U226e
ENCODING 8814
SWIDTH 1024 0
DWIDTH 16 0
BBX 16 16 0 -2
BITMAP
0000
0000
020c
0230
02c0
0300
0e00
3200
6200
3200
0e00
0300
02c0
0230
020c
0000
ENDCHAR
STARTCHAR U226f
ENCODING 8815
SWIDTH 1024 0
DWIDTH 16 0
BBX 16 16 0 -2
BITMAP
0000
1820
0620
01a0
0060
0038
0026
0023
0026
0038
0060
01a0
0620
1820
0000
0000
ENDCHAR
STARTCHAR U2282
ENCODING 8834
SWIDTH 1024 0
DWIDTH 16 0
BBX 16 16 0 -2
BITMAP
0000
0000
0000
07fc
0800
1000
2000
2000
2000
2000
1000
0800
07fc
0000
0000
0000
ENDCHAR
STARTCHAR U2283
ENCODING 8835
SWIDTH 1024 0
DWIDTH 16 0
BBX 16 16 0 -2
BITMAP
0000
0000
0000
3fe0
0010
0008
0004
0004
0004
0004
0008
0010
3fe0
0000
0000
0000
ENDCHAR
STARTCHAR U2286
ENCODING 8838
SWIDTH 1024 0
DWIDTH 16 0
BBX 16 16 0 -2
BITMAP
0000
0000
0ffc
1000
2000
2000
2000
2000
1000
0ffc
0000
0000
3ffc
0000
0000
0000
ENDCHAR
STARTCHAR U2287
ENCODING 8839
SWIDTH 1024 0
DWIDTH 16 0
BBX 16 16 0 -2
BITMAP
0000
0000
3ff0
0008
0004
0004
0004
0004
0008
3ff0
0000
0000
3ffc
0000
0000
0000
ENDCHAR
STARTCHAR U2299
ENCODING 8857
SWIDTH 1024 0
DWIDTH 16 0
BBX 16 16 0 -2
BITMAP
03e0
0c18
1004
2002
2002
4081
41c1
43e1
41c1
4081
2002
2002
1004
0c18
03e0
0000
ENDCHAR
STARTCHAR U22a5
ENCODING 8869
SWIDTH 1024 0
DWIDTH 16 0
BBX 16 16 0 -2
BITMAP
0000
0080
0080
0080
0080
0080
0080
0080
0080
0080
0080
0080
0080
1ffc
0000
0000
ENDCHAR
STARTCHAR U22bf
ENCODING 8895
SWIDTH 1024 0
DWIDTH 16 0
BBX 16 16 0 -2
BITMAP
0000
0004
000c
0014
0024
0044
0084
0104
0204
0404
0804
1004
3ffc
0000
0000
0000
ENDCHAR
STARTCHAR U2312
ENCODING 8978
SWIDTH 1024 0
DWIDTH 16 0
BBX 16 16 0 -2
BITMAP
0000
0000
01c0
0630
0c18
0808
1004
1004
2002
2002
0000
0000
0000
0000
0000
0000
ENDCHAR
STARTCHAR U2460
ENCODING 9312
SWIDTH 1024 0
DWIDTH 16 0
BBX 16 16 0 -2
BITMAP
03e0
0c18
1044
21c2
20c2
40c1
40c1
40c1
40c1
40c1
20c2
21e2
1004
0c18
03e0
0000
ENDCHAR
STARTCHAR U2461
ENCODING 9313
SWIDTH 1024 0
DWIDTH 16 0
BBX 16 16 0 -2
BITMAP
03e0
0c18
11c4
2362
2632
4431
4031
4061
40c1
4181
2312
27f2
1004
0c18
03e0
0000
ENDCHAR
STARTCHAR U2462
ENCODING 9314
SWIDTH 1024 0
DWIDTH 16 0
BBX 16 16 0 -2
BITMAP
03e0
0c18
11c4
2362
2632
4231
4061
40c1
4061
4231
2632
2362
11c4
0c18
03e0
0000
ENDCHAR
STARTCHAR U2463
ENCODING 9315
SWIDTH 1024 0
DWIDTH 16 0
BBX 16 16 0 -2
BITMAP
03e0
0c18
1044
20c2
21c2
42c1
42c1
44c1
44c1
4ff1
20c2
20c2
11e4
0c18
03e0
0000
ENDCHAR
STARTCHAR U2464
ENCODING 9316
SWIDTH 1024 0
DWIDTH 16 0
BBX 16 16 0 -2
BITMAP
03e0
0c18
1004
27f2
27e2
4401
45c1
4761
4431
4031
2632
2362
11c4
0c18
03e0
0000
ENDCHAR
STARTCHAR U2465
ENCODING 9317
SWIDTH 1024 0
DWIDTH 16 0
BBX 16 16 0 -2
BITMAP
03e0
0c18
11e4
2332
2612
4601
46c1
4761
4731
4631
2632
2362
11c4
0c18
03e0
0000
ENDCHAR
STARTCHAR U2466
ENCODING 9318
SWIDTH 1024 0
DWIDTH 16 0
BBX 16 16 0 -2
BITMAP
03e0
0c18
1004
27f2
27f2
4431
4021
4061
4061
40c1
2182
2302
1304
0c18
03e0
0000
ENDCHAR
STARTCHAR U2467
ENCODING 9319
SWIDTH 1024 0
DWIDTH 16 0
BBX 16 16 0 -2
BITMAP
03e0
0c18
11c4
2362
2632
4631
4361
41c1
4361
4631
2632
2362
11c4
0c18
03e0
0000
ENDCHAR
STARTCHAR U2468
ENCODING 9320
SWIDTH 1024 0
DWIDTH 16 0
BBX 16 16 0 -2
BITMAP
03e0
0c18
1004
21c2
2362
4631
4631
4631
4371
40b1
2632
2362
11c4
0c18
03e0
0000
ENDCHAR
STARTCHAR U2469
ENCODING 9321
SWIDTH 1024 0
DWIDTH 16 0
BBX 16 16 0 -2
BITMAP
03e0
0c18
1274
2eda
26da
46d9
46d9
46d9
46d9
46d9
26da
2f72
1004
0c18
03e0
0000
ENDCHAR
STARTCHAR U246a
ENCODING 9322
SWIDTH 1024 0
DWIDTH 16 0
BBX 16 16 0 -2
BITMAP
0000
0ff0
1008
2424
4c62
4422
4422
4422
4422
4422
4422
4e72
2004
1008
0ff0
0000
ENDCHAR
STARTCHAR U246b
ENCODING 9323
SWIDTH 1024 0
DWIDTH 16 0
BBX 16 16 0 -2
BITMAP
0000
0ff0
1008
24e4
4d12
4592
4412
4462
4482
4502
450a
4ff2
2004
1008
0ff0
0000
ENDCHAR
STARTCHAR U246c
ENCODING 9324
SWIDTH 1024 0
DWIDTH 16 0
BBX 16 16 0 -2
BITMAP
0000
0ff0
1008
24e4
4d12
4412
4412
4462
4412
4512
4512
4ee2
2004
1008
0ff0
0000
ENDCHAR
STARTCHAR U246d
ENCODING 9325
SWIDTH 1024 0
DWIDTH 16 0
BBX 16 16 0 -2
BITMAP
0000
0ff0
1008
2424
4c62
4462
44a2
44a2
4522
47fa
4422
4e72
2004
1008
0ff0
0000
ENDCHAR
STARTCHAR U246e
ENCODING 9326
SWIDTH 1024 0
DWIDTH 16 0
BBX 16 16 0 -2
BITMAP
0000
0ff0
1008
25f4
4d02
4502
4562
4592
4412
4412
4512
4ee2
2004
1008
0ff0
0000
ENDCHAR
STARTCHAR U246f
ENCODING 9327
SWIDTH 1024 0
DWIDTH 16 0
BBX 16 16 0 -2
BITMAP
0000
0ff0
1008
24e4
4d12
4502
45e2
4512
4512
4512
4512
4ee2
2004
1008
0ff0
0000
ENDCHAR
STARTCHAR U2470
ENCODING 9328
SWIDTH 1024 0
DWIDTH 16 0
BBX 16 16 0 -2
BITMAP
0000
0ff0
1008
25f4
4d12
4512
4422
4422
4442
4442
4482
4e82
2004
1008
0ff0
0000
ENDCHAR
STARTCHAR U2471
ENCODING 9329
SWIDTH 1024 0
DWIDTH 16 0
BBX 16 16 0 -2
BITMAP
0000
0ff0
1008
24e4
4d12
4512
4512
44e2
4512
4512
4512
4ee2
2004
1008
0ff0
0000
ENDCHAR
STARTCHAR U2472
ENCODING 9330
SWIDTH 1024 0
DWIDTH 16 0
BBX 16 16 0 -2
BITMAP
0000
0ff0
1008
24e4
4d12
4512
4512
44f2
4412
4412
4512
4ee2
2004
1008
0ff0
0000
ENDCHAR
STARTCHAR U2473
ENCODING 9331
SWIDTH 1024 0
DWIDTH 16 0
BBX 16 16 0 -2
BITMAP
0000
0ff0
1008
2664
4992
4d92
4192
4692
4892
4892
4992
4f62
2004
1008
0ff0
0000
ENDCHAR
STARTCHAR U2474
ENCODING 9332
SWIDTH 1024 0
DWIDTH 16 0
BBX 16 16 0 -2
BITMAP
0000
0808
1084
1384
2182
2182
2182
2182
2182
2182
2182
2182
13c4
1004
0808
0000
ENDCHAR
STARTCHAR U2475
ENCODING 9333
SWIDTH 1024 0
DWIDTH 16 0
BBX 16 16 0 -2
BITMAP
0000
0808
11c4
1364
2632
2432
2032
2062
20c2
2182
2312
27f2
1004
1004
0808
0000
ENDCHAR
STARTCHAR U2476
ENCODING 9334
SWIDTH 1024 0
DWIDTH 16 0
BBX 16 16 0 -2
BITMAP
0000
0808
11c4
1364
2632
2232
2062
20c2
2062
2232
2632
2362
11c4
1004
0808
0000
ENDCHAR
STARTCHAR U2477
ENCODING 9335
SWIDTH 1024 0
DWIDTH 16 0
BBX 16 16 0 -2
BITMAP
0000
0848
10c4
11c4
22c2
22c2
24c2
24c2
28c2
2ff2
20c2
20c2
11e4
1004
0808
0000
ENDCHAR
STARTCHAR U2478
ENCODING 9336
SWIDTH 1024 0
DWIDTH 16 0
BBX 16 16 0 -2
BITMAP
0000
0808
1004
17f4
27e2
2402
25c2
2762
2432
2032
2632
2362
11c4
1004
0808
0000
ENDCHAR
STARTCHAR U2479
ENCODING 9337
SWIDTH 1024 0
DWIDTH 16 0
BBX 16 16 0 -2
BITMAP
0000
0808
11e4
1334
2612
2602
26c2
2762
2732
2632
2632
2362
11c4
1004
0808
0000
ENDCHAR
STARTCHAR U247a
ENCODING 9338
SWIDTH 1024 0
DWIDTH 16 0
BBX 16 16 0 -2
BITMAP
0000
0808
1004
17f4
27f2
2432
2022
2062
2062
20c2
2182
2302
1304
1204
0808
0000
ENDCHAR
STARTCHAR U247b
ENCODING 9339
SWIDTH 1024 0
DWIDTH 16 0
BBX 16 16 0 -2
BITMAP
0000
0808
11c4
1364
2632
2632
2362
21c2
2362
2632
2632
2362
11c4
1004
0808
0000
ENDCHAR
STARTCHAR U247c
ENCODING 9340
SWIDTH 1024 0
DWIDTH 16 0
BBX 16 16 0 -2
BITMAP
0000
0808
1004
11c4
2362
2632
2632
2632
2372
20b2
2632
2362
11c4
1004
0808
0000
ENDCHAR
STARTCHAR U247d
ENCODING 9341
SWIDTH 1024 0
DWIDTH 16 0
BBX 16 16 0 -2
BITMAP
0000
0808
1274
1edc
26da
26da
26da
26da
26da
26da
26da
26da
1f74
1004
0808
0000
ENDCHAR
STARTCHAR U247e
ENCODING 9342
SWIDTH 1024 0
DWIDTH 16 0
BBX 16 16 0 -2
BITMAP
0000
0808
1214
1e74
2632
2632
2632
2632
2632
2632
2632
2632
1f7c
1004
0808
0000
ENDCHAR
STARTCHAR U247f
ENCODING 9343
SWIDTH 1024 0
DWIDTH 16 0
BBX 16 16 0 -2
BITMAP
0000
0808
1274
1edc
279a
269a
261a
2632
2632
2662
2662
26ca
1ffc
1004
0808
0000
ENDCHAR
STARTCHAR U2480
ENCODING 9344
SWIDTH 1024 0
DWIDTH 16 0
BBX 16 16 0 -2
BITMAP
0000
0808
1274
1edc
279a
269a
263a
2632
261a
269a
279a
26da
1f74
1004
0808
0000
ENDCHAR
STARTCHAR U2481
ENCODING 9345
SWIDTH 1024 0
DWIDTH 16 0
BBX 16 16 0 -2
BITMAP
0000
0808
1214
1e34
2672
26f2
26b2
27b2
27b2
27fa
2632
2632
1f7c
1004
0808
0000
ENDCHAR
STARTCHAR U2482
ENCODING 9346
SWIDTH 1024 0
DWIDTH 16 0
BBX 16 16 0 -2
BITMAP
0000
0808
1204
1efc
26c2
26e2
26ba
261e
264e
26ce
26ce
26fa
1f7c
1004
0808
0000
ENDCHAR
STARTCHAR U2483
ENCODING 9347
SWIDTH 1024 0
DWIDTH 16 0
BBX 16 16 0 -2
BITMAP
0000
0808
1274
1efc
26ca
26c2
26f2
26fa
26da
26da
26da
26fa
1f74
1004
0808
0000
ENDCHAR
STARTCHAR U2484
ENCODING 9348
SWIDTH 1024 0
DWIDTH 16 0
BBX 16 16 0 -2
BITMAP
0000
0808
1204
1efc
261a
261a
261a
2632
2632
2632
2662
2662
1f64
1004
0808
0000
ENDCHAR
STARTCHAR U2485
ENCODING 9349
SWIDTH 1024 0
DWIDTH 16 0
BBX 16 16 0 -2
BITMAP
0000
0808
1274
1edc
27da
26da
26fa
2672
26da
26da
27da
26da
1f74
1004
0808
0000
ENDCHAR
STARTCHAR U2486
ENCODING 9350
SWIDTH 1024 0
DWIDTH 16 0
BBX 16 16 0 -2
BITMAP
0000
0808
1274
1edc
27da
26da
26da
267a
261a
265a
27da
26da
1f74
1004
0808
0000
ENDCHAR
STARTCHAR U2487
ENCODING 9351
SWIDTH 1024 0
DWIDTH 16 0
BBX 16 16 0 -2
BITMAP
0000
0808
1e74
1bdc
23da
23da
23da
26da
26da
2cda
2cda
39da
1f74
1004
0808
0000
ENDCHAR
STARTCHAR U2488
ENCODING 9352
SWIDTH 1024 0
DWIDTH 16 0
BBX 16 16 0 -2
BITMAP
0000
0100
0700
0300
0300
0300
0300
0300
0300
0300
0300
0300
0300
0330
07b0
0000
ENDCHAR
STARTCHAR U2489
ENCODING 9353
SWIDTH 1024 0
DWIDTH 16 0
BBX 16 16 0 -2
BITMAP
0000
0700
0d80
18c0
08c0
00c0
0080
0180
0300
0200
0600
0400
0c40
08d8
1fd8
0000
ENDCHAR
STARTCHAR U248a
ENCODING 9354
SWIDTH 1024 0
DWIDTH 16 0
BBX 16 16 0 -2
BITMAP
0000
0700
0d80
18c0
08c0
00c0
0080
0180
0700
0180
0080
08c0
18c0
08d8
0d98
0700
ENDCHAR
STARTCHAR U248b
ENCODING 9355
SWIDTH 1024 0
DWIDTH 16 0
BBX 16 16 0 -2
BITMAP
0000
0100
0300
0700
0b00
0b00
1300
1300
1300
3fe0
0300
0300
0300
0330
07b0
0000
ENDCHAR
STARTCHAR U248c
ENCODING 9356
SWIDTH 1024 0
DWIDTH 16 0
BBX 16 16 0 -2
BITMAP
0000
0fe0
0860
0820
0800
0800
0b80
0cc0
0840
0060
0060
0860
0860
04cc
038c
0000
ENDCHAR
STARTCHAR U248d
ENCODING 9357
SWIDTH 1024 0
DWIDTH 16 0
BBX 16 16 0 -2
BITMAP
0000
07c0
08e0
1840
1800
1800
1b80
1cc0
1840
1860
1860
1860
1860
0ccc
078c
0000
ENDCHAR
STARTCHAR U248e
ENCODING 9358
SWIDTH 1024 0
DWIDTH 16 0
BBX 16 16 0 -2
BITMAP
0000
1fe0
10c0
00c0
00c0
00c0
00c0
0180
0380
0300
0300
0600
0600
0630
0230
0000
ENDCHAR
STARTCHAR U248f
ENCODING 9359
SWIDTH 1024 0
DWIDTH 16 0
BBX 16 16 0 -2
BITMAP
0000
0700
0d80
18c0
18c0
18c0
0880
0580
0700
0d80
18c0
18c0
18c0
0d98
0718
0000
ENDCHAR
STARTCHAR U2490
ENCODING 9360
SWIDTH 1024 0
DWIDTH 16 0
BBX 16 16 0 -2
BITMAP
0000
0700
0d80
18c0
18c0
18c0
18c0
0dc0
06c0
00c0
00c0
10c0
18c0
0d98
0718
0000
ENDCHAR
STARTCHAR U2491
ENCODING 9361
SWIDTH 1024 0
DWIDTH 16 0
BBX 16 16 0 -2
BITMAP
0000
08e0
39b0
1b18
1b18
1b18
1b18
1b18
1b18
1b18
1b18
1b18
1b18
19b6
3ce6
0000
ENDCHAR
STARTCHAR U2492
ENCODING 9362
SWIDTH 1024 0
DWIDTH 16 0
BBX 16 16 0 -2
BITMAP
0000
0420
1ce0
0c60
0c60
0c60
0c60
0c60
0c60
0c60
0c60
0c60
0c60
0c66
1ef6
0000
ENDCHAR
STARTCHAR U2493
ENCODING 9363
SWIDTH 1024 0
DWIDTH 16 0
BBX 16 16 0 -2
BITMAP
0000
08e0
39b0
1b18
1b18
1918
1810
1830
1820
1860
1840
18c0
1888
199b
3dfb
0000
ENDCHAR
STARTCHAR U2494
ENCODING 9364
SWIDTH 1024 0
DWIDTH 16 0
BBX 16 16 0 -2
BITMAP
0000
08e0
39b0
1b18
1b18
1918
1810
1830
18e0
1870
1918
1b18
1b18
19b3
3ce3
0000
ENDCHAR
STARTCHAR U2495
ENCODING 9365
SWIDTH 1024 0
DWIDTH 16 0
BBX 16 16 0 -2
BITMAP
0000
0820
3860
18e0
18e0
1960
1960
1960
1a60
1a60
1a60
1ff8
1860
1863
3cf3
0000
ENDCHAR
STARTCHAR U2496
ENCODING 9366
SWIDTH 1024 0
DWIDTH 16 0
BBX 16 16 0 -2
BITMAP
0000
0bf8
3a08
1a00
1a00
1a00
1ae0
1b30
1a18
1818
1818
1a18
1b18
19b3
3ce3
0000
ENDCHAR
STARTCHAR U2497
ENCODING 9367
SWIDTH 1024 0
DWIDTH 16 0
BBX 16 16 0 -2
BITMAP
0000
08f0
39b8
1b10
1a00
1a00
1ae0
1bb0
1b18
1b18
1b18
1b18
1b18
19b3
3ce3
0000
ENDCHAR
STARTCHAR U2498
ENCODING 9368
SWIDTH 1024 0
DWIDTH 16 0
BBX 16 16 0 -2
BITMAP
0000
0bf8
3a18
1810
1830
1820
1860
1840
18c0
18c0
1880
1980
1980
1998
3d18
0000
ENDCHAR
STARTCHAR U2499
ENCODING 9369
SWIDTH 1024 0
DWIDTH 16 0
BBX 16 16 0 -2
BITMAP
0000
08e0
39b0
1b18
1b18
1b18
1910
18b0
18e0
19b0
1b18
1b18
1b18
19b3
3ce3
0000
ENDCHAR
STARTCHAR U249a
ENCODING 9370
SWIDTH 1024 0
DWIDTH 16 0
BBX 16 16 0 -2
BITMAP
0000
08e0
39b0
1b18
1b18
1b18
1b18
19b8
18d8
1818
1918
1b18
1b18
19b3
3ce3
0000
ENDCHAR
STARTCHAR U249b
ENCODING 9371
SWIDTH 1024 0
DWIDTH 16 0
BBX 16 16 0 -2
BITMAP
0000
1c70
36d8
26d8
66d8
26d8
06d8
06d8
04d8
0cd8
0cd8
18d8
18d8
32db
3e73
0000
ENDCHAR
STARTCHAR U249c
ENCODING 9372
SWIDTH 1024 0
DWIDTH 16 0
BBX 16 16 0 -2
BITMAP
0000
1818
2004
4002
4002
43c2
4422
4022
43e2
4422
4422
43da
4002
2004
1818
0000
ENDCHAR
STARTCHAR U249d
ENCODING 9373
SWIDTH 1024 0
DWIDTH 16 0
BBX 16 16 0 -2
BITMAP
0000
1818
2404
4c02
4402
45c2
4622
4412
4412
4412
4622
4dc2
4002
2004
1818
0000
ENDCHAR
STARTCHAR U249e
ENCODING 9374
SWIDTH 1024 0
DWIDTH 16 0
BBX 16 16 0 -2
BITMAP
0000
1818
2004
4002
4002
43c2
4422
4802
4802
4812
4422
43c2
4002
2004
1818
0000
ENDCHAR
STARTCHAR U249f
ENCODING 9375
SWIDTH 1024 0
DWIDTH 16 0
BBX 16 16 0 -2
BITMAP
0000
1818
2024
4062
4022
43a2
4462
4822
4822
4822
4462
43b2
4002
2004
1818
0000
ENDCHAR
STARTCHAR U24a0
ENCODING 9376
SWIDTH 1024 0
DWIDTH 16 0
BBX 16 16 0 -2
BITMAP
0000
1818
2004
4002
4002
47c2
4822
4822
4fe2
4802
4822
47c2
4002
2004
1818
0000
ENDCHAR
STARTCHAR U24a1
ENCODING 9377
SWIDTH 1024 0
DWIDTH 16 0
BBX 16 16 0 -2
BITMAP
0000
1818
20c4
4162
4102
47c2
4102
4102
4102
4102
4102
4382
4002
2004
1818
0000
ENDCHAR
STARTCHAR U24a2
ENCODING 9378
SWIDTH 1024 0
DWIDTH 16 0
BBX 16 16 0 -2
BITMAP
0000
1818
2004
4002
4032
43c2
4422
4422
4fc2
4802
47e2
4812
4812
27e4
1818
0000
ENDCHAR
STARTCHAR U24a3
ENCODING 9379
SWIDTH 1024 0
DWIDTH 16 0
BBX 16 16 0 -2
BITMAP
0000
1818
2404
4c02
4402
44e2
4722
4422
4422
4422
4422
4e72
4002
2004
1818
0000
ENDCHAR
STARTCHAR U24a4
ENCODING 9380
SWIDTH 1024 0
DWIDTH 16 0
BBX 16 16 0 -2
BITMAP
0000
1898
2084
4002
4002
4082
4182
4082
4082
4082
4082
41c2
4002
2004
1818
0000
ENDCHAR
STARTCHAR U24a5
ENCODING 9381
SWIDTH 1024 0
DWIDTH 16 0
BBX 16 16 0 -2
BITMAP
0000
1898
2084
4002
4002
4082
4182
4082
4082
4082
4082
4082
4482
2304
1818
0000
ENDCHAR
STARTCHAR U24a6
ENCODING 9382
SWIDTH 1024 0
DWIDTH 16 0
BBX 16 16 0 -2
BITMAP
0000
1818
2404
4c02
4402
44e2
4442
4482
4782
44c2
4462
4e72
4002
2004
1818
0000
ENDCHAR
STARTCHAR U24a7
ENCODING 9383
SWIDTH 1024 0
DWIDTH 16 0
BBX 16 16 0 -2
BITMAP
0000
1818
2104
4302
4102
4102
4102
4102
4102
4102
4102
4382
4002
2004
1818
0000
ENDCHAR
STARTCHAR U24a8
ENCODING 9384
SWIDTH 1024 0
DWIDTH 16 0
BBX 16 16 0 -2
BITMAP
0000
1818
2004
4002
4002
4b62
5da2
4922
4922
4922
4922
5db2
4002
2004
1818
0000
ENDCHAR
STARTCHAR U24a9
ENCODING 9385
SWIDTH 1024 0
DWIDTH 16 0
BBX 16 16 0 -2
BITMAP
0000
1818
2004
4002
4002
44e2
4f22
4422
4422
4422
4422
4e72
4002
2004
1818
0000
ENDCHAR
STARTCHAR U24aa
ENCODING 9386
SWIDTH 1024 0
DWIDTH 16 0
BBX 16 16 0 -2
BITMAP
0000
1818
2004
4002
4002
47c2
4822
4822
4822
4822
4822
47c2
4002
2004
1818
0000
ENDCHAR
STARTCHAR U24ab
ENCODING 9387
SWIDTH 1024 0
DWIDTH 16 0
BBX 16 16 0 -2
BITMAP
0000
1818
2004
4002
4002
45c2
4e22
4412
4412
4412
4622
45c2
4402
2e04
1818
0000
ENDCHAR
STARTCHAR U24ac
ENCODING 9388
SWIDTH 1024 0
DWIDTH 16 0
BBX 16 16 0 -2
BITMAP
0000
1818
2004
4002
4002
43a2
4462
4822
4822
4822
4462
43a2
4022
2074
1818
0000
ENDCHAR
STARTCHAR U24ad
ENCODING 9389
SWIDTH 1024 0
DWIDTH 16 0
BBX 16 16 0 -2
BITMAP
0000
1818
2004
4002
4002
44e2
4f32
4402
4402
4402
4402
4e02
4002
2004
1818
0000
ENDCHAR
STARTCHAR U24ae
ENCODING 9390
SWIDTH 1024 0
DWIDTH 16 0
BBX 16 16 0 -2
BITMAP
0000
1818
2004
4002
4002
43e2
4412
4402
43e2
4012
4412
43e2
4002
2004
1818
0000
ENDCHAR
STARTCHAR U24af
ENCODING 9391
SWIDTH 1024 0
DWIDTH 16 0
BBX 16 16 0 -2
BITMAP
0000
1818
2004
4002
4102
4102
47c2
4102
4102
4102
4122
41c2
4002
2004
1818
0000
ENDCHAR
STARTCHAR U24b0
ENCODING 9392
SWIDTH 1024 0
DWIDTH 16 0
BBX 16 16 0 -2
BITMAP
0000
1818
2004
4002
4002
4422
4c62
4422
4422
4422
4462
47b2
4002
2004
1818
0000
ENDCHAR
STARTCHAR U24b1
ENCODING 9393
SWIDTH 1024 0
DWIDTH 16 0
BBX 16 16 0 -2
BITMAP
0000
1818
2004
4002
4002
4e3a
4412
4222
4222
4142
4142
4082
4002
2004
1818
0000
ENDCHAR
STARTCHAR U24b2
ENCODING 9394
SWIDTH 1024 0
DWIDTH 16 0
BBX 16 16 0 -2
BITMAP
0000
1818
2004
4002
4002
5fba
4912
4912
44a2
45a2
4242
4242
4002
2004
1818
0000
ENDCHAR
STARTCHAR U24b3
ENCODING 9395
SWIDTH 1024 0
DWIDTH 16 0
BBX 16 16 0 -2
BITMAP
0000
1818
2004
4002
4002
4e72
4422
4242
4182
4242
4422
4e72
4002
2004
1818
0000
ENDCHAR
STARTCHAR U24b4
ENCODING 9396
SWIDTH 1024 0
DWIDTH 16 0
BBX 16 16 0 -2
BITMAP
0000
1818
2004
4002
4002
5c72
4822
4442
4282
4102
4102
4382
4002
2004
1818
0000
ENDCHAR
STARTCHAR U24b5
ENCODING 9397
SWIDTH 1024 0
DWIDTH 16 0
BBX 16 16 0 -2
BITMAP
0000
1818
2004
4002
4002
43f2
4222
4442
4082
4102
4212
47e2
4002
2004
1818
0000
ENDCHAR
STARTCHAR U24d0
ENCODING 9424
SWIDTH 1024 0
DWIDTH 16 0
BBX 16 16 0 -2
BITMAP
0000
0ff0
1008
2004
4002
47c2
4822
4022
47e2
4822
4822
47da
2004
1008
0ff0
0000
ENDCHAR
STARTCHAR U24d1
ENCODING 9425
SWIDTH 1024 0
DWIDTH 16 0
BBX 16 16 0 -2
BITMAP
0000
0ff0
1408
2c04
4402
45c2
4622
4412
4412
4412
4622
4dc2
2004
1008
0ff0
0000
ENDCHAR
STARTCHAR U24d2
ENCODING 9426
SWIDTH 1024 0
DWIDTH 16 0
BBX 16 16 0 -2
BITMAP
0000
0ff0
1008
2004
4002
43c2
4422
4802
4802
4802
4432
43c2
2004
1008
0ff0
0000
ENDCHAR
STARTCHAR U24d3
ENCODING 9427
SWIDTH 1024 0
DWIDTH 16 0
BBX 16 16 0 -2
BITMAP
0000
0ff0
1028
2064
4022
43a2
4462
4822
4822
4822
4822
47d2
2004
1008
0ff0
0000
ENDCHAR
STARTCHAR U24d4
ENCODING 9428
SWIDTH 1024 0
DWIDTH 16 0
BBX 16 16 0 -2
BITMAP
0000
0ff0
1008
2004
4002
43c2
4422
4812
4ff2
4802
4412
43e2
2004
1008
0ff0
0000
ENDCHAR
STARTCHAR U24d5
ENCODING 9429
SWIDTH 1024 0
DWIDTH 16 0
BBX 16 16 0 -2
BITMAP
0000
0ff0
11c8
2164
4102
47c2
4102
4102
4102
4102
4102
4382
2004
1008
0ff0
0000
ENDCHAR
STARTCHAR U24d6
ENCODING 9430
SWIDTH 1024 0
DWIDTH 16 0
BBX 16 16 0 -2
BITMAP
0000
0ff0
1008
2004
4062
43c2
4422
4422
47c2
4802
4fe2
4812
2814
17e8
0ff0
0000
ENDCHAR
STARTCHAR U24d7
ENCODING 9431
SWIDTH 1024 0
DWIDTH 16 0
BBX 16 16 0 -2
BITMAP
0000
0ff0
1408
2c04
4402
45e2
4622
4422
4422
4422
4422
4e72
2004
1008
0ff0
0000
ENDCHAR
STARTCHAR U24d8
ENCODING 9432
SWIDTH 1024 0
DWIDTH 16 0
BBX 16 16 0 -2
BITMAP
0000
0ff0
1088
2084
4002
4082
4182
4082
4082
4082
4082
41c2
2004
1008
0ff0
0000
ENDCHAR
STARTCHAR U24d9
ENCODING 9433
SWIDTH 1024 0
DWIDTH 16 0
BBX 16 16 0 -2
BITMAP
0000
0ff0
1088
2084
4002
4082
4182
4082
4082
4082
4082
4082
2c84
1308
0ff0
0000
ENDCHAR
STARTCHAR U24da
ENCODING 9434
SWIDTH 1024 0
DWIDTH 16 0
BBX 16 16 0 -2
BITMAP
0000
0ff0
1408
2c04
4402
44f2
4442
4582
46c2
4462
4432
4e7a
2004
1008
0ff0
0000
ENDCHAR
STARTCHAR U24db
ENCODING 9435
SWIDTH 1024 0
DWIDTH 16 0
BBX 16 16 0 -2
BITMAP
0000
0ff0
1108
2304
4102
4102
4102
4102
4102
4102
4102
4382
2004
1008
0ff0
0000
ENDCHAR
STARTCHAR U24dc
ENCODING 9436
SWIDTH 1024 0
DWIDTH 16 0
BBX 16 16 0 -2
BITMAP
0000
0ff0
1008
2004
4002
4b62
5da2
4922
4922
4922
4922
5db2
2004
1008
0ff0
0000
ENDCHAR
STARTCHAR U24dd
ENCODING 9437
SWIDTH 1024 0
DWIDTH 16 0
BBX 16 16 0 -2
BITMAP
0000
0ff0
1008
2004
4002
45e2
4e22
4422
4422
4422
4422
4e72
2004
1008
0ff0
0000
ENDCHAR
STARTCHAR U24de
ENCODING 9438
SWIDTH 1024 0
DWIDTH 16 0
BBX 16 16 0 -2
BITMAP
0000
0ff0
1008
2004
4002
43e2
4412
4412
4412
4412
4412
43e2
2004
1008
0ff0
0000
ENDCHAR
STARTCHAR U24df
ENCODING 9439
SWIDTH 1024 0
DWIDTH 16 0
BBX 16 16 0 -2
BITMAP
0000
0ff0
1008
2004
4002
45c2
4e22
4412
4412
4412
4622
45c2
2404
1408
0ff0
0000
ENDCHAR
STARTCHAR U24e0
ENCODING 9440
SWIDTH 1024 0
DWIDTH 16 0
BBX 16 16 0 -2
BITMAP
0000
0ff0
1008
2004
4002
43a2
4462
4822
4822
4822
4462
43a2
2024
1028
0ff0
0000
ENDCHAR
STARTCHAR U24e1
ENCODING 9441
SWIDTH 1024 0
DWIDTH 16 0
BBX 16 16 0 -2
BITMAP
0000
0ff0
1008
2004
4002
44e2
4f32
4402
4402
4402
4402
4e02
2004
1008
0ff0
0000
ENDCHAR
STARTCHAR U24e2
ENCODING 9442
SWIDTH 1024 0
DWIDTH 16 0
BBX 16 16 0 -2
BITMAP
0000
0ff0
1008
2004
4002
43e2
4412
4602
41c2
4032
4412
43e2
2004
1008
0ff0
0000
ENDCHAR
STARTCHAR U24e3
ENCODING 9443
SWIDTH 1024 0
DWIDTH 16 0
BBX 16 16 0 -2
BITMAP
0000
0ff0
1008
2004
4102
4102
47c2
4102
4102
4102
4122
41c2
2004
1008
0ff0
0000
ENDCHAR
STARTCHAR U24e4
ENCODING 9444
SWIDTH 1024 0
DWIDTH 16 0
BBX 16 16 0 -2
BITMAP
0000
0ff0
1008
2004
4002
4422
4c62
4422
4422
4422
4422
47d2
2004
1008
0ff0
0000
ENDCHAR
STARTCHAR U24e5
ENCODING 9445
SWIDTH 1024 0
DWIDTH 16 0
BBX 16 16 0 -2
BITMAP
0000
0ff0
1008
2004
4002
4e3a
4412
4222
4222
4142
4142
4082
2004
1008
0ff0
0000
ENDCHAR
STARTCHAR U24e6
ENCODING 9446
SWIDTH 1024 0
DWIDTH 16 0
BBX 16 16 0 -2
BITMAP
0000
0ff0
1008
2004
4002
7bba
5112
5112
49a2
4aa2
4442
4442
2004
1008
0ff0
0000
ENDCHAR
STARTCHAR U24e7
ENCODING 9447
SWIDTH 1024 0
DWIDTH 16 0
BBX 16 16 0 -2
BITMAP
0000
0ff0
1008
2004
4002
5c72
4442
4282
4102
4282
4442
5c72
2004
1008
0ff0
0000
ENDCHAR
STARTCHAR U24e8
ENCODING 9448
SWIDTH 1024 0
DWIDTH 16 0
BBX 16 16 0 -2
BITMAP
0000
0ff0
1008
2004
4002
5c72
4822
4442
4282
4102
4102
4382
2004
1008
0ff0
0000
ENDCHAR
STARTCHAR U24e9
ENCODING 9449
SWIDTH 1024 0
DWIDTH 16 0
BBX 16 16 0 -2
BITMAP
0000
0ff0
1008
2004
4002
47e2
4422
4842
4182
4202
4422
4fc2
2004
1008
0ff0
0000
ENDCHAR
STARTCHAR U2500
ENCODING 9472
SWIDTH 1024 0
DWIDTH 16 0
BBX 16 16 0 -2
BITMAP
0000
0000
0000
0000
0000
0000
0000
ffff
0000
0000
0000
0000
0000
0000
0000
0000
ENDCHAR
STARTCHAR U2501
ENCODING 9473
SWIDTH 1024 0
DWIDTH 16 0
BBX 16 16 0 -2
BITMAP
0000
0000
0000
0000
0000
0000
0000
ffff
ffff
0000
0000
0000
0000
0000
0000
0000
ENDCHAR
STARTCHAR U2502
ENCODING 9474
SWIDTH 1024 0
DWIDTH 16 0
BBX 16 16 0 -2
BITMAP
0100
0100
0100
0100
0100
0100
0100
0100
0100
0100
0100
0100
0100
0100
0100
0100
ENDCHAR
STARTCHAR U2503
ENCODING 9475
SWIDTH 1024 0
DWIDTH 16 0
BBX 16 16 0 -2
BITMAP
0180
0180
0180
0180
0180
0180
0180
0180
0180
0180
0180
0180
0180
0180
0180
0180
ENDCHAR
STARTCHAR U2504
ENCODING 9476
SWIDTH 1024 0
DWIDTH 16 0
BBX 16 16 0 -2
BITMAP
0000
0000
0000
0000
0000
0000
0000
739c
0000
0000
0000
0000
0000
0000
0000
0000
ENDCHAR
STARTCHAR U2505
ENCODING 9477
SWIDTH 1024 0
DWIDTH 16 0
BBX 16 16 0 -2
BITMAP
0000
0000
0000
0000
0000
0000
0000
739c
739c
0000
0000
0000
0000
0000
0000
0000
ENDCHAR
STARTCHAR U2506
ENCODING 9478
SWIDTH 1024 0
DWIDTH 16 0
BBX 16 16 0 -2
BITMAP
0000
0100
0100
0100
0000
0000
0100
0100
0100
0000
0000
0100
0100
0100
0000
0000
ENDCHAR
STARTCHAR U2507
ENCODING 9479
SWIDTH 1024 0
DWIDTH 16 0
BBX 16 16 0 -2
BITMAP
0000
0180
0180
0180
0000
0000
0180
0180
0180
0000
0000
0180
0180
0180
0000
0000
ENDCHAR
STARTCHAR U2508
ENCODING 9480
SWIDTH 1024 0
DWIDTH 16 0
BBX 16 16 0 -2
BITMAP
0000
0000
0000
0000
0000
0000
0000
eeee
0000
0000
0000
0000
0000
0000
0000
0000
ENDCHAR
STARTCHAR U2509
ENCODING 9481
SWIDTH 1024 0
DWIDTH 16 0
BBX 16 16 0 -2
BITMAP
0000
0000
0000
0000
0000
0000
0000
eeee
eeee
0000
0000
0000
0000
0000
0000
0000
ENDCHAR
STARTCHAR U250a
ENCODING 9482
SWIDTH 1024 0
DWIDTH 16 0
BBX 16 16 0 -2
BITMAP
0100
0100
0100
0000
0100
0100
0100
0000
0100
0100
0100
0000
0100
0100
0100
0000
ENDCHAR
STARTCHAR U250b
ENCODING 9483
SWIDTH 1024 0
DWIDTH 16 0
BBX 16 16 0 -2
BITMAP
0180
0180
0180
0000
0180
0180
0180
0000
0180
0180
0180
0000
0180
0180
0180
0000
ENDCHAR
STARTCHAR U250c
ENCODING 9484
SWIDTH 1024 0
DWIDTH 16 0
BBX 16 16 0 -2
BITMAP
0000
0000
0000
0000
0000
0000
0000
01ff
0100
0100
0100
0100
0100
0100
0100
0100
ENDCHAR
STARTCHAR U250d
ENCODING 9485
SWIDTH 1024 0
DWIDTH 16 0
BBX 16 16 0 -2
BITMAP
0000
0000
0000
0000
0000
0000
0000
01ff
01ff
0100
0100
0100
0100
0100
0100
0100
ENDCHAR
STARTCHAR U250e
ENCODING 9486
SWIDTH 1024 0
DWIDTH 16 0
BBX 16 16 0 -2
BITMAP
0000
0000
0000
0000
0000
0000
0000
01ff
0180
0180
0180
0180
0180
0180
0180
0180
ENDCHAR
STARTCHAR U250f
ENCODING 9487
SWIDTH 1024 0
DWIDTH 16 0
BBX 16 16 0 -2
BITMAP
0000
0000
0000
0000
0000
0000
0000
01ff
01ff
0180
0180
0180
0180
0180
0180
0180
ENDCHAR
STARTCHAR U2510
ENCODING 9488
SWIDTH 1024 0
DWIDTH 16 0
BBX 16 16 0 -2
BITMAP
0000
0000
0000
0000
0000
0000
0000
ff00
0100
0100
0100
0100
0100
0100
0100
0100
ENDCHAR
STARTCHAR U2511
ENCODING 9489
SWIDTH 1024 0
DWIDTH 16 0
BBX 16 16 0 -2
BITMAP
0000
0000
0000
0000
0000
0000
0000
ff00
ff00
0100
0100
0100
0100
0100
0100
0100
ENDCHAR
STARTCHAR U2512
ENCODING 9490
SWIDTH 1024 0
DWIDTH 16 0
BBX 16 16 0 -2
BITMAP
0000
0000
0000
0000
0000
0000
0000
ff80
0180
0180
0180
0180
0180
0180
0180
0180
ENDCHAR
STARTCHAR U2513
ENCODING 9491
SWIDTH 1024 0
DWIDTH 16 0
BBX 16 16 0 -2
BITMAP
0000
0000
0000
0000
0000
0000
0000
ff80
ff80
0180
0180
0180
0180
0180
0180
0180
ENDCHAR
STARTCHAR U2514
ENCODING 9492
SWIDTH 1024 0
DWIDTH 16 0
BBX 16 16 0 -2
BITMAP
0100
0100
0100
0100
0100
0100
0100
01ff
0000
0000
0000
0000
0000
0000
0000
0000
ENDCHAR
STARTCHAR U2515
ENCODING 9493
SWIDTH 1024 0
DWIDTH 16 0
BBX 16 16 0 -2
BITMAP
0100
0100
0100
0100
0100
0100
0100
01ff
01ff
0000
0000
0000
0000
0000
0000
0000
ENDCHAR
STARTCHAR U2516
ENCODING 9494
SWIDTH 1024 0
DWIDTH 16 0
BBX 16 16 0 -2
BITMAP
0300
0300
0300
0300
0300
0300
0300
03ff
0000
0000
0000
0000
0000
0000
0000
0000
ENDCHAR
STARTCHAR U2517
ENCODING 9495
SWIDTH 1024 0
DWIDTH 16 0
BBX 16 16 0 -2
BITMAP
0180
0180
0180
0180
0180
0180
0180
01ff
01ff
0000
0000
0000
0000
0000
0000
0000
ENDCHAR
STARTCHAR U2518
ENCODING 9496
SWIDTH 1024 0
DWIDTH 16 0
BBX 16 16 0 -2
BITMAP
0100
0100
0100
0100
0100
0100
0100
ff00
0000
0000
0000
0000
0000
0000
0000
0000
ENDCHAR
STARTCHAR U2519
ENCODING 9497
SWIDTH 1024 0
DWIDTH 16 0
BBX 16 16 0 -2
BITMAP
0100
0100
0100
0100
0100
0100
0100
ff00
ff00
0000
0000
0000
0000
0000
0000
0000
ENDCHAR
STARTCHAR U251a
ENCODING 9498
SWIDTH 1024 0
DWIDTH 16 0
BBX 16 16 0 -2
BITMAP
0180
0180
0180
0180
0180
0180
0180
ff80
0000
0000
0000
0000
0000
0000
0000
0000
ENDCHAR
STARTCHAR U251b
ENCODING 9499
SWIDTH 1024 0
DWIDTH 16 0
BBX 16 16 0 -2
BITMAP
0180
0180
0180
0180
0180
0180
0180
ff80
ff80
0000
0000
0000
0000
0000
0000
0000
ENDCHAR
STARTCHAR U251c
ENCODING 9500
SWIDTH 1024 0
DWIDTH 16 0
BBX 16 16 0 -2
BITMAP
0100
0100
0100
0100
0100
0100
0100
01ff
0100
0100
0100
0100
0100
0100
0100
0100
ENDCHAR
STARTCHAR U251d
ENCODING 9501
SWIDTH 1024 0
DWIDTH 16 0
BBX 16 16 0 -2
BITMAP
0100
0100
0100
0100
0100
0100
0100
01ff
01ff
0100
0100
0100
0100
0100
0100
0100
ENDCHAR
STARTCHAR U251e
ENCODING 9502
SWIDTH 1024 0
DWIDTH 16 0
BBX 16 16 0 -2
BITMAP
0180
0180
0180
0180
0180
0180
0180
01ff
0100
0100
0100
0100
0100
0100
0100
0100
ENDCHAR
STARTCHAR U251f
ENCODING 9503
SWIDTH 1024 0
DWIDTH 16 0
BBX 16 16 0 -2
BITMAP
0100
0100
0100
0100
0100
0100
0100
01ff
0180
0180
0180
0180
0180
0180
0180
0180
ENDCHAR
STARTCHAR U2520
ENCODING 9504
SWIDTH 1024 0
DWIDTH 16 0
BBX 16 16 0 -2
BITMAP
0180
0180
0180
0180
0180
0180
0180
01ff
0180
0180
0180
0180
0180
0180
0180
0180
ENDCHAR
STARTCHAR U2521
ENCODING 9505
SWIDTH 1024 0
DWIDTH 16 0
BBX 16 16 0 -2
BITMAP
0180
0180
0180
0180
0180
0180
0180
01ff
01ff
0100
0100
0100
0100
0100
0100
0100
ENDCHAR
STARTCHAR U2522
ENCODING 9506
SWIDTH 1024 0
DWIDTH 16 0
BBX 16 16 0 -2
BITMAP
0100
0100
0100
0100
0100
0100
0100
01ff
01ff
0180
0180
0180
0180
0180
0180
0180
ENDCHAR
STARTCHAR U2523
ENCODING 9507
SWIDTH 1024 0
DWIDTH 16 0
BBX 16 16 0 -2
BITMAP
0180
0180
0180
0180
0180
0180
0180
01ff
01ff
0180
0180
0180
0180
0180
0180
0180
ENDCHAR
STARTCHAR U2524
ENCODING 9508
SWIDTH 1024 0
DWIDTH 16 0
BBX 16 16 0 -2
BITMAP
0100
0100
0100
0100
0100
0100
0100
ff00
0100
0100
0100
0100
0100
0100
0100
0100
ENDCHAR
STARTCHAR U2525
ENCODING 9509
SWIDTH 1024 0
DWIDTH 16 0
BBX 16 16 0 -2
BITMAP
0100
0100
0100
0100
0100
0100
0100
ff00
ff00
0100
0100
0100
0100
0100
0100
0100
ENDCHAR
STARTCHAR U2526
ENCODING 9510
SWIDTH 1024 0
DWIDTH 16 0
BBX 16 16 0 -2
BITMAP
0180
0180
0180
0180
0180
0180
0180
ff80
0100
0100
0100
0100
0100
0100
0100
0100
ENDCHAR
STARTCHAR U2527
ENCODING 9511
SWIDTH 1024 0
DWIDTH 16 0
BBX 16 16 0 -2
BITMAP
0100
0100
0100
0100
0100
0100
0100
ff80
0180
0180
0180
0180
0180
0180
0180
0180
ENDCHAR
STARTCHAR U2528
ENCODING 9512
SWIDTH 1024 0
DWIDTH 16 0
BBX 16 16 0 -2
BITMAP
0180
0180
0180
0180
0180
0180
0180
ff80
0180
0180
0180
0180
0180
0180
0180
0180
ENDCHAR
STARTCHAR U2529
ENCODING 9513
SWIDTH 1024 0
DWIDTH 16 0
BBX 16 16 0 -2
BITMAP
0180
0180
0180
0180
0180
0180
0180
ff80
ff80
0100
0100
0100
0100
0100
0100
0100
ENDCHAR
STARTCHAR U252a
ENCODING 9514
SWIDTH 1024 0
DWIDTH 16 0
BBX 16 16 0 -2
BITMAP
0100
0100
0100
0100
0100
0100
0100
ff80
ff80
0180
0180
0180
0180
0180
0180
0180
ENDCHAR
STARTCHAR U252b
ENCODING 9515
SWIDTH 1024 0
DWIDTH 16 0
BBX 16 16 0 -2
BITMAP
0180
0180
0180
0180
0180
0180
0180
ff80
ff80
0180
0180
0180
0180
0180
0180
0180
ENDCHAR
STARTCHAR U252c
ENCODING 9516
SWIDTH 1024 0
DWIDTH 16 0
BBX 16 16 0 -2
BITMAP
0000
0000
0000
0000
0000
0000
0000
ffff
0100
0100
0100
0100
0100
0100
0100
0100
ENDCHAR
STARTCHAR U252d
ENCODING 9517
SWIDTH 1024 0
DWIDTH 16 0
BBX 16 16 0 -2
BITMAP
0000
0000
0000
0000
0000
0000
0000
ffff
ff00
0100
0100
0100
0100
0100
0100
0100
ENDCHAR
STARTCHAR U252e
ENCODING 9518
SWIDTH 1024 0
DWIDTH 16 0
BBX 16 16 0 -2
BITMAP
0000
0000
0000
0000
0000
0000
0000
ffff
01ff
0100
0100
0100
0100
0100
0100
0100
ENDCHAR
STARTCHAR U252f
ENCODING 9519
SWIDTH 1024 0
DWIDTH 16 0
BBX 16 16 0 -2
BITMAP
0000
0000
0000
0000
0000
0000
0000
ffff
ffff
0100
0100
0100
0100
0100
0100
0100
ENDCHAR
STARTCHAR U2530
ENCODING 9520
SWIDTH 1024 0
DWIDTH 16 0
BBX 16 16 0 -2
BITMAP
0000
0000
0000
0000
0000
0000
0000
ffff
0300
0300
0300
0300
0300
0300
0300
0300
ENDCHAR
STARTCHAR U2531
ENCODING 9521
SWIDTH 1024 0
DWIDTH 16 0
BBX 16 16 0 -2
BITMAP
0000
0000
0000
0000
0000
0000
0000
ffff
ff00
0300
0300
0300
0300
0300
0300
0300
ENDCHAR
STARTCHAR U2532
ENCODING 9522
SWIDTH 1024 0
DWIDTH 16 0
BBX 16 16 0 -2
BITMAP
0000
0000
0000
0000
0000
0000
0000
ffff
01ff
0180
0180
0180
0180
0180
0180
0180
ENDCHAR
STARTCHAR U2533
ENCODING 9523
SWIDTH 1024 0
DWIDTH 16 0
BBX 16 16 0 -2
BITMAP
0000
0000
0000
0000
0000
0000
0000
ffff
ffff
0180
0180
0180
0180
0180
0180
0180
ENDCHAR
STARTCHAR U2534
ENCODING 9524
SWIDTH 1024 0
DWIDTH 16 0
BBX 16 16 0 -2
BITMAP
0100
0100
0100
0100
0100
0100
0100
ffff
0000
0000
0000
0000
0000
0000
0000
0000
ENDCHAR
STARTCHAR U2535
ENCODING 9525
SWIDTH 1024 0
DWIDTH 16 0
BBX 16 16 0 -2
BITMAP
0100
0100
0100
0100
0100
0100
0100
ffff
ff00
0000
0000
0000
0000
0000
0000
0000
ENDCHAR
STARTCHAR U2536
ENCODING 9526
SWIDTH 1024 0
DWIDTH 16 0
BBX 16 16 0 -2
BITMAP
0100
0100
0100
0100
0100
0100
0100
ffff
01ff
0000
0000
0000
0000
0000
0000
0000
ENDCHAR
STARTCHAR U2537
ENCODING 9527
SWIDTH 1024 0
DWIDTH 16 0
BBX 16 16 0 -2
BITMAP
0100
0100
0100
0100
0100
0100
0100
ffff
ffff
0000
0000
0000
0000
0000
0000
0000
ENDCHAR
STARTCHAR U2538
ENCODING 9528
SWIDTH 1024 0
DWIDTH 16 0
BBX 16 16 0 -2
BITMAP
0180
0180
0180
0180
0180
0180
0180
ffff
0000
0000
0000
0000
0000
0000
0000
0000
ENDCHAR
STARTCHAR U2539
ENCODING 9529
SWIDTH 1024 0
DWIDTH 16 0
BBX 16 16 0 -2
BITMAP
0180
0180
0180
0180
0180
0180
0180
ffff
ff80
0000
0000
0000
0000
0000
0000
0000
ENDCHAR
STARTCHAR U253a
ENCODING 9530
SWIDTH 1024 0
DWIDTH 16 0
BBX 16 16 0 -2
BITMAP
0180
0180
0180
0180
0180
0180
0180
ffff
01ff
0000
0000
0000
0000
0000
0000
0000
ENDCHAR
STARTCHAR U253b
ENCODING 9531
SWIDTH 1024 0
DWIDTH 16 0
BBX 16 16 0 -2
BITMAP
0180
0180
0180
0180
0180
0180
0180
ffff
ffff
0000
0000
0000
0000
0000
0000
0000
ENDCHAR
STARTCHAR U253c
ENCODING 9532
SWIDTH 1024 0
DWIDTH 16 0
BBX 16 16 0 -2
BITMAP
0100
0100
0100
0100
0100
0100
0100
ffff
0100
0100
0100
0100
0100
0100
0100
0100
ENDCHAR
STARTCHAR U253d
ENCODING 9533
SWIDTH 1024 0
DWIDTH 16 0
BBX 16 16 0 -2
BITMAP
0100
0100
0100
0100
0100
0100
0100
ffff
ff00
0100
0100
0100
0100
0100
0100
0100
ENDCHAR
STARTCHAR U253e
ENCODING 9534
SWIDTH 1024 0
DWIDTH 16 0
BBX 16 16 0 -2
BITMAP
0100
0100
0100
0100
0100
0100
0100
ffff
01ff
0100
0100
0100
0100
0100
0100
0100
ENDCHAR
STARTCHAR U253f
ENCODING 9535
SWIDTH 1024 0
DWIDTH 16 0
BBX 16 16 0 -2
BITMAP
0100
0100
0100
0100
0100
0100
0100
ffff
ffff
0100
0100
0100
0100
0100
0100
0100
ENDCHAR
STARTCHAR U2540
ENCODING 9536
SWIDTH 1024 0
DWIDTH 16 0
BBX 16 16 0 -2
BITMAP
0180
0180
0180
0180
0180
0180
0180
ffff
0100
0100
0100
0100
0100
0100
0100
0100
ENDCHAR
STARTCHAR U2541
ENCODING 9537
SWIDTH 1024 0
DWIDTH 16 0
BBX 16 16 0 -2
BITMAP
0100
0100
0100
0100
0100
0100
0100
ffff
0180
0180
0180
0180
0180
0180
0180
0180
ENDCHAR
STARTCHAR U2542
ENCODING 9538
SWIDTH 1024 0
DWIDTH 16 0
BBX 16 16 0 -2
BITMAP
0180
0180
0180
0180
0180
0180
0180
ffff
0180
0180
0180
0180
0180
0180
0180
0180
ENDCHAR
STARTCHAR U2543
ENCODING 9539
SWIDTH 1024 0
DWIDTH 16 0
BBX 16 16 0 -2
BITMAP
0180
0180
0180
0180
0180
0180
0180
ffff
ff80
0100
0100
0100
0100
0100
0100
0100
ENDCHAR
STARTCHAR U2544
ENCODING 9540
SWIDTH 1024 0
DWIDTH 16 0
BBX 16 16 0 -2
BITMAP
0180
0180
0180
0180
0180
0180
0180
ffff
01ff
0100
0100
0100
0100
0100
0100
0100
ENDCHAR
STARTCHAR U2545
ENCODING 9541
SWIDTH 1024 0
DWIDTH 16 0
BBX 16 16 0 -2
BITMAP
0100
0100
0100
0100
0100
0100
0100
ffff
ff80
0180
0180
0180
0180
0180
0180
0180
ENDCHAR
STARTCHAR U2546
ENCODING 9542
SWIDTH 1024 0
DWIDTH 16 0
BBX 16 16 0 -2
BITMAP
0100
0100
0100
0100
0100
0100
0100
ffff
01ff
0180
0180
0180
0180
0180
0180
0180
ENDCHAR
STARTCHAR U2547
ENCODING 9543
SWIDTH 1024 0
DWIDTH 16 0
BBX 16 16 0 -2
BITMAP
0180
0180
0180
0180
0180
0180
0180
ffff
ffff
0100
0100
0100
0100
0100
0100
0100
ENDCHAR
STARTCHAR U2548
ENCODING 9544
SWIDTH 1024 0
DWIDTH 16 0
BBX 16 16 0 -2
BITMAP
0100
0100
0100
0100
0100
0100
0100
ffff
ffff
0180
0180
0180
0180
0180
0180
0180
ENDCHAR
STARTCHAR U2549
ENCODING 9545
SWIDTH 1024 0
DWIDTH 16 0
BBX 16 16 0 -2
BITMAP
0000
0300
0300
0300
0300
0300
0300
7ffc
7f00
0300
0300
0300
0300
0300
0300
0000
ENDCHAR
STARTCHAR U254a
ENCODING 9546
SWIDTH 1024 0
DWIDTH 16 0
BBX 16 16 0 -2
BITMAP
0180
0180
0180
0180
0180
0180
0180
ffff
01ff
0180
0180
0180
0180
0180
0180
0180
ENDCHAR
STARTCHAR U254b
ENCODING 9547
SWIDTH 1024 0
DWIDTH 16 0
BBX 16 16 0 -2
BITMAP
0180
0180
0180
0180
0180
0180
0180
ffff
ffff
0180
0180
0180
0180
0180
0180
0180
ENDCHAR
STARTCHAR U2550
ENCODING 9552
SWIDTH 1024 0
DWIDTH 16 0
BBX 16 16 0 -2
BITMAP
0000
0000
0000
0000
0000
ffff
0000
0000
0000
0000
ffff
0000
0000
0000
0000
0000
ENDCHAR
STARTCHAR U255e
ENCODING 9566
SWIDTH 1024 0
DWIDTH 16 0
BBX 16 16 0 -2
BITMAP
0080
0080
0080
0080
0080
00ff
0080
0080
0080
0080
00ff
0080
0080
0080
0080
0000
ENDCHAR
STARTCHAR U2561
ENCODING 9569
SWIDTH 1024 0
DWIDTH 16 0
BBX 16 16 0 -2
BITMAP
0080
0080
0080
0080
0080
ff80
0080
0080
0080
0080
ff80
0080
0080
0080
0080
0000
ENDCHAR
STARTCHAR U256a
ENCODING 9578
SWIDTH 1024 0
DWIDTH 16 0
BBX 16 16 0 -2
BITMAP
0080
0080
0080
0080
0080
ffff
0080
0080
0080
0080
ffff
0080
0080
0080
0080
0000
ENDCHAR
STARTCHAR U256d
ENCODING 9581
SWIDTH 1024 0
DWIDTH 16 0
BBX 16 16 0 -2
BITMAP
0000
0000
0000
0000
0000
0000
0000
0007
0018
0020
0040
0040
0080
0080
0080
0000
ENDCHAR
STARTCHAR U256e
ENCODING 9582
SWIDTH 1024 0
DWIDTH 16 0
BBX 16 16 0 -2
BITMAP
0000
0000
0000
0000
0000
0000
0000
f000
0c00
0200
0100
0100
0080
0080
0080
0000
ENDCHAR
STARTCHAR U256f
ENCODING 9583
SWIDTH 1024 0
DWIDTH 16 0
BBX 16 16 0 -2
BITMAP
0080
0080
0080
0100
0100
0200
0c00
f000
0000
0000
0000
0000
0000
0000
0000
0000
ENDCHAR
STARTCHAR U2570
ENCODING 9584
SWIDTH 1024 0
DWIDTH 16 0
BBX 16 16 0 -2
BITMAP
0080
0080
0080
0040
0040
0020
0018
0007
0000
0000
0000
0000
0000
0000
0000
0000
ENDCHAR
STARTCHAR U2571
ENCODING 9585
SWIDTH 1024 0
DWIDTH 16 0
BBX 16 16 0 -2
BITMAP
0001
0002
0004
0008
0010
0020
0040
0080
0100
0200
0400
0800
1000
2000
4000
0000
ENDCHAR
STARTCHAR U2572
ENCODING 9586
SWIDTH 1024 0
DWIDTH 16 0
BBX 16 16 0 -2
BITMAP
8000
4000
2000
1000
0800
0400
0200
0100
0080
0040
0020
0010
0008
0004
0002
0000
ENDCHAR
STARTCHAR U2573
ENCODING 9587
SWIDTH 1024 0
DWIDTH 16 0
BBX 16 16 0 -2
BITMAP
8001
4002
2004
1008
0810
0420
0240
0180
0180
0240
0420
0810
1008
2004
4002
0000
ENDCHAR
STARTCHAR U2581
ENCODING 9601
SWIDTH 1024 0
DWIDTH 16 0
BBX 16 16 0 -2
BITMAP
0000
0000
0000
0000
0000
0000
0000
0000
0000
0000
0000
0000
0000
0000
ffff
0000
ENDCHAR
STARTCHAR U2582
ENCODING 9602
SWIDTH 1024 0
DWIDTH 16 0
BBX 16 16 0 -2
BITMAP
0000
0000
0000
0000
0000
0000
0000
0000
0000
0000
0000
0000
ffff
ffff
ffff
0000
ENDCHAR
STARTCHAR U2583
ENCODING 9603
SWIDTH 1024 0
DWIDTH 16 0
BBX 16 16 0 -2
BITMAP
0000
0000
0000
0000
0000
0000
0000
0000
0000
0000
ffff
ffff
ffff
ffff
ffff
0000
ENDCHAR
STARTCHAR U2584
ENCODING 9604
SWIDTH 1024 0
DWIDTH 16 0
BBX 16 16 0 -2
BITMAP
0000
0000
0000
0000
0000
0000
0000
0000
ffff
ffff
ffff
ffff
ffff
ffff
ffff
0000
ENDCHAR
STARTCHAR U2585
ENCODING 9605
SWIDTH 1024 0
DWIDTH 16 0
BBX 16 16 0 -2
BITMAP
0000
0000
0000
0000
0000
0000
ffff
ffff
ffff
ffff
ffff
ffff
ffff
ffff
ffff
0000
ENDCHAR
STARTCHAR U2586
ENCODING 9606
SWIDTH 1024 0
DWIDTH 16 0
BBX 16 16 0 -2
BITMAP
0000
0000
0000
0000
ffff
ffff
ffff
ffff
ffff
ffff
ffff
ffff
ffff
ffff
ffff
0000
ENDCHAR
STARTCHAR U2587
ENCODING 9607
SWIDTH 1024 0
DWIDTH 16 0
BBX 16 16 0 -2
BITMAP
0000
0000
ffff
ffff
ffff
ffff
ffff
ffff
ffff
ffff
ffff
ffff
ffff
ffff
ffff
0000
ENDCHAR
STARTCHAR U2588
ENCODING 9608
SWIDTH 1024 0
DWIDTH 16 0
BBX 16 16 0 -2
BITMAP
ffff
ffff
ffff
ffff
ffff
ffff
ffff
ffff
ffff
ffff
ffff
ffff
ffff
ffff
ffff
0000
ENDCHAR
STARTCHAR U2589
ENCODING 9609
SWIDTH 1024 0
DWIDTH 16 0
BBX 16 16 0 -2
BITMAP
fffc
fffc
fffc
fffc
fffc
fffc
fffc
fffc
fffc
fffc
fffc
fffc
fffc
fffc
fffc
0000
ENDCHAR
STARTCHAR U258a
ENCODING 9610
SWIDTH 1024 0
DWIDTH 16 0
BBX 16 16 0 -2
BITMAP
fff0
fff0
fff0
fff0
fff0
fff0
fff0
fff0
fff0
fff0
fff0
fff0
fff0
fff0
fff0
0000
ENDCHAR
STARTCHAR U258b
ENCODING 9611
SWIDTH 1024 0
DWIDTH 16 0
BBX 16 16 0 -2
BITMAP
ffc0
ffc0
ffc0
ffc0
ffc0
ffc0
ffc0
ffc0
ffc0
ffc0
ffc0
ffc0
ffc0
ffc0
ffc0
0000
ENDCHAR
STARTCHAR U258c
ENCODING 9612
SWIDTH 1024 0
DWIDTH 16 0
BBX 16 16 0 -2
BITMAP
ff00
ff00
ff00
ff00
ff00
ff00
ff00
ff00
ff00
ff00
ff00
ff00
ff00
ff00
ff00
0000
ENDCHAR
STARTCHAR U258d
ENCODING 9613
SWIDTH 1024 0
DWIDTH 16 0
BBX 16 16 0 -2
BITMAP
fc00
fc00
fc00
fc00
fc00
fc00
fc00
fc00
fc00
fc00
fc00
fc00
fc00
fc00
fc00
0000
ENDCHAR
STARTCHAR U258e
ENCODING 9614
SWIDTH 1024 0
DWIDTH 16 0
BBX 16 16 0 -2
BITMAP
f000
f000
f000
f000
f000
f000
f000
f000
f000
f000
f000
f000
f000
f000
f000
0000
ENDCHAR
STARTCHAR U258f
ENCODING 9615
SWIDTH 1024 0
DWIDTH 16 0
BBX 16 16 0 -2
BITMAP
c000
c000
c000
c000
c000
c000
c000
c000
c000
c000
c000
c000
c000
c000
c000
0000
ENDCHAR
STARTCHAR U2592
ENCODING 9618
SWIDTH 1024 0
DWIDTH 16 0
BBX 16 16 0 -2
BITMAP
0000
0000
3ff8
35a8
2008
2aa8
2008
32a8
2008
2aa8
3048
2528
3ff8
0000
0000
0000
ENDCHAR
STARTCHAR U2594
ENCODING 9620
SWIDTH 1024 0
DWIDTH 16 0
BBX 16 16 0 -2
BITMAP
ffff
ffff
0000
0000
0000
0000
0000
0000
0000
0000
0000
0000
0000
0000
0000
0000
ENDCHAR
STARTCHAR U2595
ENCODING 9621
SWIDTH 1024 0
DWIDTH 16 0
BBX 16 16 0 -2
BITMAP
0003
0003
0003
0003
0003
0003
0003
0003
0003
0003
0003
0003
0003
0003
0003
0000
ENDCHAR
STARTCHAR U25a0
ENCODING 9632
SWIDTH 1024 0
DWIDTH 16 0
BBX 16 16 0 -2
BITMAP
0000
0000
1ffe
1ffe
1ffe
1ffe
1ffe
1ffe
1ffe
1ffe
1ffe
1ffe
1ffe
1ffe
0000
0000
ENDCHAR
STARTCHAR U25a1
ENCODING 9633
SWIDTH 1024 0
DWIDTH 16 0
BBX 16 16 0 -2
BITMAP
0000
0000
1ffe
1002
1002
1002
1002
1002
1002
1002
1002
1002
1002
1ffe
0000
0000
ENDCHAR
STARTCHAR U25a3
ENCODING 9635
SWIDTH 1024 0
DWIDTH 16 0
BBX 16 16 0 -2
BITMAP
0000
0000
3ff8
2008
2008
27c8
27c8
27c8
27c8
27c8
2008
2008
3ff8
0000
0000
0000
ENDCHAR
STARTCHAR U25a4
ENCODING 9636
SWIDTH 1024 0
DWIDTH 16 0
BBX 16 16 0 -2
BITMAP
0000
0000
3ff8
2008
3ff8
2008
3ff8
2008
3ff8
2008
3ff8
2008
3ff8
0000
0000
0000
ENDCHAR
STARTCHAR U25a5
ENCODING 9637
SWIDTH 1024 0
DWIDTH 16 0
BBX 16 16 0 -2
BITMAP
0000
0000
3ff8
2aa8
2aa8
2aa8
2aa8
2aa8
2aa8
2aa8
2aa8
2aa8
3ff8
0000
0000
0000
ENDCHAR
STARTCHAR U25a6
ENCODING 9638
SWIDTH 1024 0
DWIDTH 16 0
BBX 16 16 0 -2
BITMAP
0000
0000
3ff8
2aa8
3ff8
2aa8
3ff8
2aa8
3ff8
2aa8
3ff8
2aa8
3ff8
0000
0000
0000
ENDCHAR
STARTCHAR U25a7
ENCODING 9639
SWIDTH 1024 0
DWIDTH 16 0
BBX 16 16 0 -2
BITMAP
0000
0000
3ff8
3088
2848
2428
2218
2108
3088
2848
2428
2218
3ff8
0000
0000
0000
ENDCHAR
STARTCHAR U25a8
ENCODING 9640
SWIDTH 1024 0
DWIDTH 16 0
BBX 16 16 0 -2
BITMAP
0000
0000
3ff8
2218
2428
2848
3088
2108
2218
2428
2848
3088
3ff8
0000
0000
0000
ENDCHAR
STARTCHAR U25a9
ENCODING 9641
SWIDTH 1024 0
DWIDTH 16 0
BBX 16 16 0 -2
BITMAP
0000
0000
3ff8
3298
2c68
2c68
3298
2108
3298
2c68
2c68
3298
3ff8
0000
0000
0000
ENDCHAR
STARTCHAR U25b2
ENCODING 9650
SWIDTH 1024 0
DWIDTH 16 0
BBX 16 16 0 -2
BITMAP
0000
0080
01c0
01c0
03e0
03e0
07f0
07f0
0ff8
0ff8
1ffc
1ffc
3ffe
7fff
0000
0000
ENDCHAR
STARTCHAR U25b3
ENCODING 9651
SWIDTH 1024 0
DWIDTH 16 0
BBX 16 16 0 -2
BITMAP
0000
0080
01c0
0140
0220
0220
0410
0410
0808
0808
1004
1004
2002
7fff
0000
0000
ENDCHAR
STARTCHAR U25b6
ENCODING 9654
SWIDTH 1024 0
DWIDTH 16 0
BBX 16 16 0 -2
BITMAP
0000
4000
7000
7c00
7f00
7fc0
7ff0
7ffc
7ff0
7fc0
7f00
7c00
7000
4000
0000
0000
ENDCHAR
STARTCHAR U25b7
ENCODING 9655
SWIDTH 1024 0
DWIDTH 16 0
BBX 16 16 0 -2
BITMAP
0000
4000
7000
4c00
4300
40c0
4030
400c
4030
40c0
4300
4c00
7000
4000
0000
0000
ENDCHAR
STARTCHAR U25bc
ENCODING 9660
SWIDTH 1024 0
DWIDTH 16 0
BBX 16 16 0 -2
BITMAP
0000
0000
7ffe
3ffc
3ffc
1ff8
1ff0
0ff0
0fe0
07e0
07c0
0380
0380
0100
0000
0000
ENDCHAR
STARTCHAR U25bd
ENCODING 9661
SWIDTH 1024 0
DWIDTH 16 0
BBX 16 16 0 -2
BITMAP
0000
0000
7ffe
2004
2008
1008
1010
0810
0820
0440
0440
0280
0280
0100
0000
0000
ENDCHAR
STARTCHAR U25c0
ENCODING 9664
SWIDTH 1024 0
DWIDTH 16 0
BBX 16 16 0 -2
BITMAP
0000
0004
001c
007c
01fc
07fc
1ffc
7ffc
1ffc
07fc
01fc
007c
001c
0004
0000
0000
ENDCHAR
STARTCHAR U25c1
ENCODING 9665
SWIDTH 1024 0
DWIDTH 16 0
BBX 16 16 0 -2
BITMAP
0000
0004
001c
0064
0184
0604
1804
6004
1804
0604
0184
0064
001c
0004
0000
0000
ENDCHAR
STARTCHAR U25c6
ENCODING 9670
SWIDTH 1024 0
DWIDTH 16 0
BBX 16 16 0 -2
BITMAP
0080
01c0
03e0
07f0
0ff8
1ffc
3ffe
7fff
3ffe
1ffc
0ff8
07f0
03e0
01c0
0080
0000
ENDCHAR
STARTCHAR U25c7
ENCODING 9671
SWIDTH 1024 0
DWIDTH 16 0
BBX 16 16 0 -2
BITMAP
0080
0140
0220
0410
0808
1004
2002
4001
2002
1004
0808
0410
0220
0140
0080
0000
ENDCHAR
STARTCHAR U25c8
ENCODING 9672
SWIDTH 1024 0
DWIDTH 16 0
BBX 16 16 0 -2
BITMAP
0000
0100
0280
0440
0920
1390
27c8
4fe4
27c8
1390
0920
0440
0280
0100
0000
0000
ENDCHAR
STARTCHAR U25c9
ENCODING 9673
SWIDTH 1024 0
DWIDTH 16 0
BBX 16 16 0 -2
BITMAP
0000
03c0
0c30
1008
2004
4182
43c2
43c2
4182
2004
1008
0c30
03c0
0000
0000
0000
ENDCHAR
STARTCHAR U25cb
ENCODING 9675
SWIDTH 1024 0
DWIDTH 16 0
BBX 16 16 0 -2
BITMAP
03e0
0c18
1004
2002
2002
4001
4001
4001
4001
4001
2002
2002
1004
0c18
03e0
0000
ENDCHAR
STARTCHAR U25ce
ENCODING 9678
SWIDTH 1024 0
DWIDTH 16 0
BBX 16 16 0 -2
BITMAP
03e0
0c18
11c4
2632
280a
4809
5005
5005
5005
4809
280a
2632
11c4
0c18
03e0
0000
ENDCHAR
STARTCHAR U25cf
ENCODING 9679
SWIDTH 1024 0
DWIDTH 16 0
BBX 16 16 0 -2
BITMAP
03e0
0ff8
1ffc
3ffe
3ffe
7fff
7fff
7fff
7fff
7fff
3ffe
3ffe
1ffc
0ff8
03e0
0000
ENDCHAR
STARTCHAR U25d0
ENCODING 9680
SWIDTH 1024 0
DWIDTH 16 0
BBX 16 16 0 -2
BITMAP
0000
03c0
0f30
1f08
3f04
7f02
7f02
7f02
7f02
3f04
1f08
0f30
03c0
0000
0000
0000
ENDCHAR
STARTCHAR U25d1
ENCODING 9681
SWIDTH 1024 0
DWIDTH 16 0
BBX 16 16 0 -2
BITMAP
0000
03c0
0cf0
10f8
20fc
40fe
40fe
40fe
40fe
20fc
10f8
0cf0
03c0
0000
0000
0000
ENDCHAR
STARTCHAR U25e2
ENCODING 9698
SWIDTH 1024 0
DWIDTH 16 0
BBX 16 16 0 -2
BITMAP
0001
0003
0007
000f
001f
003f
007f
00ff
01ff
03ff
07ff
0fff
1fff
3fff
7fff
0000
ENDCHAR
STARTCHAR U25e3
ENCODING 9699
SWIDTH 1024 0
DWIDTH 16 0
BBX 16 16 0 -2
BITMAP
8000
c000
e000
f000
f800
fc00
fe00
ff00
ff80
ffc0
ffe0
fff0
fff8
fffc
fffe
0000
ENDCHAR
STARTCHAR U25e4
ENCODING 9700
SWIDTH 1024 0
DWIDTH 16 0
BBX 16 16 0 -2
BITMAP
ffff
fffe
fffc
fff8
fff0
ffe0
ffc0
ff80
ff00
fe00
fc00
f800
f000
e000
c000
0000
ENDCHAR
STARTCHAR U25e5
ENCODING 9701
SWIDTH 1024 0
DWIDTH 16 0
BBX 16 16 0 -2
BITMAP
ffff
7fff
3fff
1fff
0fff
07ff
03ff
01ff
00ff
007f
003f
001f
000f
0007
0003
0000
ENDCHAR
STARTCHAR U25ef
ENCODING 9711
SWIDTH 1024 0
DWIDTH 16 0
BBX 16 16 0 -2
BITMAP
03c0
0c30
1008
2004
4002
4002
8001
8001
8001
8001
4002
4002
2004
1008
0c30
03c0
ENDCHAR
STARTCHAR U2605
ENCODING 9733
SWIDTH 1024 0
DWIDTH 16 0
BBX 16 16 0 -2
BITMAP
0080
0080
01c0
01c0
03e0
7fff
3ffe
1ffc
0ff8
07f0
0ff8
0f78
1e3c
180c
2002
0000
ENDCHAR
STARTCHAR U2606
ENCODING 9734
SWIDTH 1024 0
DWIDTH 16 0
BBX 16 16 0 -2
BITMAP
0080
0080
0140
0140
0220
7c1f
2002
1004
0808
0410
0888
0948
1634
180c
2002
0000
ENDCHAR
STARTCHAR U2609
ENCODING 9737
SWIDTH 1024 0
DWIDTH 16 0
BBX 16 16 0 -2
BITMAP
0000
0000
07f0
0808
1004
2002
21c2
23e2
21c2
2002
1004
0808
07f0
0000
0000
0000
ENDCHAR
STARTCHAR U260e
ENCODING 9742
SWIDTH 1024 0
DWIDTH 16 0
BBX 16 16 0 -2
BITMAP
0000
0000
3ffc
ffff
f24f
6246
07e0
1ff8
3e7c
7c3e
7e7e
7ffe
7ffe
0000
0000
0000
ENDCHAR
STARTCHAR U260f
ENCODING 9743
SWIDTH 1024 0
DWIDTH 16 0
BBX 16 16 0 -2
BITMAP
0000
0000
7ffe
8ff1
9249
67e6
0420
1bd8
2184
43c2
4182
7ffe
0000
0000
0000
0000
ENDCHAR
STARTCHAR U261c
ENCODING 9756
SWIDTH 1024 0
DWIDTH 16 0
BBX 16 16 0 -2
BITMAP
0000
000e
000a
7ffa
800a
7e0a
100a
0f0a
080a
070a
020a
01fa
000a
000e
0000
0000
ENDCHAR
STARTCHAR U261e
ENCODING 9758
SWIDTH 1024 0
DWIDTH 16 0
BBX 16 16 0 -2
BITMAP
0000
e000
a000
bffc
a002
a3fc
a020
a3c0
a040
a380
a080
bf00
a000
e000
0000
0000
ENDCHAR
STARTCHAR U2640
ENCODING 9792
SWIDTH 1024 0
DWIDTH 16 0
BBX 16 16 0 -2
BITMAP
0000
01c0
0220
0220
0220
01c0
0080
0080
0ff8
0080
0080
0080
0080
0080
0000
0000
ENDCHAR
STARTCHAR U2641
ENCODING 9793
SWIDTH 1024 0
DWIDTH 16 0
BBX 16 16 0 -2
BITMAP
0000
0000
07f0
0888
1084
2082
2082
3ffe
2082
2082
1084
0888
07f0
0000
0000
0000
ENDCHAR
STARTCHAR U2642
ENCODING 9794
SWIDTH 1024 0
DWIDTH 16 0
BBX 16 16 0 -2
BITMAP
0000
0080
01c0
02a0
0490
0080
0080
0080
0080
01c0
0220
0220
0220
01c0
0000
0000
ENDCHAR
STARTCHAR U2660
ENCODING 9824
SWIDTH 1024 0
DWIDTH 16 0
BBX 16 16 0 -2
BITMAP
0100
0380
07c0
0fe0
1ff0
3ff8
7ffc
7ffc
fffe
fffe
fd7e
793c
0100
0100
0000
0000
ENDCHAR
STARTCHAR U2661
ENCODING 9825
SWIDTH 1024 0
DWIDTH 16 0
BBX 16 16 0 -2
BITMAP
0000
3c78
4284
8102
8002
8002
8002
4004
2008
1010
0820
0440
0280
0100
0000
0000
ENDCHAR
STARTCHAR U2663
ENCODING 9827
SWIDTH 1024 0
DWIDTH 16 0
BBX 16 16 0 -2
BITMAP
0000
07c0
0fe0
0fe0
0fe0
07c0
739c
fdbe
fffe
fd7e
f93e
711c
0100
0100
0100
0000
ENDCHAR
STARTCHAR U2664
ENCODING 9828
SWIDTH 1024 0
DWIDTH 16 0
BBX 16 16 0 -2
BITMAP
0100
0280
0440
0820
1010
2008
4004
4004
8102
8382
8542
793c
0100
0100
0000
0000
ENDCHAR
STARTCHAR U2665
ENCODING 9829
SWIDTH 1024 0
DWIDTH 16 0
BBX 16 16 0 -2
BITMAP
0000
3c78
7efc
fffe
fffe
fffe
fffe
7ffc
3ff8
1ff0
0fe0
07c0
0380
0100
0000
0000
ENDCHAR
STARTCHAR U2667
ENCODING 9831
SWIDTH 1024 0
DWIDTH 16 0
BBX 16 16 0 -2
BITMAP
0000
07c0
0820
0820
0820
0440
729c
8c62
8282
8542
8922
711c
0100
0100
0100
0000
ENDCHAR
STARTCHAR U2668
ENCODING 9832
SWIDTH 1024 0
DWIDTH 16 0
BBX 16 16 0 -2
BITMAP
0000
0000
0920
1120
1240
1240
1240
0920
2928
4924
4924
5244
3ff8
0000
0000
0000
ENDCHAR
STARTCHAR U2669
ENCODING 9833
SWIDTH 1024 0
DWIDTH 16 0
BBX 16 16 0 -2
BITMAP
0000
0040
0040
0040
0040
0040
0040
0040
0040
0040
00c0
03c0
07c0
0780
0000
0000
ENDCHAR
STARTCHAR U266a
ENCODING 9834
SWIDTH 1024 0
DWIDTH 16 0
BBX 16 16 0 -2
BITMAP
0080
0080
00c0
00e0
00b0
0098
008c
0084
0084
0088
0090
0080
0f80
1f80
1f00
0e00
ENDCHAR
STARTCHAR U266c
ENCODING 9836
SWIDTH 1024 0
DWIDTH 16 0
BBX 16 16 0 -2
BITMAP
0000
07fe
0402
0402
07fe
0402
0402
0402
0402
0402
0c06
3c1e
7c3e
783c
0000
0000
ENDCHAR
STARTCHAR U266d
ENCODING 9837
SWIDTH 1024 0
DWIDTH 16 0
BBX 16 16 0 -2
BITMAP
0400
0400
0400
0400
0400
0400
05e0
0630
0430
0430
0430
0460
04c0
0500
0600
0400
ENDCHAR
STARTCHAR U266f
ENCODING 9839
SWIDTH 1024 0
DWIDTH 16 0
BBX 16 16 0 -2
BITMAP
0020
0420
0420
043c
07fc
3fe0
3c20
0420
0420
043c
07fc
3fe0
3c20
0420
0420
0400
ENDCHAR
STARTCHAR U3000
ENCODING 12288
SWIDTH 1024 0
DWIDTH 16 0
BBX 16 16 0 -2
BITMAP
0000
0000
0000
0000
0000
0000
0000
0000
0000
0000
0000
0000
0000
0000
0000
0000
ENDCHAR
STARTCHAR U3001
ENCODING 12289
SWIDTH 1024 0
DWIDTH 16 0
BBX 5 5 1 -2
BITMAP
80
60
70
38
18
ENDCHAR
STARTCHAR U3002
ENCODING 12290
SWIDTH 1024 0
DWIDTH 16 0
BBX 6 5 1 -2
BITMAP
78
84
84
84
78
ENDCHAR
STARTCHAR U3003
ENCODING 12291
SWIDTH 1024 0
DWIDTH 16 0
BBX 12 9 1 0
BITMAP
0420
0e70
0e70
0e70
1ce0
18c0
3180
6300
8400
ENDCHAR
STARTCHAR U3004
ENCODING 12292
SWIDTH 1024 0
DWIDTH 16 0
BBX 16 16 0 -2
BITMAP
0100
0380
06C0
0C60
1830
301C
E007
0000
3FFC
0100
0100
0100
0100
0100
FFFF
0000
ENDCHAR
STARTCHAR U3005
ENCODING 12293
SWIDTH 1024 0
DWIDTH 16 0
BBX 16 16 0 -2
BITMAP
0000
0200
0200
0200
07F8
0408
0C18
0810
1830
3360
01C0
0060
0030
0010
0000
0000
ENDCHAR
STARTCHAR U3006
ENCODING 12294
SWIDTH 1024 0
DWIDTH 16 0
BBX 16 16 0 -2
BITMAP
0000
0006
000C
0018
0730
09E0
10C0
11E0
3330
2600
2C00
2800
3800
3000
6000
0000
ENDCHAR
STARTCHAR U3007
ENCODING 12295
SWIDTH 1024 0
DWIDTH 16 0
BBX 16 16 0 -2
BITMAP
0000
0000
07E0
1C38
300C
2004
6006
4002
4002
6006
2004
300C
1C38
07E0
0000
0000
ENDCHAR
STARTCHAR U3008
ENCODING 12296
SWIDTH 1024 0
DWIDTH 16 0
BBX 5 15 10 -2
BITMAP
08
10
10
20
20
40
40
80
40
40
20
20
10
10
08
ENDCHAR
STARTCHAR U3009
ENCODING 12297
SWIDTH 1024 0
DWIDTH 16 0
BBX 5 15 1 -2
BITMAP
80
40
40
20
20
10
10
08
10
10
20
20
40
40
80
ENDCHAR
STARTCHAR U300a
ENCODING 12298
SWIDTH 1024 0
DWIDTH 16 0
BBX 12 15 3 -2
BITMAP
0360
06c0
0d80
1b00
3600
6c00
d800
d800
6c00
3600
1b00
0d80
06c0
0360
01b0
ENDCHAR
STARTCHAR U300b
ENCODING 12299
SWIDTH 1024 0
DWIDTH 16 0
BBX 12 15 1 -2
BITMAP
6c00
3600
1b00
0d80
06c0
0360
01b0
01b0
0360
06c0
0d80
1b00
3600
6c00
d800
ENDCHAR
STARTCHAR U300c
ENCODING 12300
SWIDTH 1024 0
DWIDTH 16 0
BBX 7 10 8 3
BITMAP
fe
80
80
80
80
80
80
80
80
80
ENDCHAR
STARTCHAR U300d
ENCODING 12301
SWIDTH 1024 0
DWIDTH 16 0
BBX 7 10 1 -2
BITMAP
02
02
02
02
02
02
02
02
02
fe
ENDCHAR
STARTCHAR U300e
ENCODING 12302
SWIDTH 1024 0
DWIDTH 16 0
BBX 6 12 9 1
BITMAP
fc
84
bc
a0
a0
a0
a0
a0
a0
a0
a0
e0
ENDCHAR
STARTCHAR U300f
ENCODING 12303
SWIDTH 1024 0
DWIDTH 16 0
BBX 7 11 1 -2
BITMAP
0e
0a
0a
0a
0a
0a
0a
0a
fa
82
fe
ENDCHAR
STARTCHAR U3010
ENCODING 12304
SWIDTH 1024 0
DWIDTH 16 0
BBX 6 15 9 -2
BITMAP
fc
f8
f0
e0
e0
c0
c0
c0
c0
c0
e0
e0
f0
f8
fc
ENDCHAR
STARTCHAR U3011
ENCODING 12305
SWIDTH 1024 0
DWIDTH 16 0
BBX 6 15 1 -2
BITMAP
fc
7c
3c
3c
1c
1c
1c
1c
1c
1c
1c
3c
3c
7c
fc
ENDCHAR
STARTCHAR U3012
ENCODING 12306
SWIDTH 1024 0
DWIDTH 16 0
BBX 16 16 0 -2
BITMAP
0000
7FFE
7FFE
0000
0000
7FFE
7FFE
0180
0180
0180
0180
0180
0180
0180
0180
0000
ENDCHAR
STARTCHAR U3013
ENCODING 12307
SWIDTH 1024 0
DWIDTH 16 0
BBX 16 16 0 -2
BITMAP
0000
0000
7FFE
7FFE
7FFE
7FFE
0000
0000
0000
7FFE
7FFE
7FFE
7FFE
0000
0000
0000
ENDCHAR
STARTCHAR U3014
ENCODING 12308
SWIDTH 1024 0
DWIDTH 16 0
BBX 5 15 10 -2
BITMAP
38
60
c0
c0
c0
c0
c0
c0
c0
c0
c0
c0
c0
60
38
ENDCHAR
STARTCHAR U3015
ENCODING 12309
SWIDTH 1024 0
DWIDTH 16 0
BBX 5 15 1 -2
BITMAP
e0
30
18
18
18
18
18
18
18
18
18
18
18
30
e0
ENDCHAR
STARTCHAR U301c
ENCODING 12316
SWIDTH 1024 0
DWIDTH 16 0
BBX 14 5 0 3
BITMAP
1800
7e00
c30c
01f8
0060
ENDCHAR
STARTCHAR U301d
ENCODING 12317
SWIDTH 1024 0
DWIDTH 16 0
BBX 8 4 0 9
BITMAP
ee
66
22
11
ENDCHAR
STARTCHAR U301e
ENCODING 12318
SWIDTH 1024 0
DWIDTH 16 0
BBX 8 4 7 9
BITMAP
77
66
44
88
ENDCHAR
STARTCHAR U3021
ENCODING 12321
SWIDTH 1024 0
DWIDTH 16 0
BBX 2 15 7 -2
BITMAP
c0
c0
c0
c0
c0
c0
c0
c0
c0
c0
c0
c0
c0
c0
40
ENDCHAR
STARTCHAR U3022
ENCODING 12322
SWIDTH 1024 0
DWIDTH 16 0
BBX 6 15 5 -2
BITMAP
0c
4c
cc
cc
cc
cc
cc
cc
cc
cc
cc
cc
4c
0c
04
ENDCHAR
STARTCHAR U3023
ENCODING 12323
SWIDTH 1024 0
DWIDTH 16 0
BBX 10 15 3 -2
BITMAP
00c0
40c0
c0c0
c4c0
ccc0
ccc0
ccc0
ccc0
ccc0
ccc0
ccc0
c4c0
40c0
00c0
0040
ENDCHAR
STARTCHAR U3024
ENCODING 12324
SWIDTH 1024 0
DWIDTH 16 0
BBX 13 12 1 0
BITMAP
c018
6030
3060
18c0
0d80
0700
0700
0d80
18c0
3060
6030
c018
ENDCHAR
STARTCHAR U3025
ENCODING 12325
SWIDTH 1024 0
DWIDTH 16 0
BBX 8 13 5 -1
BITMAP
33
33
66
6c
78
38
6c
c6
c6
c6
c6
cc
78
ENDCHAR
STARTCHAR U3026
ENCODING 12326
SWIDTH 1024 0
DWIDTH 16 0
BBX 13 7 2 4
BITMAP
0400
0600
0600
0600
0620
fff0
fff8
ENDCHAR
STARTCHAR U3027
ENCODING 12327
SWIDTH 1024 0
DWIDTH 16 0
BBX 14 10 1 2
BITMAP
0200
0300
0300
0310
fff8
fffc
0000
0040
3fe0
3ff0
ENDCHAR
STARTCHAR U3028
ENCODING 12328
SWIDTH 1024 0
DWIDTH 16 0
BBX 15 14 0 -1
BITMAP
0200
0300
0300
0320
7ff0
7ff8
0000
0000
1fe0
1fe0
0000
0008
fffc
fffe
ENDCHAR
STARTCHAR U3029
ENCODING 12329
SWIDTH 1024 0
DWIDTH 16 0
BBX 13 14 2 -1
BITMAP
0400
0c00
1800
3fe0
7ff0
6060
30c0
1980
0f00
0600
0f00
19c0
70f8
e030
ENDCHAR
STARTCHAR U3041
ENCODING 12353
SWIDTH 1024 0
DWIDTH 16 0
BBX 16 16 0 -2
BITMAP
0000
0000
0000
0000
0200
02e0
3f00
0240
0240
0ff0
1488
2508
2208
3c10
0060
0180
ENDCHAR
STARTCHAR U3042
ENCODING 12354
SWIDTH 1024 0
DWIDTH 16 0
BBX 16 16 0 -2
BITMAP
0000
0100
0100
01f8
3f00
0120
0120
07f0
1a48
2244
4144
4184
4304
3c08
0030
00c0
ENDCHAR
STARTCHAR U3043
ENCODING 12355
SWIDTH 1024 0
DWIDTH 16 0
BBX 16 16 0 -2
BITMAP
0000
0000
0000
0000
0000
0000
3000
1010
1008
1008
1004
1104
1204
1400
0c00
0400
ENDCHAR
STARTCHAR U3044
ENCODING 12356
SWIDTH 1024 0
DWIDTH 16 0
BBX 16 16 0 -2
BITMAP
0000
0000
0000
6010
2010
2008
2008
2004
2004
2004
2104
1204
1400
1800
0800
0800
ENDCHAR
STARTCHAR U3045
ENCODING 12357
SWIDTH 1024 0
DWIDTH 16 0
BBX 16 16 0 -2
BITMAP
0000
0000
0000
0000
0400
03f0
0000
01f0
2608
1804
0004
0004
0008
0030
00c0
0300
ENDCHAR
STARTCHAR U3046
ENCODING 12358
SWIDTH 1024 0
DWIDTH 16 0
BBX 16 16 0 -2
BITMAP
0000
0800
07f0
0000
0000
01f0
4608
3804
0004
0004
0004
0004
0008
0030
00c0
0700
ENDCHAR
STARTCHAR U3047
ENCODING 12359
SWIDTH 1024 0
DWIDTH 16 0
BBX 16 16 0 -2
BITMAP
0000
0000
0000
0000
0400
03e0
0000
2040
1ff0
0080
0100
03c0
0440
0840
107c
0000
ENDCHAR
STARTCHAR U3048
ENCODING 12360
SWIDTH 1024 0
DWIDTH 16 0
BBX 16 16 0 -2
BITMAP
0000
1000
0800
07c0
0000
0020
41f0
3e40
0080
0180
0280
0440
0840
1040
203e
0000
ENDCHAR
STARTCHAR U3049
ENCODING 12361
SWIDTH 1024 0
DWIDTH 16 0
BBX 16 16 0 -2
BITMAP
0000
0000
0000
0000
0000
0610
0208
3ff4
0200
07e0
0a10
1208
1208
1208
0c10
0060
ENDCHAR
STARTCHAR U304a
ENCODING 12362
SWIDTH 1024 0
DWIDTH 16 0
BBX 16 16 0 -2
BITMAP
0000
0800
0408
04e4
7f02
041e
0400
07f0
0c08
1404
2404
4404
4404
3808
0070
0000
ENDCHAR
STARTCHAR U304b
ENCODING 12363
SWIDTH 1024 0
DWIDTH 16 0
BBX 16 16 0 -2
BITMAP
0000
0600
0200
0208
47c4
3c44
0444
0842
0842
085a
1046
1082
2080
2700
4000
0000
ENDCHAR
STARTCHAR U304c
ENCODING 12364
SWIDTH 1024 0
DWIDTH 16 0
BBX 16 16 0 -2
BITMAP
0000
0404
0212
0208
0410
7fc8
0444
0444
0842
0842
105e
1042
2080
2680
4100
0000
ENDCHAR
STARTCHAR U304d
ENCODING 12365
SWIDTH 1024 0
DWIDTH 16 0
BBX 16 16 0 -2
BITMAP
0000
0100
008c
00f0
1f80
0047
00f8
7f20
0020
0010
4010
40f0
2000
1800
07f0
0000
ENDCHAR
STARTCHAR U304e
ENCODING 12366
SWIDTH 1024 0
DWIDTH 16 0
BBX 16 16 0 -2
BITMAP
0000
0206
0118
01e0
1e80
0047
0078
03c0
3c20
0020
0010
41f0
2010
1800
07e0
0000
ENDCHAR
STARTCHAR U304f
ENCODING 12367
SWIDTH 1024 0
DWIDTH 16 0
BBX 16 16 0 -2
BITMAP
0000
0070
0020
0040
0080
0300
0400
0800
0400
0200
0100
0080
0060
0010
0008
0000
ENDCHAR
STARTCHAR U3050
ENCODING 12368
SWIDTH 1024 0
DWIDTH 16 0
BBX 16 16 0 -2
BITMAP
0000
0052
0049
0080
0100
0200
0400
0800
1000
1000
0c00
0300
00c0
0020
0010
0000
ENDCHAR
STARTCHAR U3051
ENCODING 12369
SWIDTH 1024 0
DWIDTH 16 0
BBX 16 16 0 -2
BITMAP
0000
2060
2010
2010
2013
47fc
4010
4010
4010
4410
4810
5020
3020
1040
1080
0000
ENDCHAR
STARTCHAR U3052
ENCODING 12370
SWIDTH 1024 0
DWIDTH 16 0
BBX 16 16 0 -2
BITMAP
0000
1042
2029
2024
2020
47ff
4020
4020
4020
4820
5020
5020
3020
3040
1180
0000
ENDCHAR
STARTCHAR U3053
ENCODING 12371
SWIDTH 1024 0
DWIDTH 16 0
BBX 16 16 0 -2
BITMAP
0000
0000
1000
0ff8
0010
0020
0000
0000
0000
0000
0000
4000
2002
1ffc
0000
0000
ENDCHAR
STARTCHAR U3054
ENCODING 12372
SWIDTH 1024 0
DWIDTH 16 0
BBX 16 16 0 -2
BITMAP
0000
0002
0009
1ff4
0020
0040
0000
0000
0000
0000
0000
4000
2002
1ffc
0000
0000
ENDCHAR
STARTCHAR U3055
ENCODING 12373
SWIDTH 1024 0
DWIDTH 16 0
BBX 16 16 0 -2
BITMAP
0000
0100
0080
004e
3070
0fc0
0020
0010
0010
40c8
4038
2000
1000
0c00
03f8
0004
ENDCHAR
STARTCHAR U3056
ENCODING 12374
SWIDTH 1024 0
DWIDTH 16 0
BBX 16 16 0 -2
BITMAP
0000
0204
0112
0088
20fc
1fc0
0040
0020
0020
4010
40f0
4000
2000
1c00
03fc
0000
ENDCHAR
STARTCHAR U3057
ENCODING 12375
SWIDTH 1024 0
DWIDTH 16 0
BBX 16 16 0 -2
BITMAP
0000
3000
0800
0800
0800
0800
0800
0800
1000
1002
1004
1008
1010
0860
0780
0000
ENDCHAR
STARTCHAR U3058
ENCODING 12376
SWIDTH 1024 0
DWIDTH 16 0
BBX 16 16 0 -2
BITMAP
0000
1020
0910
0880
0800
0800
0800
0800
1000
1001
1002
1004
1008
1030
0fc0
0000
ENDCHAR
STARTCHAR U3059
ENCODING 12377
SWIDTH 1024 0
DWIDTH 16 0
BBX 16 16 0 -2
BITMAP
0000
00e0
0020
0020
4fff
3020
01a0
0260
0420
0420
0260
01a0
0040
0080
0300
0c00
ENDCHAR
STARTCHAR U305a
ENCODING 12378
SWIDTH 1024 0
DWIDTH 16 0
BBX 16 16 0 -2
BITMAP
0000
0184
0052
0048
47fe
3840
0040
07c0
0840
08c0
0740
0040
0040
0080
0100
0e00
ENDCHAR
STARTCHAR U305b
ENCODING 12379
SWIDTH 1024 0
DWIDTH 16 0
BBX 16 16 0 -2
BITMAP
0000
0020
3010
0810
0810
08fe
7f10
0810
0810
0810
08d0
0830
0800
0ffc
0000
0000
ENDCHAR
STARTCHAR U305c
ENCODING 12380
SWIDTH 1024 0
DWIDTH 16 0
BBX 16 16 0 -2
BITMAP
0000
0014
104a
0820
0820
0820
08fe
7f20
0820
0820
09a0
0860
0800
0c00
03fc
0000
ENDCHAR
STARTCHAR U305d
ENCODING 12381
SWIDTH 1024 0
DWIDTH 16 0
BBX 16 16 0 -2
BITMAP
0000
00f0
1f20
0040
0080
0100
021e
0fe0
1400
6400
0400
0400
0400
0300
00fc
0000
ENDCHAR
STARTCHAR U305e
ENCODING 12382
SWIDTH 1024 0
DWIDTH 16 0
BBX 16 16 0 -2
BITMAP
0000
00fa
1f25
0040
0080
0100
021e
0fe0
1400
6400
0400
0400
0400
0300
00fc
0000
ENDCHAR
STARTCHAR U305f
ENCODING 12383
SWIDTH 1024 0
DWIDTH 16 0
BBX 16 16 0 -2
BITMAP
0000
0400
0400
0460
4780
3c7e
0400
0800
0800
0800
1000
1200
1200
21fe
4000
0000
ENDCHAR
STARTCHAR U3060
ENCODING 12384
SWIDTH 1024 0
DWIDTH 16 0
BBX 16 16 0 -2
BITMAP
0000
0414
040a
0460
4780
3c7e
0400
0800
0800
0800
1000
1200
1200
21fe
4000
0000
ENDCHAR
STARTCHAR U3061
ENCODING 12385
SWIDTH 1024 0
DWIDTH 16 0
BBX 16 16 0 -2
BITMAP
0000
0300
0100
217c
1f80
0200
0400
05fc
0e02
0802
1002
1002
0004
0008
0070
0380
ENDCHAR
STARTCHAR U3062
ENCODING 12386
SWIDTH 1024 0
DWIDTH 16 0
BBX 16 16 0 -2
BITMAP
0000
060a
0205
42f8
3f00
0400
0800
0bf8
1c04
1004
2004
2004
0008
0010
00e0
0700
ENDCHAR
STARTCHAR U3063
ENCODING 12387
SWIDTH 1024 0
DWIDTH 16 0
BBX 16 16 0 -2
BITMAP
0000
0000
0000
0000
0000
0000
03f0
0c08
1004
0004
0004
0008
0010
0060
0380
0000
ENDCHAR
STARTCHAR U3064
ENCODING 12388
SWIDTH 1024 0
DWIDTH 16 0
BBX 16 16 0 -2
BITMAP
0000
0000
0000
01f8
0604
7802
0002
0002
0002
0002
0004
0004
0018
0060
0780
0000
ENDCHAR
STARTCHAR U3065
ENCODING 12389
SWIDTH 1024 0
DWIDTH 16 0
BBX 16 16 0 -2
BITMAP
0000
000a
0005
01f8
0604
7802
0002
0002
0002
0002
0004
0004
0018
0060
0780
0000
ENDCHAR
STARTCHAR U3066
ENCODING 12390
SWIDTH 1024 0
DWIDTH 16 0
BBX 16 16 0 -2
BITMAP
0000
0000
003c
07c0
7a00
0400
0400
0800
0800
0800
0800
0400
0200
01f8
0000
0000
ENDCHAR
STARTCHAR U3067
ENCODING 12391
SWIDTH 1024 0
DWIDTH 16 0
BBX 16 16 0 -2
BITMAP
0000
0000
003c
07c0
7a14
040a
0400
0800
0800
0800
0800
0400
0200
01f8
0000
0000
ENDCHAR
STARTCHAR U3068
ENCODING 12392
SWIDTH 1024 0
DWIDTH 16 0
BBX 16 16 0 -2
BITMAP
0000
0300
0100
0100
0108
0118
0160
0380
0400
0800
1000
1000
1000
0800
07fc
0000
ENDCHAR
STARTCHAR U3069
ENCODING 12393
SWIDTH 1024 0
DWIDTH 16 0
BBX 16 16 0 -2
BITMAP
0000
0600
020a
0205
0210
0230
02c0
0700
0800
1000
2000
2000
2000
1000
0ff8
0000
ENDCHAR
STARTCHAR U306a
ENCODING 12394
SWIDTH 1024 0
DWIDTH 16 0
BBX 16 16 0 -2
BITMAP
0000
0400
0400
0770
7c1c
0410
0410
0810
0810
0810
1010
13f0
1418
2424
43c2
0000
ENDCHAR
STARTCHAR U306b
ENCODING 12395
SWIDTH 1024 0
DWIDTH 16 0
BBX 16 16 0 -2
BITMAP
0000
2000
1000
11fc
1000
2000
4000
4000
4000
4000
4c00
5200
6100
21fe
2000
1000
ENDCHAR
STARTCHAR U306c
ENCODING 12396
SWIDTH 1024 0
DWIDTH 16 0
BBX 16 16 0 -2
BITMAP
0000
0100
0100
4100
43f0
2d08
1104
3102
2902
4502
4202
4374
448c
388c
0072
0002
ENDCHAR
STARTCHAR U306d
ENCODING 12397
SWIDTH 1024 0
DWIDTH 16 0
BBX 16 16 0 -2
BITMAP
0000
0c00
0400
0478
0584
7e04
4404
0804
1804
1804
28f4
490c
4906
38f9
0800
0800
ENDCHAR
STARTCHAR U306e
ENCODING 12398
SWIDTH 1024 0
DWIDTH 16 0
BBX 16 16 0 -2
BITMAP
0000
0000
07f0
1908
2104
4104
4102
4102
4102
4102
4202
2202
1c04
0008
0030
00c0
ENDCHAR
STARTCHAR U306f
ENCODING 12399
SWIDTH 1024 0
DWIDTH 16 0
BBX 16 16 0 -2
BITMAP
0000
1060
1010
1010
101e
27f0
2010
4010
4010
4010
45f0
5a1c
6212
61e1
2000
0000
ENDCHAR
STARTCHAR U3070
ENCODING 12400
SWIDTH 1024 0
DWIDTH 16 0
BBX 16 16 0 -2
BITMAP
0000
106a
1015
1010
101e
27f0
2010
4010
4010
4010
45f0
5a1c
6212
61e1
2000
0000
ENDCHAR
STARTCHAR U3071
ENCODING 12401
SWIDTH 1024 0
DWIDTH 16 0
BBX 16 16 0 -2
BITMAP
0000
20c6
2029
2026
203c
4fe0
4020
8020
8020
8020
8be0
b438
c424
c3c2
4000
0000
ENDCHAR
STARTCHAR U3072
ENCODING 12402
SWIDTH 1024 0
DWIDTH 16 0
BBX 16 16 0 -2
BITMAP
0000
0100
4100
3e08
0208
0408
0808
100c
200c
2012
2010
2010
1020
0fc0
0000
0000
ENDCHAR
STARTCHAR U3073
ENCODING 12403
SWIDTH 1024 0
DWIDTH 16 0
BBX 16 16 0 -2
BITMAP
0000
010a
4105
3e08
0208
0408
0808
100c
200c
2012
2010
2010
1020
0fc0
0000
0000
ENDCHAR
STARTCHAR U3074
ENCODING 12404
SWIDTH 1024 0
DWIDTH 16 0
BBX 16 16 0 -2
BITMAP
0000
0106
4109
3e0e
0208
0408
0808
100c
200c
2012
2010
2010
1020
0fc0
0000
0000
ENDCHAR
STARTCHAR U3075
ENCODING 12405
SWIDTH 1024 0
DWIDTH 16 0
BBX 16 16 0 -2
BITMAP
0000
0200
0100
0080
0140
0200
0400
0200
0110
0088
0444
0842
1042
2640
4180
0000
ENDCHAR
STARTCHAR U3076
ENCODING 12406
SWIDTH 1024 0
DWIDTH 16 0
BBX 16 16 0 -2
BITMAP
0000
0214
010a
0080
0140
0200
0400
0200
0110
0088
0444
0842
1042
2640
4180
0000
ENDCHAR
STARTCHAR U3077
ENCODING 12407
SWIDTH 1024 0
DWIDTH 16 0
BBX 16 16 0 -2
BITMAP
0000
020c
0112
008c
0140
0200
0400
0200
0110
0088
0444
0842
1042
2640
4180
0000
ENDCHAR
STARTCHAR U3078
ENCODING 12408
SWIDTH 1024 0
DWIDTH 16 0
BBX 16 16 0 -2
BITMAP
0000
0000
0000
0300
0480
0840
1020
6020
0010
0008
0004
0002
0001
0000
0000
0000
ENDCHAR
STARTCHAR U3079
ENCODING 12409
SWIDTH 1024 0
DWIDTH 16 0
BBX 16 16 0 -2
BITMAP
0000
0000
0014
030a
0480
0840
1020
6020
0010
0008
0004
0002
0001
0000
0000
0000
ENDCHAR
STARTCHAR U307a
ENCODING 12410
SWIDTH 1024 0
DWIDTH 16 0
BBX 16 16 0 -2
BITMAP
0000
0000
000c
0312
048c
0840
1020
6020
0010
0008
0004
0002
0001
0000
0000
0000
ENDCHAR
STARTCHAR U307b
ENCODING 12411
SWIDTH 1024 0
DWIDTH 16 0
BBX 16 16 0 -2
BITMAP
0000
2000
107c
1190
2010
201e
47f0
4010
4010
4010
49f8
5214
2212
21e1
2000
0000
ENDCHAR
STARTCHAR U307c
ENCODING 12412
SWIDTH 1024 0
DWIDTH 16 0
BBX 16 16 0 -2
BITMAP
0000
400a
2075
27c0
4040
407c
8fc0
8040
8040
8040
93f0
a448
4444
4382
4000
0000
ENDCHAR
STARTCHAR U307d
ENCODING 12413
SWIDTH 1024 0
DWIDTH 16 0
BBX 16 16 0 -2
BITMAP
0000
4006
2079
27c6
4040
407c
8fc0
8040
8040
8040
93e0
a458
4444
4382
4000
0000
ENDCHAR
ENDFONT
